{"glyphs":{"0":{"ha":819,"x_min":65,"x_max":754,"o":"m 412 -9 q 541 21 479 -9 q 651 113 603 51 q 726 269 699 174 q 754 490 754 363 q 726 707 754 614 q 650 863 699 800 q 539 957 602 926 q 407 989 476 989 q 279 959 340 989 q 170 867 218 928 q 93 711 121 805 q 65 489 65 616 q 93 272 65 365 q 170 116 121 178 q 281 22 219 54 q 412 -9 344 -9 m 412 -7 q 326 26 364 -7 q 262 126 288 60 q 222 290 236 193 q 209 515 209 388 q 222 728 209 639 q 260 875 235 818 q 322 960 286 932 q 407 987 359 987 q 494 953 456 987 q 558 853 532 919 q 597 689 584 787 q 610 465 610 592 q 598 251 610 340 q 560 104 585 161 q 498 20 535 47 q 412 -7 461 -7 z "},"1":{"ha":439,"x_min":58,"x_max":392,"o":"m 290 983 l 215 983 q 144 914 182 947 q 58 850 106 882 l 58 849 l 166 891 l 166 111 q 158 51 166 73 q 127 19 149 30 q 64 1 105 8 l 64 0 l 392 0 l 392 1 q 325 20 349 9 q 293 52 302 31 q 284 111 284 73 l 290 983 z "},"2":{"ha":608,"x_min":27,"x_max":559,"o":"m 553 0 l 559 104 l 48 104 l 48 104 l 184 218 q 393 406 312 323 q 514 566 475 489 q 553 732 553 644 q 522 866 553 808 q 434 956 490 924 q 304 989 378 989 q 112 926 184 989 q 27 759 39 863 l 27 758 q 97 865 45 823 q 227 907 149 907 q 368 845 313 907 q 423 682 423 783 q 404 561 423 619 q 342 437 385 502 q 226 292 298 372 q 47 104 154 211 l 35 92 l 35 0 l 553 0 z "},"3":{"ha":699,"x_min":68,"x_max":644,"o":"m 324 -9 q 432 10 376 -9 q 536 68 488 30 q 614 164 585 107 q 644 296 644 221 q 607 433 644 371 q 504 531 569 494 q 355 568 438 568 l 355 568 q 483 606 428 576 q 569 681 538 636 q 600 781 600 726 q 569 889 600 842 q 483 962 538 936 q 357 989 429 989 q 218 959 277 989 q 123 879 159 929 q 74 767 86 828 l 74 766 q 154 868 97 829 q 294 907 210 907 q 425 864 375 907 q 475 746 475 820 q 410 611 475 671 q 186 521 345 551 l 186 519 q 426 450 340 519 q 511 271 511 380 q 479 134 511 191 q 392 46 447 77 q 270 15 337 15 q 170 37 215 15 q 97 99 124 60 q 69 189 69 138 l 68 189 q 102 87 68 132 q 194 16 136 42 q 324 -9 252 -9 m 129 249 q 86 232 105 249 q 68 189 68 214 l 68 189 q 86 143 68 160 q 128 125 104 125 q 173 143 154 125 q 191 189 191 160 q 173 231 191 214 q 129 249 155 249 z "},"4":{"ha":711,"x_min":17,"x_max":692,"o":"m 440 0 l 551 0 l 551 255 l 687 255 l 692 351 l 551 351 l 551 983 l 488 983 l 17 294 l 17 255 l 440 255 l 440 0 m 440 350 l 96 350 l 96 350 l 441 910 l 440 910 l 440 350 z "},"5":{"ha":661,"x_min":57,"x_max":604,"o":"m 294 -9 q 441 29 370 -9 q 558 137 513 67 q 604 302 604 207 q 568 457 604 391 q 471 561 531 524 q 341 597 411 597 q 222 577 273 597 q 136 526 170 557 q 87 461 102 495 l 87 461 l 171 871 l 566 871 l 572 979 l 178 979 l 83 454 l 86 454 q 149 512 107 490 q 248 535 190 535 q 358 505 307 535 q 440 416 409 474 q 471 276 471 358 q 441 132 471 191 q 361 44 411 74 q 250 15 311 15 q 148 38 191 15 q 81 99 104 62 q 58 175 58 136 l 57 175 q 84 90 57 133 q 164 19 111 47 q 294 -9 216 -9 m 118 238 q 76 220 94 238 q 57 175 57 202 l 58 175 q 76 131 58 148 q 117 115 94 115 q 162 132 143 115 q 180 178 180 149 q 162 220 180 203 q 118 238 144 238 z "},"6":{"ha":758,"x_min":63,"x_max":709,"o":"m 63 395 q 107 175 63 266 q 227 38 152 85 q 394 -9 302 -9 q 503 10 448 -9 q 605 68 558 29 q 681 166 652 107 q 709 306 709 226 q 675 451 709 389 q 581 548 641 513 q 444 582 522 582 q 313 551 368 582 q 227 464 257 519 q 197 335 197 408 l 197 335 q 250 476 197 424 q 382 529 302 529 q 523 460 470 529 q 575 269 575 391 q 553 127 575 189 q 490 28 530 64 q 394 -7 449 -7 q 291 31 336 -7 q 222 144 247 68 q 197 335 197 220 l 197 335 l 197 335 q 246 661 197 522 q 400 883 296 800 q 668 983 504 966 l 668 984 q 425 943 536 985 q 233 823 315 901 q 107 635 152 744 q 63 395 63 527 z "},"7":{"ha":629,"x_min":37,"x_max":585,"o":"m 273 0 q 368 323 317 169 q 472 614 418 477 q 585 871 527 752 l 585 979 l 42 979 l 37 871 l 584 871 l 584 872 q 426 615 502 749 q 276 330 349 481 q 132 1 203 178 l 132 0 l 273 0 z "},"8":{"ha":770,"x_min":64,"x_max":707,"o":"m 707 249 q 682 360 707 312 q 606 452 657 409 q 473 541 554 495 l 373 600 q 246 701 285 651 q 207 822 207 751 q 254 941 207 895 q 386 987 302 987 q 485 958 445 987 q 545 880 524 928 q 565 772 565 831 q 533 642 565 700 q 444 554 502 584 l 445 553 q 563 605 511 572 q 644 682 614 637 q 673 782 673 726 q 637 890 673 844 q 537 963 602 937 q 386 989 472 989 q 239 963 304 989 q 136 887 174 938 q 98 758 98 836 q 122 654 98 699 q 189 572 146 609 q 292 500 233 534 l 393 441 q 515 358 470 397 q 579 277 560 319 q 599 184 599 236 q 542 44 599 96 q 387 -7 484 -7 q 277 24 325 -7 q 201 112 229 56 q 173 237 174 167 q 210 389 172 326 q 317 487 247 452 l 316 488 q 188 433 245 468 q 97 345 131 397 q 64 220 64 292 q 110 88 65 138 q 227 14 154 37 q 387 -9 300 -9 q 541 19 467 -9 q 661 105 614 47 q 707 249 707 163 z "},"9":{"ha":758,"x_min":49,"x_max":695,"o":"m 695 584 q 651 804 695 714 q 531 942 606 895 q 364 989 456 989 q 255 969 311 989 q 153 911 200 950 q 78 813 106 872 q 49 673 49 753 q 83 528 49 591 q 177 432 117 466 q 314 397 237 397 q 446 429 391 397 q 531 515 501 460 q 562 644 562 571 l 561 644 q 509 503 561 555 q 376 450 457 450 q 236 519 288 450 q 183 711 183 588 q 205 852 183 790 q 269 951 228 915 q 364 987 309 987 q 467 949 422 987 q 536 835 511 911 q 561 644 561 759 l 562 644 l 562 644 q 512 318 562 457 q 358 96 463 179 q 90 -4 254 14 l 90 -5 q 333 36 222 -6 q 525 157 444 78 q 651 344 606 235 q 695 584 695 452 z "}," ":{"ha":271,"x_min":0,"x_max":0,"o":""},"A":{"ha":844,"x_min":-11,"x_max":854,"o":"m 736 144 l 439 979 l 416 979 l 131 201 q 81 81 102 123 q 39 23 60 40 q -11 1 18 6 l -11 0 l 197 0 l 197 1 q 134 26 152 7 q 120 85 115 45 q 149 198 125 126 l 358 814 l 358 814 l 593 144 q 609 67 610 97 q 591 21 608 37 q 538 1 573 5 l 538 0 l 854 0 l 854 1 q 807 20 827 6 q 771 63 787 34 q 736 144 755 93 m 197 361 l 583 361 l 583 369 l 199 369 l 197 361 z "},"Á":{"ha":844,"x_min":-11,"x_max":854,"o":"m 736 144 l 439 979 l 416 979 l 131 201 q 81 81 102 123 q 39 23 60 40 q -11 1 18 6 l -11 0 l 197 0 l 197 1 q 134 26 152 7 q 120 85 115 45 q 149 198 125 126 l 358 814 l 358 814 l 593 144 q 609 67 610 97 q 591 21 608 37 q 538 1 573 5 l 538 0 l 854 0 l 854 1 q 807 20 827 6 q 771 63 787 34 q 736 144 755 93 m 197 361 l 583 361 l 583 369 l 199 369 l 197 361 m 407 1025 l 606 1198 l 606 1200 l 479 1200 l 406 1025 l 407 1025 z "},"À":{"ha":844,"x_min":-11,"x_max":854,"o":"m 736 144 l 439 979 l 416 979 l 131 201 q 81 81 102 123 q 39 23 60 40 q -11 1 18 6 l -11 0 l 197 0 l 197 1 q 134 26 152 7 q 120 85 115 45 q 149 198 125 126 l 358 814 l 358 814 l 593 144 q 609 67 610 97 q 591 21 608 37 q 538 1 573 5 l 538 0 l 854 0 l 854 1 q 807 20 827 6 q 771 63 787 34 q 736 144 755 93 m 197 361 l 583 361 l 583 369 l 199 369 l 197 361 m 459 1026 l 460 1026 l 389 1200 l 258 1200 l 258 1199 l 459 1026 z "},"Ȁ":{"ha":844,"x_min":-11,"x_max":854,"o":"m 736 144 l 439 979 l 416 979 l 131 201 q 81 81 102 123 q 39 23 60 40 q -11 1 18 6 l -11 0 l 197 0 l 197 1 q 134 26 152 7 q 120 85 115 45 q 149 198 125 126 l 358 814 l 358 814 l 593 144 q 609 67 610 97 q 591 21 608 37 q 538 1 573 5 l 538 0 l 854 0 l 854 1 q 807 20 827 6 q 771 63 787 34 q 736 144 755 93 m 197 361 l 583 361 l 583 369 l 199 369 l 197 361 m 298 1200 l 178 1200 l 178 1199 l 378 1025 l 379 1025 l 298 1200 m 488 1200 l 374 1200 l 374 1199 l 537 1025 l 538 1025 l 488 1200 z "},"Â":{"ha":844,"x_min":-11,"x_max":854,"o":"m 736 144 l 439 979 l 416 979 l 131 201 q 81 81 102 123 q 39 23 60 40 q -11 1 18 6 l -11 0 l 197 0 l 197 1 q 134 26 152 7 q 120 85 115 45 q 149 198 125 126 l 358 814 l 358 814 l 593 144 q 609 67 610 97 q 591 21 608 37 q 538 1 573 5 l 538 0 l 854 0 l 854 1 q 807 20 827 6 q 771 63 787 34 q 736 144 755 93 m 197 361 l 583 361 l 583 369 l 199 369 l 197 361 m 286 1026 l 460 1140 l 406 1140 l 579 1026 l 581 1026 l 452 1200 l 414 1200 l 286 1026 q 286 1026 286 1026 q 286 1026 286 1026 z "},"Ấ":{"ha":844,"x_min":-11,"x_max":854,"o":"m 736 144 l 439 979 l 416 979 l 131 201 q 81 81 102 123 q 39 23 60 40 q -11 1 18 6 l -11 0 l 197 0 l 197 1 q 134 26 152 7 q 120 85 115 45 q 149 198 125 126 l 358 814 l 358 814 l 593 144 q 609 67 610 97 q 591 21 608 37 q 538 1 573 5 l 538 0 l 854 0 l 854 1 q 807 20 827 6 q 771 63 787 34 q 736 144 755 93 m 197 361 l 583 361 l 583 369 l 199 369 l 197 361 m 275 1031 l 435 1093 l 420 1093 l 581 1031 l 581 1031 l 433 1158 l 422 1158 l 275 1031 l 275 1031 m 580 1225 l 580 1296 l 274 1177 l 274 1177 l 580 1225 z "},"Ầ":{"ha":844,"x_min":-11,"x_max":854,"o":"m 736 144 l 439 979 l 416 979 l 131 201 q 81 81 102 123 q 39 23 60 40 q -11 1 18 6 l -11 0 l 197 0 l 197 1 q 134 26 152 7 q 120 85 115 45 q 149 198 125 126 l 358 814 l 358 814 l 593 144 q 609 67 610 97 q 591 21 608 37 q 538 1 573 5 l 538 0 l 854 0 l 854 1 q 807 20 827 6 q 771 63 787 34 q 736 144 755 93 m 197 361 l 583 361 l 583 369 l 199 369 l 197 361 m 275 1031 l 435 1093 l 420 1093 l 581 1031 l 581 1031 l 433 1158 l 422 1158 l 275 1031 l 275 1031 m 275 1225 l 581 1177 l 581 1177 l 275 1296 l 275 1225 z "},"Ẫ":{"ha":844,"x_min":-11,"x_max":854,"o":"m 736 144 l 439 979 l 416 979 l 131 201 q 81 81 102 123 q 39 23 60 40 q -11 1 18 6 l -11 0 l 197 0 l 197 1 q 134 26 152 7 q 120 85 115 45 q 149 198 125 126 l 358 814 l 358 814 l 593 144 q 609 67 610 97 q 591 21 608 37 q 538 1 573 5 l 538 0 l 854 0 l 854 1 q 807 20 827 6 q 771 63 787 34 q 736 144 755 93 m 197 361 l 583 361 l 583 369 l 199 369 l 197 361 m 275 1031 l 435 1093 l 420 1093 l 581 1031 l 581 1031 l 433 1158 l 422 1158 l 275 1031 l 275 1031 m 498 1197 q 559 1221 538 1197 q 581 1290 581 1245 l 580 1290 q 564 1254 579 1264 q 525 1243 549 1243 q 495 1246 511 1243 q 459 1256 479 1250 l 439 1262 q 400 1272 420 1267 q 357 1276 380 1276 q 296 1252 317 1276 q 275 1183 275 1227 l 275 1183 q 291 1219 277 1208 q 330 1230 306 1230 q 360 1226 345 1230 q 396 1217 376 1223 l 416 1211 q 455 1201 435 1205 q 498 1197 475 1197 z "},"Ẩ":{"ha":844,"x_min":-11,"x_max":854,"o":"m 736 144 l 439 979 l 416 979 l 131 201 q 81 81 102 123 q 39 23 60 40 q -11 1 18 6 l -11 0 l 197 0 l 197 1 q 134 26 152 7 q 120 85 115 45 q 149 198 125 126 l 358 814 l 358 814 l 593 144 q 609 67 610 97 q 591 21 608 37 q 538 1 573 5 l 538 0 l 854 0 l 854 1 q 807 20 827 6 q 771 63 787 34 q 736 144 755 93 m 197 361 l 583 361 l 583 369 l 199 369 l 197 361 m 275 1031 l 435 1093 l 420 1093 l 581 1031 l 581 1031 l 433 1158 l 422 1158 l 275 1031 l 275 1031 m 563 1265 q 503 1248 524 1265 q 469 1214 481 1231 l 469 1213 q 490 1223 477 1219 q 519 1227 503 1227 q 561 1216 545 1227 q 577 1186 577 1205 q 564 1155 577 1168 q 528 1134 551 1141 l 528 1133 q 616 1159 588 1143 q 645 1203 645 1175 q 621 1248 645 1231 q 563 1265 596 1265 z "},"Ậ":{"ha":844,"x_min":-11,"x_max":854,"o":"m 736 144 l 439 979 l 416 979 l 131 201 q 81 81 102 123 q 39 23 60 40 q -11 1 18 6 l -11 0 l 197 0 l 197 1 q 134 26 152 7 q 120 85 115 45 q 149 198 125 126 l 358 814 l 358 814 l 593 144 q 609 67 610 97 q 591 21 608 37 q 538 1 573 5 l 538 0 l 854 0 l 854 1 q 807 20 827 6 q 771 63 787 34 q 736 144 755 93 m 197 361 l 583 361 l 583 369 l 199 369 l 197 361 m 286 1026 l 460 1140 l 406 1140 l 579 1026 l 581 1026 l 452 1200 l 414 1200 l 286 1026 q 286 1026 286 1026 q 286 1026 286 1026 m 391 -132 q 351 -148 368 -132 q 334 -187 334 -165 q 351 -226 334 -210 q 391 -243 368 -243 q 431 -226 414 -243 q 447 -187 447 -210 q 431 -148 447 -165 q 391 -132 414 -132 z "},"Ǎ":{"ha":844,"x_min":-11,"x_max":854,"o":"m 736 144 l 439 979 l 416 979 l 131 201 q 81 81 102 123 q 39 23 60 40 q -11 1 18 6 l -11 0 l 197 0 l 197 1 q 134 26 152 7 q 120 85 115 45 q 149 198 125 126 l 358 814 l 358 814 l 593 144 q 609 67 610 97 q 591 21 608 37 q 538 1 573 5 l 538 0 l 854 0 l 854 1 q 807 20 827 6 q 771 63 787 34 q 736 144 755 93 m 197 361 l 583 361 l 583 369 l 199 369 l 197 361 m 579 1223 l 405 1109 l 460 1109 l 286 1223 l 285 1223 l 413 1048 l 451 1048 l 579 1223 q 579 1223 579 1223 q 579 1223 579 1223 z "},"Ă":{"ha":844,"x_min":-11,"x_max":854,"o":"m 736 144 l 439 979 l 416 979 l 131 201 q 81 81 102 123 q 39 23 60 40 q -11 1 18 6 l -11 0 l 197 0 l 197 1 q 134 26 152 7 q 120 85 115 45 q 149 198 125 126 l 358 814 l 358 814 l 593 144 q 609 67 610 97 q 591 21 608 37 q 538 1 573 5 l 538 0 l 854 0 l 854 1 q 807 20 827 6 q 771 63 787 34 q 736 144 755 93 m 197 361 l 583 361 l 583 369 l 199 369 l 197 361 m 427 1072 q 502 1093 471 1072 q 549 1148 532 1114 q 566 1220 566 1182 q 564 1250 566 1236 l 563 1250 q 563 1250 563 1250 q 563 1250 563 1250 q 544 1191 563 1216 q 495 1154 526 1166 q 427 1141 464 1141 q 358 1154 389 1141 q 309 1191 328 1166 q 290 1250 290 1216 q 290 1250 290 1250 q 290 1250 290 1250 l 290 1250 q 288 1220 288 1236 q 304 1148 288 1182 q 353 1093 321 1114 q 427 1072 384 1072 z "},"Ắ":{"ha":844,"x_min":-11,"x_max":854,"o":"m 736 144 l 439 979 l 416 979 l 131 201 q 81 81 102 123 q 39 23 60 40 q -11 1 18 6 l -11 0 l 197 0 l 197 1 q 134 26 152 7 q 120 85 115 45 q 149 198 125 126 l 358 814 l 358 814 l 593 144 q 609 67 610 97 q 591 21 608 37 q 538 1 573 5 l 538 0 l 854 0 l 854 1 q 807 20 827 6 q 771 63 787 34 q 736 144 755 93 m 197 361 l 583 361 l 583 369 l 199 369 l 197 361 m 427 1061 q 540 1092 496 1061 q 580 1173 584 1122 l 579 1173 q 533 1135 575 1149 q 427 1120 492 1120 q 321 1135 363 1120 q 275 1173 279 1149 l 275 1173 q 315 1092 271 1122 q 427 1061 359 1061 m 580 1241 l 580 1312 l 274 1193 l 274 1192 l 580 1241 z "},"Ằ":{"ha":844,"x_min":-11,"x_max":854,"o":"m 736 144 l 439 979 l 416 979 l 131 201 q 81 81 102 123 q 39 23 60 40 q -11 1 18 6 l -11 0 l 197 0 l 197 1 q 134 26 152 7 q 120 85 115 45 q 149 198 125 126 l 358 814 l 358 814 l 593 144 q 609 67 610 97 q 591 21 608 37 q 538 1 573 5 l 538 0 l 854 0 l 854 1 q 807 20 827 6 q 771 63 787 34 q 736 144 755 93 m 197 361 l 583 361 l 583 369 l 199 369 l 197 361 m 427 1061 q 540 1092 496 1061 q 580 1173 584 1122 l 579 1173 q 533 1135 575 1149 q 427 1120 492 1120 q 321 1135 363 1120 q 275 1173 279 1149 l 275 1173 q 315 1092 271 1122 q 427 1061 359 1061 m 275 1241 l 581 1192 l 581 1193 l 275 1312 l 275 1241 z "},"Ẵ":{"ha":844,"x_min":-11,"x_max":854,"o":"m 736 144 l 439 979 l 416 979 l 131 201 q 81 81 102 123 q 39 23 60 40 q -11 1 18 6 l -11 0 l 197 0 l 197 1 q 134 26 152 7 q 120 85 115 45 q 149 198 125 126 l 358 814 l 358 814 l 593 144 q 609 67 610 97 q 591 21 608 37 q 538 1 573 5 l 538 0 l 854 0 l 854 1 q 807 20 827 6 q 771 63 787 34 q 736 144 755 93 m 197 361 l 583 361 l 583 369 l 199 369 l 197 361 m 427 1061 q 540 1092 496 1061 q 580 1173 584 1122 l 579 1173 q 533 1135 575 1149 q 427 1120 492 1120 q 321 1135 363 1120 q 275 1173 279 1149 l 275 1173 q 315 1092 271 1122 q 427 1061 359 1061 m 498 1213 q 559 1237 538 1213 q 581 1305 581 1261 l 580 1305 q 564 1269 579 1280 q 525 1259 549 1259 q 495 1262 511 1259 q 459 1272 479 1265 l 439 1278 q 400 1287 420 1283 q 357 1291 380 1291 q 296 1267 317 1291 q 275 1198 275 1243 l 275 1198 q 291 1235 277 1224 q 330 1245 306 1245 q 360 1242 345 1245 q 396 1232 376 1238 l 416 1226 q 455 1217 435 1221 q 498 1213 475 1213 z "},"Ẳ":{"ha":844,"x_min":-11,"x_max":854,"o":"m 736 144 l 439 979 l 416 979 l 131 201 q 81 81 102 123 q 39 23 60 40 q -11 1 18 6 l -11 0 l 197 0 l 197 1 q 134 26 152 7 q 120 85 115 45 q 149 198 125 126 l 358 814 l 358 814 l 593 144 q 609 67 610 97 q 591 21 608 37 q 538 1 573 5 l 538 0 l 854 0 l 854 1 q 807 20 827 6 q 771 63 787 34 q 736 144 755 93 m 197 361 l 583 361 l 583 369 l 199 369 l 197 361 m 427 1061 q 540 1092 496 1061 q 580 1173 584 1122 l 579 1173 q 533 1135 575 1149 q 427 1120 492 1120 q 321 1135 363 1120 q 275 1173 279 1149 l 275 1173 q 315 1092 271 1122 q 427 1061 359 1061 m 421 1303 q 358 1286 380 1303 q 323 1253 335 1270 l 323 1252 q 344 1262 330 1258 q 376 1265 357 1265 q 419 1255 402 1265 q 436 1225 436 1244 q 422 1194 436 1207 q 385 1173 409 1180 l 385 1172 q 477 1198 448 1181 q 507 1242 507 1214 q 481 1286 507 1270 q 421 1303 456 1303 z "},"Ặ":{"ha":844,"x_min":-11,"x_max":854,"o":"m 736 144 l 439 979 l 416 979 l 131 201 q 81 81 102 123 q 39 23 60 40 q -11 1 18 6 l -11 0 l 197 0 l 197 1 q 134 26 152 7 q 120 85 115 45 q 149 198 125 126 l 358 814 l 358 814 l 593 144 q 609 67 610 97 q 591 21 608 37 q 538 1 573 5 l 538 0 l 854 0 l 854 1 q 807 20 827 6 q 771 63 787 34 q 736 144 755 93 m 197 361 l 583 361 l 583 369 l 199 369 l 197 361 m 427 1072 q 502 1093 471 1072 q 549 1148 532 1114 q 566 1220 566 1182 q 564 1250 566 1236 l 563 1250 q 563 1250 563 1250 q 563 1250 563 1250 q 544 1191 563 1216 q 495 1154 526 1166 q 427 1141 464 1141 q 358 1154 389 1141 q 309 1191 328 1166 q 290 1250 290 1216 q 290 1250 290 1250 q 290 1250 290 1250 l 290 1250 q 288 1220 288 1236 q 304 1148 288 1182 q 353 1093 321 1114 q 427 1072 384 1072 m 391 -132 q 351 -148 368 -132 q 334 -187 334 -165 q 351 -226 334 -210 q 391 -243 368 -243 q 431 -226 414 -243 q 447 -187 447 -210 q 431 -148 447 -165 q 391 -132 414 -132 z "},"Ȃ":{"ha":844,"x_min":-11,"x_max":854,"o":"m 736 144 l 439 979 l 416 979 l 131 201 q 81 81 102 123 q 39 23 60 40 q -11 1 18 6 l -11 0 l 197 0 l 197 1 q 134 26 152 7 q 120 85 115 45 q 149 198 125 126 l 358 814 l 358 814 l 593 144 q 609 67 610 97 q 591 21 608 37 q 538 1 573 5 l 538 0 l 854 0 l 854 1 q 807 20 827 6 q 771 63 787 34 q 736 144 755 93 m 197 361 l 583 361 l 583 369 l 199 369 l 197 361 m 426 1250 q 352 1229 382 1250 q 304 1174 321 1208 q 288 1101 288 1140 q 290 1072 288 1086 l 290 1072 q 290 1072 290 1072 q 290 1072 290 1072 q 309 1131 290 1106 q 358 1168 328 1155 q 427 1181 389 1181 q 495 1168 464 1181 q 544 1131 526 1155 q 563 1072 563 1106 q 563 1072 563 1072 q 563 1072 563 1072 l 564 1072 q 566 1101 566 1086 q 549 1174 566 1140 q 500 1229 532 1208 q 426 1250 469 1250 z "},"Ä":{"ha":844,"x_min":-11,"x_max":854,"o":"m 736 144 l 439 979 l 416 979 l 131 201 q 81 81 102 123 q 39 23 60 40 q -11 1 18 6 l -11 0 l 197 0 l 197 1 q 134 26 152 7 q 120 85 115 45 q 149 198 125 126 l 358 814 l 358 814 l 593 144 q 609 67 610 97 q 591 21 608 37 q 538 1 573 5 l 538 0 l 854 0 l 854 1 q 807 20 827 6 q 771 63 787 34 q 736 144 755 93 m 197 361 l 583 361 l 583 369 l 199 369 l 197 361 m 335 1059 q 374 1075 358 1059 q 389 1114 389 1091 q 374 1152 389 1135 q 335 1168 358 1168 q 297 1152 313 1168 q 281 1114 281 1135 q 297 1075 281 1091 q 335 1059 313 1059 m 519 1059 q 557 1075 542 1059 q 573 1114 573 1091 q 557 1152 573 1135 q 519 1168 542 1168 q 481 1152 496 1168 q 465 1114 465 1135 q 481 1075 465 1091 q 519 1059 496 1059 z "},"Ǟ":{"ha":844,"x_min":-11,"x_max":854,"o":"m 736 144 l 439 979 l 416 979 l 131 201 q 81 81 102 123 q 39 23 60 40 q -11 1 18 6 l -11 0 l 197 0 l 197 1 q 134 26 152 7 q 120 85 115 45 q 149 198 125 126 l 358 814 l 358 814 l 593 144 q 609 67 610 97 q 591 21 608 37 q 538 1 573 5 l 538 0 l 854 0 l 854 1 q 807 20 827 6 q 771 63 787 34 q 736 144 755 93 m 197 361 l 583 361 l 583 369 l 199 369 l 197 361 m 341 1072 q 376 1085 362 1072 q 390 1116 390 1097 q 376 1148 390 1135 q 341 1160 362 1160 l 340 1160 q 305 1148 319 1160 q 291 1116 291 1135 q 305 1085 291 1097 q 340 1072 319 1072 l 341 1072 m 515 1072 q 550 1085 536 1072 q 564 1116 564 1097 q 550 1148 564 1135 q 515 1160 536 1160 l 513 1160 q 478 1148 492 1160 q 465 1116 465 1135 q 478 1085 465 1097 q 513 1072 492 1072 l 515 1072 m 275 1226 l 581 1226 l 581 1276 l 275 1276 l 275 1226 z "},"Ã":{"ha":844,"x_min":-11,"x_max":854,"o":"m 736 144 l 439 979 l 416 979 l 131 201 q 81 81 102 123 q 39 23 60 40 q -11 1 18 6 l -11 0 l 197 0 l 197 1 q 134 26 152 7 q 120 85 115 45 q 149 198 125 126 l 358 814 l 358 814 l 593 144 q 609 67 610 97 q 591 21 608 37 q 538 1 573 5 l 538 0 l 854 0 l 854 1 q 807 20 827 6 q 771 63 787 34 q 736 144 755 93 m 197 361 l 583 361 l 583 369 l 199 369 l 197 361 m 492 1046 q 557 1077 532 1046 q 576 1190 581 1107 l 576 1190 q 560 1125 572 1142 q 528 1109 547 1109 q 501 1114 513 1109 q 469 1133 489 1120 l 450 1145 q 404 1172 424 1163 q 362 1180 383 1180 q 297 1150 321 1180 q 277 1037 273 1120 l 278 1037 q 294 1101 281 1085 q 326 1118 307 1118 q 353 1113 340 1118 q 385 1094 365 1107 l 404 1081 q 450 1055 430 1064 q 492 1046 471 1046 z "},"Ā":{"ha":844,"x_min":-11,"x_max":854,"o":"m 736 144 l 439 979 l 416 979 l 131 201 q 81 81 102 123 q 39 23 60 40 q -11 1 18 6 l -11 0 l 197 0 l 197 1 q 134 26 152 7 q 120 85 115 45 q 149 198 125 126 l 358 814 l 358 814 l 593 144 q 609 67 610 97 q 591 21 608 37 q 538 1 573 5 l 538 0 l 854 0 l 854 1 q 807 20 827 6 q 771 63 787 34 q 736 144 755 93 m 197 361 l 583 361 l 583 369 l 199 369 l 197 361 m 288 1073 l 568 1073 l 568 1131 l 288 1131 l 288 1073 z "},"Ả":{"ha":844,"x_min":-11,"x_max":854,"o":"m 736 144 l 439 979 l 416 979 l 131 201 q 81 81 102 123 q 39 23 60 40 q -11 1 18 6 l -11 0 l 197 0 l 197 1 q 134 26 152 7 q 120 85 115 45 q 149 198 125 126 l 358 814 l 358 814 l 593 144 q 609 67 610 97 q 591 21 608 37 q 538 1 573 5 l 538 0 l 854 0 l 854 1 q 807 20 827 6 q 771 63 787 34 q 736 144 755 93 m 197 361 l 583 361 l 583 369 l 199 369 l 197 361 m 439 1227 q 373 1206 401 1227 q 331 1152 345 1185 l 332 1151 q 360 1173 343 1164 q 397 1181 376 1181 q 445 1166 427 1181 q 463 1129 463 1152 q 445 1078 463 1102 q 397 1035 428 1055 l 398 1035 q 498 1095 470 1065 q 526 1158 526 1125 q 500 1207 526 1188 q 439 1227 475 1227 z "},"Å":{"ha":844,"x_min":-11,"x_max":854,"o":"m 736 144 l 439 979 l 416 979 l 131 201 q 81 81 102 123 q 39 23 60 40 q -11 1 18 6 l -11 0 l 197 0 l 197 1 q 134 26 152 7 q 120 85 115 45 q 149 198 125 126 l 358 814 l 358 814 l 593 144 q 609 67 610 97 q 591 21 608 37 q 538 1 573 5 l 538 0 l 854 0 l 854 1 q 807 20 827 6 q 771 63 787 34 q 736 144 755 93 m 197 361 l 583 361 l 583 369 l 199 369 l 197 361 m 297 1147 q 338 1080 297 1102 q 427 1058 380 1058 q 516 1080 475 1058 q 557 1147 557 1102 q 516 1214 557 1192 q 427 1237 475 1237 q 338 1214 379 1237 q 297 1147 297 1192 m 376 1147 q 390 1210 376 1185 q 427 1236 404 1236 q 465 1210 451 1236 q 478 1147 478 1184 q 465 1084 478 1108 q 427 1059 451 1059 q 390 1084 404 1059 q 376 1147 376 1108 z "},"Ǻ":{"ha":844,"x_min":-11,"x_max":854,"o":"m 736 144 l 439 979 l 416 979 l 131 201 q 81 81 102 123 q 39 23 60 40 q -11 1 18 6 l -11 0 l 197 0 l 197 1 q 134 26 152 7 q 120 85 115 45 q 149 198 125 126 l 358 814 l 358 814 l 593 144 q 609 67 610 97 q 591 21 608 37 q 538 1 573 5 l 538 0 l 854 0 l 854 1 q 807 20 827 6 q 771 63 787 34 q 736 144 755 93 m 197 361 l 583 361 l 583 369 l 199 369 l 197 361 m 429 1059 q 523 1072 487 1059 q 559 1105 559 1084 q 523 1139 559 1126 q 429 1152 487 1152 l 425 1152 q 331 1139 368 1152 q 295 1105 295 1126 q 331 1072 295 1084 q 425 1059 368 1059 l 429 1059 m 429 1061 l 425 1061 q 390 1074 403 1061 q 378 1105 378 1086 q 390 1138 378 1125 q 425 1150 403 1150 l 429 1150 q 464 1138 452 1150 q 476 1105 476 1125 q 464 1074 476 1086 q 429 1061 452 1061 m 580 1230 l 580 1300 l 274 1181 l 274 1181 l 580 1230 z "},"Ḁ":{"ha":844,"x_min":-11,"x_max":854,"o":"m 736 144 l 439 979 l 416 979 l 131 201 q 81 81 102 123 q 39 23 60 40 q -11 1 18 6 l -11 0 l 197 0 l 197 1 q 134 26 152 7 q 120 85 115 45 q 149 198 125 126 l 358 814 l 358 814 l 593 144 q 609 67 610 97 q 591 21 608 37 q 538 1 573 5 l 538 0 l 854 0 l 854 1 q 807 20 827 6 q 771 63 787 34 q 736 144 755 93 m 197 361 l 583 361 l 583 369 l 199 369 l 197 361 m 246 -188 q 268 -241 246 -220 q 322 -273 289 -262 q 391 -283 355 -283 q 459 -273 427 -283 q 514 -241 492 -262 q 535 -187 535 -220 q 490 -116 535 -140 q 391 -91 445 -91 q 292 -115 337 -91 q 246 -188 246 -140 m 334 -188 q 349 -120 334 -148 q 391 -93 363 -93 q 432 -120 418 -93 q 447 -187 447 -148 q 432 -256 447 -230 q 391 -281 418 -281 q 349 -255 363 -281 q 334 -188 334 -229 z "},"Ȧ":{"ha":844,"x_min":-11,"x_max":854,"o":"m 736 144 l 439 979 l 416 979 l 131 201 q 81 81 102 123 q 39 23 60 40 q -11 1 18 6 l -11 0 l 197 0 l 197 1 q 134 26 152 7 q 120 85 115 45 q 149 198 125 126 l 358 814 l 358 814 l 593 144 q 609 67 610 97 q 591 21 608 37 q 538 1 573 5 l 538 0 l 854 0 l 854 1 q 807 20 827 6 q 771 63 787 34 q 736 144 755 93 m 197 361 l 583 361 l 583 369 l 199 369 l 197 361 m 427 1057 q 467 1074 451 1057 q 484 1113 484 1090 q 467 1152 484 1135 q 427 1168 451 1168 q 388 1152 404 1168 q 371 1113 371 1135 q 388 1074 371 1090 q 427 1057 404 1057 z "},"Ǡ":{"ha":844,"x_min":-11,"x_max":854,"o":"m 736 144 l 439 979 l 416 979 l 131 201 q 81 81 102 123 q 39 23 60 40 q -11 1 18 6 l -11 0 l 197 0 l 197 1 q 134 26 152 7 q 120 85 115 45 q 149 198 125 126 l 358 814 l 358 814 l 593 144 q 609 67 610 97 q 591 21 608 37 q 538 1 573 5 l 538 0 l 854 0 l 854 1 q 807 20 827 6 q 771 63 787 34 q 736 144 755 93 m 197 361 l 583 361 l 583 369 l 199 369 l 197 361 m 427 1072 q 464 1084 449 1072 q 479 1116 479 1097 q 464 1148 479 1135 q 427 1161 449 1161 q 391 1148 406 1161 q 376 1116 376 1135 q 391 1084 376 1097 q 427 1072 406 1072 m 275 1213 l 581 1213 l 581 1263 l 275 1263 l 275 1213 z "},"Ạ":{"ha":844,"x_min":-11,"x_max":854,"o":"m 736 144 l 439 979 l 416 979 l 131 201 q 81 81 102 123 q 39 23 60 40 q -11 1 18 6 l -11 0 l 197 0 l 197 1 q 134 26 152 7 q 120 85 115 45 q 149 198 125 126 l 358 814 l 358 814 l 593 144 q 609 67 610 97 q 591 21 608 37 q 538 1 573 5 l 538 0 l 854 0 l 854 1 q 807 20 827 6 q 771 63 787 34 q 736 144 755 93 m 197 361 l 583 361 l 583 369 l 199 369 l 197 361 m 391 -132 q 351 -148 368 -132 q 334 -187 334 -165 q 351 -226 334 -210 q 391 -243 368 -243 q 431 -226 414 -243 q 447 -187 447 -210 q 431 -148 447 -165 q 391 -132 414 -132 z "},"Ą":{"ha":844,"x_min":-11,"x_max":854,"o":"m 736 144 l 439 979 l 416 979 l 131 201 q 81 81 102 123 q 39 23 60 40 q -11 1 18 6 l -11 0 l 197 0 l 197 1 q 134 26 152 7 q 120 85 115 45 q 149 198 125 126 l 358 814 l 358 814 l 593 144 q 609 67 610 97 q 591 21 608 37 q 538 1 573 5 l 538 0 l 854 0 l 854 1 q 807 20 827 6 q 771 63 787 34 q 736 144 755 93 m 197 361 l 583 361 l 583 369 l 199 369 l 197 361 m 696 -317 q 764 -296 734 -317 q 805 -239 794 -275 l 804 -239 q 784 -259 797 -251 q 754 -268 771 -268 q 696 -227 721 -268 q 672 -131 672 -186 q 680 -55 672 -89 q 701 1 687 -22 l 701 1 q 616 -97 646 -45 q 587 -205 587 -148 q 617 -286 587 -254 q 696 -317 648 -317 z "},"B":{"ha":818,"x_min":31,"x_max":764,"o":"m 764 273 q 718 407 764 353 q 590 491 672 462 q 399 523 507 520 q 556 552 481 526 q 677 626 630 577 q 724 749 724 675 q 674 880 724 829 q 532 955 623 930 q 321 979 441 979 l 31 979 l 31 979 q 80 963 63 972 q 103 937 97 954 q 110 891 110 921 l 110 88 q 103 42 110 59 q 80 17 97 26 q 31 1 63 8 l 31 0 l 321 0 q 480 15 402 0 q 623 62 559 30 q 725 146 687 94 q 764 273 764 199 m 617 268 q 540 78 617 149 q 311 3 463 7 l 245 1 l 245 523 l 372 521 q 506 486 451 519 q 589 395 560 452 q 617 268 617 338 m 583 744 q 527 580 583 633 q 372 525 471 526 l 245 524 l 245 979 l 311 977 q 472 942 412 973 q 557 859 532 910 q 583 744 583 807 z "},"Ḇ":{"ha":818,"x_min":31,"x_max":764,"o":"m 764 273 q 718 407 764 353 q 590 491 672 462 q 399 523 507 520 q 556 552 481 526 q 677 626 630 577 q 724 749 724 675 q 674 880 724 829 q 532 955 623 930 q 321 979 441 979 l 31 979 l 31 979 q 80 963 63 972 q 103 937 97 954 q 110 891 110 921 l 110 88 q 103 42 110 59 q 80 17 97 26 q 31 1 63 8 l 31 0 l 321 0 q 480 15 402 0 q 623 62 559 30 q 725 146 687 94 q 764 273 764 199 m 617 268 q 540 78 617 149 q 311 3 463 7 l 245 1 l 245 523 l 372 521 q 506 486 451 519 q 589 395 560 452 q 617 268 617 338 m 583 744 q 527 580 583 633 q 372 525 471 526 l 245 524 l 245 979 l 311 977 q 472 942 412 973 q 557 859 532 910 q 583 744 583 807 z "},"Ḃ":{"ha":818,"x_min":31,"x_max":764,"o":"m 764 273 q 718 407 764 353 q 590 491 672 462 q 399 523 507 520 q 556 552 481 526 q 677 626 630 577 q 724 749 724 675 q 674 880 724 829 q 532 955 623 930 q 321 979 441 979 l 31 979 l 31 979 q 80 963 63 972 q 103 937 97 954 q 110 891 110 921 l 110 88 q 103 42 110 59 q 80 17 97 26 q 31 1 63 8 l 31 0 l 321 0 q 480 15 402 0 q 623 62 559 30 q 725 146 687 94 q 764 273 764 199 m 617 268 q 540 78 617 149 q 311 3 463 7 l 245 1 l 245 523 l 372 521 q 506 486 451 519 q 589 395 560 452 q 617 268 617 338 m 583 744 q 527 580 583 633 q 372 525 471 526 l 245 524 l 245 979 l 311 977 q 472 942 412 973 q 557 859 532 910 q 583 744 583 807 m 401 1057 q 441 1074 425 1057 q 458 1113 458 1090 q 441 1152 458 1135 q 401 1168 425 1168 q 362 1152 378 1168 q 345 1113 345 1135 q 362 1074 345 1090 q 401 1057 378 1057 z "},"Ḅ":{"ha":818,"x_min":31,"x_max":764,"o":"m 764 273 q 718 407 764 353 q 590 491 672 462 q 399 523 507 520 q 556 552 481 526 q 677 626 630 577 q 724 749 724 675 q 674 880 724 829 q 532 955 623 930 q 321 979 441 979 l 31 979 l 31 979 q 80 963 63 972 q 103 937 97 954 q 110 891 110 921 l 110 88 q 103 42 110 59 q 80 17 97 26 q 31 1 63 8 l 31 0 l 321 0 q 480 15 402 0 q 623 62 559 30 q 725 146 687 94 q 764 273 764 199 m 617 268 q 540 78 617 149 q 311 3 463 7 l 245 1 l 245 523 l 372 521 q 506 486 451 519 q 589 395 560 452 q 617 268 617 338 m 583 744 q 527 580 583 633 q 372 525 471 526 l 245 524 l 245 979 l 311 977 q 472 942 412 973 q 557 859 532 910 q 583 744 583 807 m 402 -132 q 362 -148 379 -132 q 346 -187 346 -165 q 362 -226 346 -210 q 402 -243 379 -243 q 442 -226 426 -243 q 458 -187 458 -210 q 442 -148 458 -165 q 402 -132 426 -132 z "},"C":{"ha":911,"x_min":60,"x_max":857,"o":"m 60 503 q 95 294 60 388 q 194 132 130 199 q 348 27 258 64 q 549 -9 438 -9 q 685 1 624 -9 q 788 26 746 12 q 846 54 829 41 l 857 282 l 857 282 q 813 156 842 210 q 744 65 784 101 q 654 11 703 29 q 549 -7 605 -7 q 396 37 460 -7 q 291 157 332 82 q 231 325 250 232 q 212 515 212 418 q 252 766 212 661 q 366 929 292 872 q 541 987 440 987 q 658 966 606 987 q 750 906 711 945 q 815 815 789 868 q 854 697 842 762 l 855 697 l 844 925 q 743 969 813 949 q 541 989 672 989 q 356 958 443 989 q 202 866 269 927 q 98 714 136 804 q 60 503 60 623 z "},"Ć":{"ha":911,"x_min":60,"x_max":857,"o":"m 60 503 q 95 294 60 388 q 194 132 130 199 q 348 27 258 64 q 549 -9 438 -9 q 685 1 624 -9 q 788 26 746 12 q 846 54 829 41 l 857 282 l 857 282 q 813 156 842 210 q 744 65 784 101 q 654 11 703 29 q 549 -7 605 -7 q 396 37 460 -7 q 291 157 332 82 q 231 325 250 232 q 212 515 212 418 q 252 766 212 661 q 366 929 292 872 q 541 987 440 987 q 658 966 606 987 q 750 906 711 945 q 815 815 789 868 q 854 697 842 762 l 855 697 l 844 925 q 743 969 813 949 q 541 989 672 989 q 356 958 443 989 q 202 866 269 927 q 98 714 136 804 q 60 503 60 623 m 536 1025 l 734 1198 l 734 1200 l 608 1200 l 534 1025 l 536 1025 z "},"Ĉ":{"ha":911,"x_min":60,"x_max":857,"o":"m 60 503 q 95 294 60 388 q 194 132 130 199 q 348 27 258 64 q 549 -9 438 -9 q 685 1 624 -9 q 788 26 746 12 q 846 54 829 41 l 857 282 l 857 282 q 813 156 842 210 q 744 65 784 101 q 654 11 703 29 q 549 -7 605 -7 q 396 37 460 -7 q 291 157 332 82 q 231 325 250 232 q 212 515 212 418 q 252 766 212 661 q 366 929 292 872 q 541 987 440 987 q 658 966 606 987 q 750 906 711 945 q 815 815 789 868 q 854 697 842 762 l 855 697 l 844 925 q 743 969 813 949 q 541 989 672 989 q 356 958 443 989 q 202 866 269 927 q 98 714 136 804 q 60 503 60 623 m 415 1026 l 589 1140 l 534 1140 l 708 1026 l 709 1026 l 581 1200 l 543 1200 l 415 1026 q 415 1026 415 1026 q 415 1026 415 1026 z "},"Č":{"ha":911,"x_min":60,"x_max":857,"o":"m 60 503 q 95 294 60 388 q 194 132 130 199 q 348 27 258 64 q 549 -9 438 -9 q 685 1 624 -9 q 788 26 746 12 q 846 54 829 41 l 857 282 l 857 282 q 813 156 842 210 q 744 65 784 101 q 654 11 703 29 q 549 -7 605 -7 q 396 37 460 -7 q 291 157 332 82 q 231 325 250 232 q 212 515 212 418 q 252 766 212 661 q 366 929 292 872 q 541 987 440 987 q 658 966 606 987 q 750 906 711 945 q 815 815 789 868 q 854 697 842 762 l 855 697 l 844 925 q 743 969 813 949 q 541 989 672 989 q 356 958 443 989 q 202 866 269 927 q 98 714 136 804 q 60 503 60 623 m 708 1223 l 534 1109 l 589 1109 l 415 1223 l 414 1223 l 542 1048 l 580 1048 l 708 1223 q 708 1223 708 1223 q 708 1223 708 1223 z "},"Ċ":{"ha":911,"x_min":60,"x_max":857,"o":"m 60 503 q 95 294 60 388 q 194 132 130 199 q 348 27 258 64 q 549 -9 438 -9 q 685 1 624 -9 q 788 26 746 12 q 846 54 829 41 l 857 282 l 857 282 q 813 156 842 210 q 744 65 784 101 q 654 11 703 29 q 549 -7 605 -7 q 396 37 460 -7 q 291 157 332 82 q 231 325 250 232 q 212 515 212 418 q 252 766 212 661 q 366 929 292 872 q 541 987 440 987 q 658 966 606 987 q 750 906 711 945 q 815 815 789 868 q 854 697 842 762 l 855 697 l 844 925 q 743 969 813 949 q 541 989 672 989 q 356 958 443 989 q 202 866 269 927 q 98 714 136 804 q 60 503 60 623 m 556 1057 q 596 1074 580 1057 q 612 1113 612 1090 q 596 1152 612 1135 q 556 1168 580 1168 q 516 1152 533 1168 q 500 1113 500 1135 q 516 1074 500 1090 q 556 1057 533 1057 z "},"Ç":{"ha":911,"x_min":60,"x_max":857,"o":"m 60 503 q 95 294 60 388 q 194 132 130 199 q 348 27 258 64 q 549 -9 438 -9 q 685 1 624 -9 q 788 26 746 12 q 846 54 829 41 l 857 282 l 857 282 q 813 156 842 210 q 744 65 784 101 q 654 11 703 29 q 549 -7 605 -7 q 396 37 460 -7 q 291 157 332 82 q 231 325 250 232 q 212 515 212 418 q 252 766 212 661 q 366 929 292 872 q 541 987 440 987 q 658 966 606 987 q 750 906 711 945 q 815 815 789 868 q 854 697 842 762 l 855 697 l 844 925 q 743 969 813 949 q 541 989 672 989 q 356 958 443 989 q 202 866 269 927 q 98 714 136 804 q 60 503 60 623 m 547 -280 q 599 -269 574 -280 q 639 -235 623 -257 q 655 -182 655 -214 q 626 -114 655 -140 q 554 -87 596 -87 q 508 -95 528 -86 q 478 -115 487 -103 l 478 -117 l 557 -9 l 557 -8 l 555 -8 l 460 -138 l 460 -138 q 498 -130 471 -130 q 539 -145 522 -130 q 556 -184 556 -159 q 538 -225 556 -210 q 492 -241 519 -241 q 456 -233 473 -241 q 429 -214 439 -226 l 428 -214 q 475 -262 441 -245 q 547 -280 509 -280 z "},"Ḉ":{"ha":911,"x_min":60,"x_max":857,"o":"m 60 503 q 95 294 60 388 q 194 132 130 199 q 348 27 258 64 q 549 -9 438 -9 q 685 1 624 -9 q 788 26 746 12 q 846 54 829 41 l 857 282 l 857 282 q 813 156 842 210 q 744 65 784 101 q 654 11 703 29 q 549 -7 605 -7 q 396 37 460 -7 q 291 157 332 82 q 231 325 250 232 q 212 515 212 418 q 252 766 212 661 q 366 929 292 872 q 541 987 440 987 q 658 966 606 987 q 750 906 711 945 q 815 815 789 868 q 854 697 842 762 l 855 697 l 844 925 q 743 969 813 949 q 541 989 672 989 q 356 958 443 989 q 202 866 269 927 q 98 714 136 804 q 60 503 60 623 m 547 -280 q 599 -269 574 -280 q 639 -235 623 -257 q 655 -182 655 -214 q 626 -114 655 -140 q 554 -87 596 -87 q 508 -95 528 -86 q 478 -115 487 -103 l 478 -117 l 557 -9 l 557 -8 l 555 -8 l 460 -138 l 460 -138 q 498 -130 471 -130 q 539 -145 522 -130 q 556 -184 556 -159 q 538 -225 556 -210 q 492 -241 519 -241 q 456 -233 473 -241 q 429 -214 439 -226 l 428 -214 q 475 -262 441 -245 q 547 -280 509 -280 m 536 1025 l 734 1198 l 734 1200 l 608 1200 l 534 1025 l 536 1025 z "},"D":{"ha":977,"x_min":31,"x_max":922,"o":"m 922 508 q 845 768 922 663 q 628 926 768 873 q 300 979 488 979 l 31 979 l 31 979 q 80 963 63 972 q 103 937 97 954 q 110 891 110 921 l 110 88 q 103 42 110 59 q 80 17 97 26 q 31 1 63 8 l 31 0 l 300 0 q 539 31 427 0 q 738 123 652 61 q 873 282 824 186 q 922 508 922 378 m 770 493 q 715 234 770 342 q 553 66 660 125 q 289 2 446 7 l 245 1 l 245 979 l 289 977 q 555 912 448 972 q 716 745 663 852 q 770 493 770 638 z "},"Ḓ":{"ha":977,"x_min":31,"x_max":922,"o":"m 922 508 q 845 768 922 663 q 628 926 768 873 q 300 979 488 979 l 31 979 l 31 979 q 80 963 63 972 q 103 937 97 954 q 110 891 110 921 l 110 88 q 103 42 110 59 q 80 17 97 26 q 31 1 63 8 l 31 0 l 300 0 q 539 31 427 0 q 738 123 652 61 q 873 282 824 186 q 922 508 922 378 m 770 493 q 715 234 770 342 q 553 66 660 125 q 289 2 446 7 l 245 1 l 245 979 l 289 977 q 555 912 448 972 q 716 745 663 852 q 770 493 770 638 z "},"Ď":{"ha":977,"x_min":31,"x_max":922,"o":"m 922 508 q 845 768 922 663 q 628 926 768 873 q 300 979 488 979 l 31 979 l 31 979 q 80 963 63 972 q 103 937 97 954 q 110 891 110 921 l 110 88 q 103 42 110 59 q 80 17 97 26 q 31 1 63 8 l 31 0 l 300 0 q 539 31 427 0 q 738 123 652 61 q 873 282 824 186 q 922 508 922 378 m 770 493 q 715 234 770 342 q 553 66 660 125 q 289 2 446 7 l 245 1 l 245 979 l 289 977 q 555 912 448 972 q 716 745 663 852 q 770 493 770 638 m 623 1223 l 448 1109 l 503 1109 l 330 1223 l 328 1223 l 456 1048 l 494 1048 l 623 1223 q 623 1223 623 1223 q 623 1223 623 1223 z "},"Ḏ":{"ha":977,"x_min":31,"x_max":922,"o":"m 922 508 q 845 768 922 663 q 628 926 768 873 q 300 979 488 979 l 31 979 l 31 979 q 80 963 63 972 q 103 937 97 954 q 110 891 110 921 l 110 88 q 103 42 110 59 q 80 17 97 26 q 31 1 63 8 l 31 0 l 300 0 q 539 31 427 0 q 738 123 652 61 q 873 282 824 186 q 922 508 922 378 m 770 493 q 715 234 770 342 q 553 66 660 125 q 289 2 446 7 l 245 1 l 245 979 l 289 977 q 555 912 448 972 q 716 745 663 852 q 770 493 770 638 z "},"Ḋ":{"ha":977,"x_min":31,"x_max":922,"o":"m 922 508 q 845 768 922 663 q 628 926 768 873 q 300 979 488 979 l 31 979 l 31 979 q 80 963 63 972 q 103 937 97 954 q 110 891 110 921 l 110 88 q 103 42 110 59 q 80 17 97 26 q 31 1 63 8 l 31 0 l 300 0 q 539 31 427 0 q 738 123 652 61 q 873 282 824 186 q 922 508 922 378 m 770 493 q 715 234 770 342 q 553 66 660 125 q 289 2 446 7 l 245 1 l 245 979 l 289 977 q 555 912 448 972 q 716 745 663 852 q 770 493 770 638 m 471 1057 q 511 1074 494 1057 q 527 1113 527 1090 q 511 1152 527 1135 q 471 1168 494 1168 q 431 1152 448 1168 q 414 1113 414 1135 q 431 1074 414 1090 q 471 1057 448 1057 z "},"Ḍ":{"ha":977,"x_min":31,"x_max":922,"o":"m 922 508 q 845 768 922 663 q 628 926 768 873 q 300 979 488 979 l 31 979 l 31 979 q 80 963 63 972 q 103 937 97 954 q 110 891 110 921 l 110 88 q 103 42 110 59 q 80 17 97 26 q 31 1 63 8 l 31 0 l 300 0 q 539 31 427 0 q 738 123 652 61 q 873 282 824 186 q 922 508 922 378 m 770 493 q 715 234 770 342 q 553 66 660 125 q 289 2 446 7 l 245 1 l 245 979 l 289 977 q 555 912 448 972 q 716 745 663 852 q 770 493 770 638 m 460 -132 q 420 -148 437 -132 q 404 -187 404 -165 q 420 -226 404 -210 q 460 -243 437 -243 q 500 -226 484 -243 q 516 -187 516 -210 q 500 -148 516 -165 q 460 -132 484 -132 z "},"Ḑ":{"ha":977,"x_min":31,"x_max":922,"o":"m 922 508 q 845 768 922 663 q 628 926 768 873 q 300 979 488 979 l 31 979 l 31 979 q 80 963 63 972 q 103 937 97 954 q 110 891 110 921 l 110 88 q 103 42 110 59 q 80 17 97 26 q 31 1 63 8 l 31 0 l 300 0 q 539 31 427 0 q 738 123 652 61 q 873 282 824 186 q 922 508 922 378 m 770 493 q 715 234 770 342 q 553 66 660 125 q 289 2 446 7 l 245 1 l 245 979 l 289 977 q 555 912 448 972 q 716 745 663 852 q 770 493 770 638 m 460 -283 q 547 -256 512 -283 q 583 -186 583 -229 q 551 -116 583 -142 q 472 -91 519 -91 q 410 -110 433 -91 q 372 -149 387 -129 l 372 -150 q 392 -143 379 -146 q 419 -140 406 -140 q 469 -154 450 -140 q 489 -193 489 -168 q 470 -231 489 -216 q 420 -245 451 -245 q 372 -234 395 -245 q 334 -208 349 -223 l 334 -209 q 381 -261 346 -239 q 460 -283 416 -283 z "},"Ð":{"ha":977,"x_min":31,"x_max":922,"o":"m 922 508 q 845 768 922 663 q 628 926 768 873 q 300 979 488 979 l 31 979 l 31 979 q 80 963 63 972 q 103 937 97 954 q 110 891 110 921 l 110 88 q 103 42 110 59 q 80 17 97 26 q 31 1 63 8 l 31 0 l 300 0 q 539 31 427 0 q 738 123 652 61 q 873 282 824 186 q 922 508 922 378 m 770 493 q 715 234 770 342 q 553 66 660 125 q 289 2 446 7 l 245 1 l 245 979 l 289 977 q 555 912 448 972 q 716 745 663 852 q 770 493 770 638 m 31 499 l 448 499 l 448 505 l 31 505 l 31 499 z "},"E":{"ha":761,"x_min":31,"x_max":724,"o":"m 673 979 l 31 979 l 31 979 q 80 963 63 972 q 103 937 97 954 q 110 891 110 921 l 110 88 q 103 42 110 59 q 80 17 97 26 q 31 1 63 8 l 31 0 l 709 0 l 724 240 l 724 240 q 688 132 709 175 q 632 63 667 89 q 544 25 598 37 q 411 9 490 13 l 245 1 l 245 501 l 433 494 q 516 477 488 492 q 557 435 545 463 q 577 363 569 407 l 578 363 l 578 640 l 577 640 q 557 569 569 597 q 516 526 545 541 q 433 510 488 512 l 245 503 l 245 979 l 357 973 q 532 948 467 968 q 630 886 596 929 q 684 763 665 842 l 685 763 l 673 979 z "},"É":{"ha":761,"x_min":31,"x_max":724,"o":"m 673 979 l 31 979 l 31 979 q 80 963 63 972 q 103 937 97 954 q 110 891 110 921 l 110 88 q 103 42 110 59 q 80 17 97 26 q 31 1 63 8 l 31 0 l 709 0 l 724 240 l 724 240 q 688 132 709 175 q 632 63 667 89 q 544 25 598 37 q 411 9 490 13 l 245 1 l 245 501 l 433 494 q 516 477 488 492 q 557 435 545 463 q 577 363 569 407 l 578 363 l 578 640 l 577 640 q 557 569 569 597 q 516 526 545 541 q 433 510 488 512 l 245 503 l 245 979 l 357 973 q 532 948 467 968 q 630 886 596 929 q 684 763 665 842 l 685 763 l 673 979 m 372 1025 l 571 1198 l 571 1200 l 445 1200 l 371 1025 l 372 1025 z "},"È":{"ha":761,"x_min":31,"x_max":724,"o":"m 673 979 l 31 979 l 31 979 q 80 963 63 972 q 103 937 97 954 q 110 891 110 921 l 110 88 q 103 42 110 59 q 80 17 97 26 q 31 1 63 8 l 31 0 l 709 0 l 724 240 l 724 240 q 688 132 709 175 q 632 63 667 89 q 544 25 598 37 q 411 9 490 13 l 245 1 l 245 501 l 433 494 q 516 477 488 492 q 557 435 545 463 q 577 363 569 407 l 578 363 l 578 640 l 577 640 q 557 569 569 597 q 516 526 545 541 q 433 510 488 512 l 245 503 l 245 979 l 357 973 q 532 948 467 968 q 630 886 596 929 q 684 763 665 842 l 685 763 l 673 979 m 425 1026 l 426 1026 l 355 1200 l 223 1200 l 223 1199 l 425 1026 z "},"Ȅ":{"ha":761,"x_min":31,"x_max":724,"o":"m 673 979 l 31 979 l 31 979 q 80 963 63 972 q 103 937 97 954 q 110 891 110 921 l 110 88 q 103 42 110 59 q 80 17 97 26 q 31 1 63 8 l 31 0 l 709 0 l 724 240 l 724 240 q 688 132 709 175 q 632 63 667 89 q 544 25 598 37 q 411 9 490 13 l 245 1 l 245 501 l 433 494 q 516 477 488 492 q 557 435 545 463 q 577 363 569 407 l 578 363 l 578 640 l 577 640 q 557 569 569 597 q 516 526 545 541 q 433 510 488 512 l 245 503 l 245 979 l 357 973 q 532 948 467 968 q 630 886 596 929 q 684 763 665 842 l 685 763 l 673 979 m 264 1200 l 143 1200 l 143 1199 l 343 1025 l 345 1025 l 264 1200 m 454 1200 l 339 1200 l 339 1199 l 503 1025 l 504 1025 l 454 1200 z "},"Ê":{"ha":761,"x_min":31,"x_max":724,"o":"m 673 979 l 31 979 l 31 979 q 80 963 63 972 q 103 937 97 954 q 110 891 110 921 l 110 88 q 103 42 110 59 q 80 17 97 26 q 31 1 63 8 l 31 0 l 709 0 l 724 240 l 724 240 q 688 132 709 175 q 632 63 667 89 q 544 25 598 37 q 411 9 490 13 l 245 1 l 245 501 l 433 494 q 516 477 488 492 q 557 435 545 463 q 577 363 569 407 l 578 363 l 578 640 l 577 640 q 557 569 569 597 q 516 526 545 541 q 433 510 488 512 l 245 503 l 245 979 l 357 973 q 532 948 467 968 q 630 886 596 929 q 684 763 665 842 l 685 763 l 673 979 m 252 1026 l 426 1140 l 371 1140 l 545 1026 l 546 1026 l 418 1200 l 380 1200 l 252 1026 q 252 1026 252 1026 q 252 1026 252 1026 z "},"Ế":{"ha":761,"x_min":31,"x_max":724,"o":"m 673 979 l 31 979 l 31 979 q 80 963 63 972 q 103 937 97 954 q 110 891 110 921 l 110 88 q 103 42 110 59 q 80 17 97 26 q 31 1 63 8 l 31 0 l 709 0 l 724 240 l 724 240 q 688 132 709 175 q 632 63 667 89 q 544 25 598 37 q 411 9 490 13 l 245 1 l 245 501 l 433 494 q 516 477 488 492 q 557 435 545 463 q 577 363 569 407 l 578 363 l 578 640 l 577 640 q 557 569 569 597 q 516 526 545 541 q 433 510 488 512 l 245 503 l 245 979 l 357 973 q 532 948 467 968 q 630 886 596 929 q 684 763 665 842 l 685 763 l 673 979 m 240 1031 l 401 1093 l 385 1093 l 546 1031 l 546 1031 l 398 1158 l 387 1158 l 241 1031 l 240 1031 m 545 1225 l 545 1296 l 239 1177 l 239 1177 l 545 1225 z "},"Ề":{"ha":761,"x_min":31,"x_max":724,"o":"m 673 979 l 31 979 l 31 979 q 80 963 63 972 q 103 937 97 954 q 110 891 110 921 l 110 88 q 103 42 110 59 q 80 17 97 26 q 31 1 63 8 l 31 0 l 709 0 l 724 240 l 724 240 q 688 132 709 175 q 632 63 667 89 q 544 25 598 37 q 411 9 490 13 l 245 1 l 245 501 l 433 494 q 516 477 488 492 q 557 435 545 463 q 577 363 569 407 l 578 363 l 578 640 l 577 640 q 557 569 569 597 q 516 526 545 541 q 433 510 488 512 l 245 503 l 245 979 l 357 973 q 532 948 467 968 q 630 886 596 929 q 684 763 665 842 l 685 763 l 673 979 m 240 1031 l 401 1093 l 385 1093 l 546 1031 l 546 1031 l 398 1158 l 387 1158 l 241 1031 l 240 1031 m 240 1225 l 546 1177 l 546 1177 l 240 1296 l 240 1225 z "},"Ễ":{"ha":761,"x_min":31,"x_max":724,"o":"m 673 979 l 31 979 l 31 979 q 80 963 63 972 q 103 937 97 954 q 110 891 110 921 l 110 88 q 103 42 110 59 q 80 17 97 26 q 31 1 63 8 l 31 0 l 709 0 l 724 240 l 724 240 q 688 132 709 175 q 632 63 667 89 q 544 25 598 37 q 411 9 490 13 l 245 1 l 245 501 l 433 494 q 516 477 488 492 q 557 435 545 463 q 577 363 569 407 l 578 363 l 578 640 l 577 640 q 557 569 569 597 q 516 526 545 541 q 433 510 488 512 l 245 503 l 245 979 l 357 973 q 532 948 467 968 q 630 886 596 929 q 684 763 665 842 l 685 763 l 673 979 m 240 1031 l 401 1093 l 385 1093 l 546 1031 l 546 1031 l 398 1158 l 387 1158 l 241 1031 l 240 1031 m 463 1197 q 525 1221 503 1197 q 546 1290 546 1245 l 545 1290 q 530 1254 545 1264 q 490 1243 515 1243 q 460 1246 476 1243 q 425 1256 445 1250 l 405 1262 q 366 1272 386 1267 q 323 1276 345 1276 q 261 1252 283 1276 q 240 1183 240 1227 l 241 1183 q 257 1219 242 1208 q 296 1230 271 1230 q 326 1226 310 1230 q 361 1217 341 1223 l 381 1211 q 420 1201 400 1205 q 463 1197 440 1197 z "},"Ể":{"ha":761,"x_min":31,"x_max":724,"o":"m 673 979 l 31 979 l 31 979 q 80 963 63 972 q 103 937 97 954 q 110 891 110 921 l 110 88 q 103 42 110 59 q 80 17 97 26 q 31 1 63 8 l 31 0 l 709 0 l 724 240 l 724 240 q 688 132 709 175 q 632 63 667 89 q 544 25 598 37 q 411 9 490 13 l 245 1 l 245 501 l 433 494 q 516 477 488 492 q 557 435 545 463 q 577 363 569 407 l 578 363 l 578 640 l 577 640 q 557 569 569 597 q 516 526 545 541 q 433 510 488 512 l 245 503 l 245 979 l 357 973 q 532 948 467 968 q 630 886 596 929 q 684 763 665 842 l 685 763 l 673 979 m 240 1031 l 401 1093 l 385 1093 l 546 1031 l 546 1031 l 398 1158 l 387 1158 l 241 1031 l 240 1031 m 528 1265 q 468 1248 490 1265 q 435 1214 446 1231 l 435 1213 q 455 1223 442 1219 q 485 1227 468 1227 q 527 1216 511 1227 q 543 1186 543 1205 q 530 1155 543 1168 q 494 1134 517 1141 l 494 1133 q 582 1159 553 1143 q 610 1203 610 1175 q 586 1248 610 1231 q 528 1265 562 1265 z "},"Ệ":{"ha":761,"x_min":31,"x_max":724,"o":"m 673 979 l 31 979 l 31 979 q 80 963 63 972 q 103 937 97 954 q 110 891 110 921 l 110 88 q 103 42 110 59 q 80 17 97 26 q 31 1 63 8 l 31 0 l 709 0 l 724 240 l 724 240 q 688 132 709 175 q 632 63 667 89 q 544 25 598 37 q 411 9 490 13 l 245 1 l 245 501 l 433 494 q 516 477 488 492 q 557 435 545 463 q 577 363 569 407 l 578 363 l 578 640 l 577 640 q 557 569 569 597 q 516 526 545 541 q 433 510 488 512 l 245 503 l 245 979 l 357 973 q 532 948 467 968 q 630 886 596 929 q 684 763 665 842 l 685 763 l 673 979 m 252 1026 l 426 1140 l 371 1140 l 545 1026 l 546 1026 l 418 1200 l 380 1200 l 252 1026 q 252 1026 252 1026 q 252 1026 252 1026 m 380 -132 q 341 -148 357 -132 q 324 -187 324 -165 q 341 -226 324 -210 q 380 -243 357 -243 q 420 -226 404 -243 q 437 -187 437 -210 q 420 -148 437 -165 q 380 -132 404 -132 z "},"Ḙ":{"ha":761,"x_min":31,"x_max":724,"o":"m 673 979 l 31 979 l 31 979 q 80 963 63 972 q 103 937 97 954 q 110 891 110 921 l 110 88 q 103 42 110 59 q 80 17 97 26 q 31 1 63 8 l 31 0 l 709 0 l 724 240 l 724 240 q 688 132 709 175 q 632 63 667 89 q 544 25 598 37 q 411 9 490 13 l 245 1 l 245 501 l 433 494 q 516 477 488 492 q 557 435 545 463 q 577 363 569 407 l 578 363 l 578 640 l 577 640 q 557 569 569 597 q 516 526 545 541 q 433 510 488 512 l 245 503 l 245 979 l 357 973 q 532 948 467 968 q 630 886 596 929 q 684 763 665 842 l 685 763 l 673 979 z "},"Ě":{"ha":761,"x_min":31,"x_max":724,"o":"m 673 979 l 31 979 l 31 979 q 80 963 63 972 q 103 937 97 954 q 110 891 110 921 l 110 88 q 103 42 110 59 q 80 17 97 26 q 31 1 63 8 l 31 0 l 709 0 l 724 240 l 724 240 q 688 132 709 175 q 632 63 667 89 q 544 25 598 37 q 411 9 490 13 l 245 1 l 245 501 l 433 494 q 516 477 488 492 q 557 435 545 463 q 577 363 569 407 l 578 363 l 578 640 l 577 640 q 557 569 569 597 q 516 526 545 541 q 433 510 488 512 l 245 503 l 245 979 l 357 973 q 532 948 467 968 q 630 886 596 929 q 684 763 665 842 l 685 763 l 673 979 m 545 1223 l 370 1109 l 425 1109 l 252 1223 l 250 1223 l 378 1048 l 416 1048 l 545 1223 q 545 1223 545 1223 q 545 1223 545 1223 z "},"Ĕ":{"ha":761,"x_min":31,"x_max":724,"o":"m 673 979 l 31 979 l 31 979 q 80 963 63 972 q 103 937 97 954 q 110 891 110 921 l 110 88 q 103 42 110 59 q 80 17 97 26 q 31 1 63 8 l 31 0 l 709 0 l 724 240 l 724 240 q 688 132 709 175 q 632 63 667 89 q 544 25 598 37 q 411 9 490 13 l 245 1 l 245 501 l 433 494 q 516 477 488 492 q 557 435 545 463 q 577 363 569 407 l 578 363 l 578 640 l 577 640 q 557 569 569 597 q 516 526 545 541 q 433 510 488 512 l 245 503 l 245 979 l 357 973 q 532 948 467 968 q 630 886 596 929 q 684 763 665 842 l 685 763 l 673 979 m 393 1072 q 467 1093 436 1072 q 514 1148 498 1114 q 531 1220 531 1182 q 529 1250 531 1236 l 528 1250 q 528 1250 528 1250 q 528 1250 528 1250 q 510 1191 528 1216 q 460 1154 491 1166 q 392 1141 429 1141 q 324 1154 355 1141 q 274 1191 293 1166 q 256 1250 256 1216 q 256 1250 256 1250 q 256 1250 256 1250 l 255 1250 q 253 1220 253 1236 q 270 1148 253 1182 q 318 1093 287 1114 q 393 1072 349 1072 z "},"Ȇ":{"ha":761,"x_min":31,"x_max":724,"o":"m 673 979 l 31 979 l 31 979 q 80 963 63 972 q 103 937 97 954 q 110 891 110 921 l 110 88 q 103 42 110 59 q 80 17 97 26 q 31 1 63 8 l 31 0 l 709 0 l 724 240 l 724 240 q 688 132 709 175 q 632 63 667 89 q 544 25 598 37 q 411 9 490 13 l 245 1 l 245 501 l 433 494 q 516 477 488 492 q 557 435 545 463 q 577 363 569 407 l 578 363 l 578 640 l 577 640 q 557 569 569 597 q 516 526 545 541 q 433 510 488 512 l 245 503 l 245 979 l 357 973 q 532 948 467 968 q 630 886 596 929 q 684 763 665 842 l 685 763 l 673 979 m 391 1250 q 317 1229 348 1250 q 270 1174 286 1208 q 253 1101 253 1140 q 255 1072 253 1086 l 256 1072 q 256 1072 256 1072 q 256 1072 256 1072 q 274 1131 256 1106 q 324 1168 293 1155 q 392 1181 355 1181 q 460 1168 429 1181 q 510 1131 491 1155 q 528 1072 528 1106 q 528 1072 528 1072 q 528 1072 528 1072 l 529 1072 q 531 1101 531 1086 q 514 1174 531 1140 q 466 1229 497 1208 q 391 1250 435 1250 z "},"Ë":{"ha":761,"x_min":31,"x_max":724,"o":"m 673 979 l 31 979 l 31 979 q 80 963 63 972 q 103 937 97 954 q 110 891 110 921 l 110 88 q 103 42 110 59 q 80 17 97 26 q 31 1 63 8 l 31 0 l 709 0 l 724 240 l 724 240 q 688 132 709 175 q 632 63 667 89 q 544 25 598 37 q 411 9 490 13 l 245 1 l 245 501 l 433 494 q 516 477 488 492 q 557 435 545 463 q 577 363 569 407 l 578 363 l 578 640 l 577 640 q 557 569 569 597 q 516 526 545 541 q 433 510 488 512 l 245 503 l 245 979 l 357 973 q 532 948 467 968 q 630 886 596 929 q 684 763 665 842 l 685 763 l 673 979 m 300 1059 q 339 1075 323 1059 q 355 1114 355 1091 q 339 1152 355 1135 q 300 1168 323 1168 q 262 1152 278 1168 q 247 1114 247 1135 q 262 1075 247 1091 q 300 1059 278 1059 m 485 1059 q 523 1075 507 1059 q 538 1114 538 1091 q 523 1152 538 1135 q 485 1168 507 1168 q 446 1152 462 1168 q 431 1114 431 1135 q 446 1075 431 1091 q 485 1059 462 1059 z "},"Ẽ":{"ha":761,"x_min":31,"x_max":724,"o":"m 673 979 l 31 979 l 31 979 q 80 963 63 972 q 103 937 97 954 q 110 891 110 921 l 110 88 q 103 42 110 59 q 80 17 97 26 q 31 1 63 8 l 31 0 l 709 0 l 724 240 l 724 240 q 688 132 709 175 q 632 63 667 89 q 544 25 598 37 q 411 9 490 13 l 245 1 l 245 501 l 433 494 q 516 477 488 492 q 557 435 545 463 q 577 363 569 407 l 578 363 l 578 640 l 577 640 q 557 569 569 597 q 516 526 545 541 q 433 510 488 512 l 245 503 l 245 979 l 357 973 q 532 948 467 968 q 630 886 596 929 q 684 763 665 842 l 685 763 l 673 979 m 457 1046 q 522 1077 498 1046 q 542 1190 547 1107 l 541 1190 q 525 1125 538 1142 q 494 1109 513 1109 q 467 1114 479 1109 q 435 1133 454 1120 l 415 1145 q 369 1172 389 1163 q 328 1180 349 1180 q 262 1150 287 1180 q 243 1037 238 1120 l 243 1037 q 259 1101 247 1085 q 291 1118 272 1118 q 318 1113 306 1118 q 350 1094 330 1107 l 370 1081 q 416 1055 395 1064 q 457 1046 436 1046 z "},"Ḛ":{"ha":761,"x_min":31,"x_max":724,"o":"m 673 979 l 31 979 l 31 979 q 80 963 63 972 q 103 937 97 954 q 110 891 110 921 l 110 88 q 103 42 110 59 q 80 17 97 26 q 31 1 63 8 l 31 0 l 709 0 l 724 240 l 724 240 q 688 132 709 175 q 632 63 667 89 q 544 25 598 37 q 411 9 490 13 l 245 1 l 245 501 l 433 494 q 516 477 488 492 q 557 435 545 463 q 577 363 569 407 l 578 363 l 578 640 l 577 640 q 557 569 569 597 q 516 526 545 541 q 433 510 488 512 l 245 503 l 245 979 l 357 973 q 532 948 467 968 q 630 886 596 929 q 684 763 665 842 l 685 763 l 673 979 z "},"Ē":{"ha":761,"x_min":31,"x_max":724,"o":"m 673 979 l 31 979 l 31 979 q 80 963 63 972 q 103 937 97 954 q 110 891 110 921 l 110 88 q 103 42 110 59 q 80 17 97 26 q 31 1 63 8 l 31 0 l 709 0 l 724 240 l 724 240 q 688 132 709 175 q 632 63 667 89 q 544 25 598 37 q 411 9 490 13 l 245 1 l 245 501 l 433 494 q 516 477 488 492 q 557 435 545 463 q 577 363 569 407 l 578 363 l 578 640 l 577 640 q 557 569 569 597 q 516 526 545 541 q 433 510 488 512 l 245 503 l 245 979 l 357 973 q 532 948 467 968 q 630 886 596 929 q 684 763 665 842 l 685 763 l 673 979 m 253 1073 l 533 1073 l 533 1131 l 253 1131 l 253 1073 z "},"Ḗ":{"ha":761,"x_min":31,"x_max":724,"o":"m 673 979 l 31 979 l 31 979 q 80 963 63 972 q 103 937 97 954 q 110 891 110 921 l 110 88 q 103 42 110 59 q 80 17 97 26 q 31 1 63 8 l 31 0 l 709 0 l 724 240 l 724 240 q 688 132 709 175 q 632 63 667 89 q 544 25 598 37 q 411 9 490 13 l 245 1 l 245 501 l 433 494 q 516 477 488 492 q 557 435 545 463 q 577 363 569 407 l 578 363 l 578 640 l 577 640 q 557 569 569 597 q 516 526 545 541 q 433 510 488 512 l 245 503 l 245 979 l 357 973 q 532 948 467 968 q 630 886 596 929 q 684 763 665 842 l 685 763 l 673 979 m 240 1092 l 546 1092 l 546 1141 l 240 1141 l 240 1092 m 545 1241 l 545 1312 l 239 1193 l 239 1192 l 545 1241 z "},"Ḕ":{"ha":761,"x_min":31,"x_max":724,"o":"m 673 979 l 31 979 l 31 979 q 80 963 63 972 q 103 937 97 954 q 110 891 110 921 l 110 88 q 103 42 110 59 q 80 17 97 26 q 31 1 63 8 l 31 0 l 709 0 l 724 240 l 724 240 q 688 132 709 175 q 632 63 667 89 q 544 25 598 37 q 411 9 490 13 l 245 1 l 245 501 l 433 494 q 516 477 488 492 q 557 435 545 463 q 577 363 569 407 l 578 363 l 578 640 l 577 640 q 557 569 569 597 q 516 526 545 541 q 433 510 488 512 l 245 503 l 245 979 l 357 973 q 532 948 467 968 q 630 886 596 929 q 684 763 665 842 l 685 763 l 673 979 m 240 1092 l 546 1092 l 546 1141 l 240 1141 l 240 1092 m 240 1241 l 546 1192 l 546 1193 l 240 1312 l 240 1241 z "},"Ẻ":{"ha":761,"x_min":31,"x_max":724,"o":"m 673 979 l 31 979 l 31 979 q 80 963 63 972 q 103 937 97 954 q 110 891 110 921 l 110 88 q 103 42 110 59 q 80 17 97 26 q 31 1 63 8 l 31 0 l 709 0 l 724 240 l 724 240 q 688 132 709 175 q 632 63 667 89 q 544 25 598 37 q 411 9 490 13 l 245 1 l 245 501 l 433 494 q 516 477 488 492 q 557 435 545 463 q 577 363 569 407 l 578 363 l 578 640 l 577 640 q 557 569 569 597 q 516 526 545 541 q 433 510 488 512 l 245 503 l 245 979 l 357 973 q 532 948 467 968 q 630 886 596 929 q 684 763 665 842 l 685 763 l 673 979 m 405 1227 q 338 1206 366 1227 q 296 1152 310 1185 l 297 1151 q 325 1173 309 1164 q 362 1181 342 1181 q 410 1166 393 1181 q 428 1129 428 1152 q 411 1078 428 1102 q 362 1035 393 1055 l 363 1035 q 463 1095 435 1065 q 491 1158 491 1125 q 466 1207 491 1188 q 405 1227 441 1227 z "},"Ė":{"ha":761,"x_min":31,"x_max":724,"o":"m 673 979 l 31 979 l 31 979 q 80 963 63 972 q 103 937 97 954 q 110 891 110 921 l 110 88 q 103 42 110 59 q 80 17 97 26 q 31 1 63 8 l 31 0 l 709 0 l 724 240 l 724 240 q 688 132 709 175 q 632 63 667 89 q 544 25 598 37 q 411 9 490 13 l 245 1 l 245 501 l 433 494 q 516 477 488 492 q 557 435 545 463 q 577 363 569 407 l 578 363 l 578 640 l 577 640 q 557 569 569 597 q 516 526 545 541 q 433 510 488 512 l 245 503 l 245 979 l 357 973 q 532 948 467 968 q 630 886 596 929 q 684 763 665 842 l 685 763 l 673 979 m 393 1057 q 433 1074 416 1057 q 449 1113 449 1090 q 433 1152 449 1135 q 393 1168 416 1168 q 353 1152 370 1168 q 336 1113 336 1135 q 353 1074 336 1090 q 393 1057 370 1057 z "},"Ẹ":{"ha":761,"x_min":31,"x_max":724,"o":"m 673 979 l 31 979 l 31 979 q 80 963 63 972 q 103 937 97 954 q 110 891 110 921 l 110 88 q 103 42 110 59 q 80 17 97 26 q 31 1 63 8 l 31 0 l 709 0 l 724 240 l 724 240 q 688 132 709 175 q 632 63 667 89 q 544 25 598 37 q 411 9 490 13 l 245 1 l 245 501 l 433 494 q 516 477 488 492 q 557 435 545 463 q 577 363 569 407 l 578 363 l 578 640 l 577 640 q 557 569 569 597 q 516 526 545 541 q 433 510 488 512 l 245 503 l 245 979 l 357 973 q 532 948 467 968 q 630 886 596 929 q 684 763 665 842 l 685 763 l 673 979 m 380 -132 q 341 -148 357 -132 q 324 -187 324 -165 q 341 -226 324 -210 q 380 -243 357 -243 q 420 -226 404 -243 q 437 -187 437 -210 q 420 -148 437 -165 q 380 -132 404 -132 z "},"Ȩ":{"ha":761,"x_min":31,"x_max":724,"o":"m 673 979 l 31 979 l 31 979 q 80 963 63 972 q 103 937 97 954 q 110 891 110 921 l 110 88 q 103 42 110 59 q 80 17 97 26 q 31 1 63 8 l 31 0 l 709 0 l 724 240 l 724 240 q 688 132 709 175 q 632 63 667 89 q 544 25 598 37 q 411 9 490 13 l 245 1 l 245 501 l 433 494 q 516 477 488 492 q 557 435 545 463 q 577 363 569 407 l 578 363 l 578 640 l 577 640 q 557 569 569 597 q 516 526 545 541 q 433 510 488 512 l 245 503 l 245 979 l 357 973 q 532 948 467 968 q 630 886 596 929 q 684 763 665 842 l 685 763 l 673 979 m 372 -280 q 423 -269 399 -280 q 464 -235 448 -257 q 479 -182 479 -214 q 450 -114 479 -140 q 378 -87 420 -87 q 332 -95 353 -86 q 302 -115 311 -103 l 302 -117 l 381 -9 l 381 -8 l 379 -8 l 284 -138 l 284 -138 q 322 -130 295 -130 q 363 -145 347 -130 q 380 -184 380 -159 q 362 -225 380 -210 q 317 -241 344 -241 q 280 -233 297 -241 q 253 -214 263 -226 l 252 -214 q 300 -262 266 -245 q 372 -280 334 -280 z "},"Ḝ":{"ha":761,"x_min":31,"x_max":724,"o":"m 673 979 l 31 979 l 31 979 q 80 963 63 972 q 103 937 97 954 q 110 891 110 921 l 110 88 q 103 42 110 59 q 80 17 97 26 q 31 1 63 8 l 31 0 l 709 0 l 724 240 l 724 240 q 688 132 709 175 q 632 63 667 89 q 544 25 598 37 q 411 9 490 13 l 245 1 l 245 501 l 433 494 q 516 477 488 492 q 557 435 545 463 q 577 363 569 407 l 578 363 l 578 640 l 577 640 q 557 569 569 597 q 516 526 545 541 q 433 510 488 512 l 245 503 l 245 979 l 357 973 q 532 948 467 968 q 630 886 596 929 q 684 763 665 842 l 685 763 l 673 979 m 372 -280 q 423 -269 399 -280 q 464 -235 448 -257 q 479 -182 479 -214 q 450 -114 479 -140 q 378 -87 420 -87 q 332 -95 353 -86 q 302 -115 311 -103 l 302 -117 l 381 -9 l 381 -8 l 379 -8 l 284 -138 l 284 -138 q 322 -130 295 -130 q 363 -145 347 -130 q 380 -184 380 -159 q 362 -225 380 -210 q 317 -241 344 -241 q 280 -233 297 -241 q 253 -214 263 -226 l 252 -214 q 300 -262 266 -245 q 372 -280 334 -280 m 393 1072 q 467 1093 436 1072 q 514 1148 498 1114 q 531 1220 531 1182 q 529 1250 531 1236 l 528 1250 q 528 1250 528 1250 q 528 1250 528 1250 q 510 1191 528 1216 q 460 1154 491 1166 q 392 1141 429 1141 q 324 1154 355 1141 q 274 1191 293 1166 q 256 1250 256 1216 q 256 1250 256 1250 q 256 1250 256 1250 l 255 1250 q 253 1220 253 1236 q 270 1148 253 1182 q 318 1093 287 1114 q 393 1072 349 1072 z "},"Ę":{"ha":761,"x_min":31,"x_max":724,"o":"m 673 979 l 31 979 l 31 979 q 80 963 63 972 q 103 937 97 954 q 110 891 110 921 l 110 88 q 103 42 110 59 q 80 17 97 26 q 31 1 63 8 l 31 0 l 709 0 l 724 240 l 724 240 q 688 132 709 175 q 632 63 667 89 q 544 25 598 37 q 411 9 490 13 l 245 1 l 245 501 l 433 494 q 517 477 489 492 q 557 435 545 463 q 577 363 569 408 l 578 363 l 578 640 l 577 640 q 557 569 569 597 q 517 527 545 541 q 433 510 489 513 l 245 503 l 245 979 l 357 973 q 532 948 467 968 q 630 886 596 929 q 684 763 665 842 l 685 763 l 673 979 m 616 -317 q 684 -296 654 -317 q 724 -239 713 -275 l 724 -239 q 703 -259 716 -251 q 673 -268 690 -268 q 616 -227 640 -268 q 591 -131 591 -186 q 599 -55 591 -89 q 621 1 606 -22 l 620 1 q 536 -97 566 -45 q 506 -205 506 -148 q 537 -286 506 -254 q 616 -317 568 -317 z "},"F":{"ha":677,"x_min":31,"x_max":655,"o":"m 643 979 l 31 979 l 31 979 q 80 963 63 972 q 103 937 97 954 q 110 891 110 921 l 110 88 q 103 42 110 59 q 80 17 97 26 q 31 1 63 8 l 31 0 l 330 0 l 330 1 q 275 17 294 7 q 251 47 257 28 q 245 99 245 66 l 245 496 l 397 489 q 480 472 452 486 q 519 430 507 458 q 539 358 531 402 l 540 358 l 540 635 l 539 635 q 519 563 531 591 q 480 520 507 534 q 397 504 452 507 l 245 497 l 245 979 l 348 973 q 512 948 452 968 q 604 886 572 929 q 654 763 636 842 l 655 763 l 643 979 z "},"Ḟ":{"ha":677,"x_min":31,"x_max":655,"o":"m 643 979 l 31 979 l 31 979 q 80 963 63 972 q 103 937 97 954 q 110 891 110 921 l 110 88 q 103 42 110 59 q 80 17 97 26 q 31 1 63 8 l 31 0 l 330 0 l 330 1 q 275 17 294 7 q 251 47 257 28 q 245 99 245 66 l 245 496 l 397 489 q 480 472 452 486 q 519 430 507 458 q 539 358 531 402 l 540 358 l 540 635 l 539 635 q 519 563 531 591 q 480 520 507 534 q 397 504 452 507 l 245 497 l 245 979 l 348 973 q 512 948 452 968 q 604 886 572 929 q 654 763 636 842 l 655 763 l 643 979 m 360 1057 q 400 1074 384 1057 q 416 1113 416 1090 q 400 1152 416 1135 q 360 1168 384 1168 q 320 1152 337 1168 q 304 1113 304 1135 q 320 1074 304 1090 q 360 1057 337 1057 z "},"G":{"ha":987,"x_min":60,"x_max":973,"o":"m 60 503 q 95 294 60 388 q 196 132 130 199 q 354 27 262 64 q 559 -9 446 -9 q 748 21 655 -9 q 899 101 841 51 l 899 350 q 905 402 899 384 q 927 429 911 420 q 973 440 943 437 l 973 441 l 699 441 l 699 440 q 746 429 730 437 q 768 402 762 420 q 774 350 774 384 l 774 59 q 687 12 744 31 q 559 -7 630 -7 q 401 37 467 -7 q 294 157 336 82 q 232 325 252 232 q 212 515 212 418 q 253 766 212 661 q 369 929 294 872 q 546 987 444 987 q 666 966 612 987 q 759 907 719 945 q 826 816 799 869 q 865 700 852 764 l 866 700 l 855 925 q 751 969 823 949 q 546 989 680 989 q 359 958 448 989 q 204 866 271 927 q 98 714 137 804 q 60 503 60 623 z "},"Ǵ":{"ha":987,"x_min":60,"x_max":973,"o":"m 60 503 q 95 294 60 388 q 196 132 130 199 q 354 27 262 64 q 559 -9 446 -9 q 748 21 655 -9 q 899 101 841 51 l 899 350 q 905 402 899 384 q 927 429 911 420 q 973 440 943 437 l 973 441 l 699 441 l 699 440 q 746 429 730 437 q 768 402 762 420 q 774 350 774 384 l 774 59 q 687 12 744 31 q 559 -7 630 -7 q 401 37 467 -7 q 294 157 336 82 q 232 325 252 232 q 212 515 212 418 q 253 766 212 661 q 369 929 294 872 q 546 987 444 987 q 666 966 612 987 q 759 907 719 945 q 826 816 799 869 q 865 700 852 764 l 866 700 l 855 925 q 751 969 823 949 q 546 989 680 989 q 359 958 448 989 q 204 866 271 927 q 98 714 137 804 q 60 503 60 623 m 536 1025 l 734 1198 l 734 1200 l 608 1200 l 534 1025 l 536 1025 z "},"Ĝ":{"ha":987,"x_min":60,"x_max":973,"o":"m 60 503 q 95 294 60 388 q 196 132 130 199 q 354 27 262 64 q 559 -9 446 -9 q 748 21 655 -9 q 899 101 841 51 l 899 350 q 905 402 899 384 q 927 429 911 420 q 973 440 943 437 l 973 441 l 699 441 l 699 440 q 746 429 730 437 q 768 402 762 420 q 774 350 774 384 l 774 59 q 687 12 744 31 q 559 -7 630 -7 q 401 37 467 -7 q 294 157 336 82 q 232 325 252 232 q 212 515 212 418 q 253 766 212 661 q 369 929 294 872 q 546 987 444 987 q 666 966 612 987 q 759 907 719 945 q 826 816 799 869 q 865 700 852 764 l 866 700 l 855 925 q 751 969 823 949 q 546 989 680 989 q 359 958 448 989 q 204 866 271 927 q 98 714 137 804 q 60 503 60 623 m 415 1026 l 589 1140 l 534 1140 l 708 1026 l 709 1026 l 581 1200 l 543 1200 l 415 1026 q 415 1026 415 1026 q 415 1026 415 1026 z "},"Ǧ":{"ha":987,"x_min":60,"x_max":973,"o":"m 60 503 q 95 294 60 388 q 196 132 130 199 q 354 27 262 64 q 559 -9 446 -9 q 748 21 655 -9 q 899 101 841 51 l 899 350 q 905 402 899 384 q 927 429 911 420 q 973 440 943 437 l 973 441 l 699 441 l 699 440 q 746 429 730 437 q 768 402 762 420 q 774 350 774 384 l 774 59 q 687 12 744 31 q 559 -7 630 -7 q 401 37 467 -7 q 294 157 336 82 q 232 325 252 232 q 212 515 212 418 q 253 766 212 661 q 369 929 294 872 q 546 987 444 987 q 666 966 612 987 q 759 907 719 945 q 826 816 799 869 q 865 700 852 764 l 866 700 l 855 925 q 751 969 823 949 q 546 989 680 989 q 359 958 448 989 q 204 866 271 927 q 98 714 137 804 q 60 503 60 623 m 708 1223 l 534 1109 l 589 1109 l 415 1223 l 414 1223 l 542 1048 l 580 1048 l 708 1223 q 708 1223 708 1223 q 708 1223 708 1223 z "},"Ğ":{"ha":987,"x_min":60,"x_max":973,"o":"m 60 503 q 95 294 60 388 q 196 132 130 199 q 354 27 262 64 q 559 -9 446 -9 q 748 21 655 -9 q 899 101 841 51 l 899 350 q 905 402 899 384 q 927 429 911 420 q 973 440 943 437 l 973 441 l 699 441 l 699 440 q 746 429 730 437 q 768 402 762 420 q 774 350 774 384 l 774 59 q 687 12 744 31 q 559 -7 630 -7 q 401 37 467 -7 q 294 157 336 82 q 232 325 252 232 q 212 515 212 418 q 253 766 212 661 q 369 929 294 872 q 546 987 444 987 q 666 966 612 987 q 759 907 719 945 q 826 816 799 869 q 865 700 852 764 l 866 700 l 855 925 q 751 969 823 949 q 546 989 680 989 q 359 958 448 989 q 204 866 271 927 q 98 714 137 804 q 60 503 60 623 m 556 1072 q 630 1093 600 1072 q 678 1148 661 1114 q 694 1220 694 1182 q 692 1250 694 1236 l 692 1250 q 692 1250 692 1250 q 692 1250 692 1250 q 673 1191 692 1216 q 624 1154 654 1166 q 555 1141 593 1141 q 487 1154 518 1141 q 438 1191 456 1166 q 419 1250 419 1216 q 419 1250 419 1250 q 419 1250 419 1250 l 418 1250 q 416 1220 416 1236 q 433 1148 416 1182 q 481 1093 450 1114 q 556 1072 513 1072 z "},"Ḡ":{"ha":987,"x_min":60,"x_max":973,"o":"m 60 503 q 95 294 60 388 q 196 132 130 199 q 354 27 262 64 q 559 -9 446 -9 q 748 21 655 -9 q 899 101 841 51 l 899 350 q 905 402 899 384 q 927 429 911 420 q 973 440 943 437 l 973 441 l 699 441 l 699 440 q 746 429 730 437 q 768 402 762 420 q 774 350 774 384 l 774 59 q 687 12 744 31 q 559 -7 630 -7 q 401 37 467 -7 q 294 157 336 82 q 232 325 252 232 q 212 515 212 418 q 253 766 212 661 q 369 929 294 872 q 546 987 444 987 q 666 966 612 987 q 759 907 719 945 q 826 816 799 869 q 865 700 852 764 l 866 700 l 855 925 q 751 969 823 949 q 546 989 680 989 q 359 958 448 989 q 204 866 271 927 q 98 714 137 804 q 60 503 60 623 m 416 1073 l 696 1073 l 696 1131 l 416 1131 l 416 1073 z "},"Ġ":{"ha":987,"x_min":60,"x_max":973,"o":"m 60 503 q 95 294 60 388 q 196 132 130 199 q 354 27 262 64 q 559 -9 446 -9 q 748 21 655 -9 q 899 101 841 51 l 899 350 q 905 402 899 384 q 927 429 911 420 q 973 440 943 437 l 973 441 l 699 441 l 699 440 q 746 429 730 437 q 768 402 762 420 q 774 350 774 384 l 774 59 q 687 12 744 31 q 559 -7 630 -7 q 401 37 467 -7 q 294 157 336 82 q 232 325 252 232 q 212 515 212 418 q 253 766 212 661 q 369 929 294 872 q 546 987 444 987 q 666 966 612 987 q 759 907 719 945 q 826 816 799 869 q 865 700 852 764 l 866 700 l 855 925 q 751 969 823 949 q 546 989 680 989 q 359 958 448 989 q 204 866 271 927 q 98 714 137 804 q 60 503 60 623 m 556 1057 q 596 1074 580 1057 q 612 1113 612 1090 q 596 1152 612 1135 q 556 1168 580 1168 q 516 1152 533 1168 q 500 1113 500 1135 q 516 1074 500 1090 q 556 1057 533 1057 z "},"Ģ":{"ha":987,"x_min":60,"x_max":973,"o":"m 60 503 q 95 294 60 388 q 196 132 130 199 q 354 27 262 64 q 559 -9 446 -9 q 748 21 655 -9 q 899 101 841 51 l 899 350 q 905 402 899 384 q 927 429 911 420 q 973 440 943 437 l 973 441 l 699 441 l 699 440 q 746 429 730 437 q 768 402 762 420 q 774 350 774 384 l 774 59 q 687 12 744 31 q 559 -7 630 -7 q 401 37 467 -7 q 294 157 336 82 q 232 325 252 232 q 212 515 212 418 q 253 766 212 661 q 369 929 294 872 q 546 987 444 987 q 666 966 612 987 q 759 907 719 945 q 826 816 799 869 q 865 700 852 764 l 866 700 l 855 925 q 751 969 823 949 q 546 989 680 989 q 359 958 448 989 q 204 866 271 927 q 98 714 137 804 q 60 503 60 623 m 556 -283 q 644 -256 608 -283 q 679 -186 679 -229 q 647 -116 679 -142 q 568 -91 616 -91 q 506 -110 529 -91 q 468 -149 483 -129 l 468 -150 q 489 -143 475 -146 q 515 -140 502 -140 q 566 -154 546 -140 q 585 -193 585 -168 q 566 -231 585 -216 q 516 -245 547 -245 q 468 -234 491 -245 q 431 -208 445 -223 l 430 -209 q 477 -261 442 -239 q 556 -283 513 -283 z "},"H":{"ha":981,"x_min":31,"x_max":949,"o":"m 245 83 l 245 897 q 252 940 245 924 q 275 963 258 955 q 321 979 291 972 l 321 979 l 31 979 l 31 979 q 80 963 63 972 q 103 937 97 954 q 110 891 110 921 l 110 88 q 103 42 110 59 q 80 17 97 26 q 31 1 63 8 l 31 0 l 321 0 l 321 1 q 275 16 291 7 q 252 40 258 24 q 245 83 245 55 m 871 88 l 871 891 q 877 937 871 921 q 901 963 884 954 q 949 979 918 972 l 949 979 l 659 979 l 659 979 q 706 963 690 972 q 729 940 723 955 q 735 897 735 924 l 735 83 q 729 40 735 55 q 706 16 723 24 q 659 1 690 7 l 659 0 l 949 0 l 949 1 q 901 17 918 8 q 877 42 884 26 q 871 88 871 59 m 178 500 l 803 500 l 803 504 l 178 504 l 178 500 z "},"Ĥ":{"ha":981,"x_min":31,"x_max":949,"o":"m 245 83 l 245 897 q 252 940 245 924 q 275 963 258 955 q 321 979 291 972 l 321 979 l 31 979 l 31 979 q 80 963 63 972 q 103 937 97 954 q 110 891 110 921 l 110 88 q 103 42 110 59 q 80 17 97 26 q 31 1 63 8 l 31 0 l 321 0 l 321 1 q 275 16 291 7 q 252 40 258 24 q 245 83 245 55 m 871 88 l 871 891 q 877 937 871 921 q 901 963 884 954 q 949 979 918 972 l 949 979 l 659 979 l 659 979 q 706 963 690 972 q 729 940 723 955 q 735 897 735 924 l 735 83 q 729 40 735 55 q 706 16 723 24 q 659 1 690 7 l 659 0 l 949 0 l 949 1 q 901 17 918 8 q 877 42 884 26 q 871 88 871 59 m 178 500 l 803 500 l 803 504 l 178 504 l 178 500 m 349 1026 l 524 1140 l 469 1140 l 642 1026 l 644 1026 l 515 1200 l 477 1200 l 349 1026 q 349 1026 349 1026 q 349 1026 349 1026 z "},"Ȟ":{"ha":981,"x_min":31,"x_max":949,"o":"m 245 83 l 245 897 q 252 940 245 924 q 275 963 258 955 q 321 979 291 972 l 321 979 l 31 979 l 31 979 q 80 963 63 972 q 103 937 97 954 q 110 891 110 921 l 110 88 q 103 42 110 59 q 80 17 97 26 q 31 1 63 8 l 31 0 l 321 0 l 321 1 q 275 16 291 7 q 252 40 258 24 q 245 83 245 55 m 871 88 l 871 891 q 877 937 871 921 q 901 963 884 954 q 949 979 918 972 l 949 979 l 659 979 l 659 979 q 706 963 690 972 q 729 940 723 955 q 735 897 735 924 l 735 83 q 729 40 735 55 q 706 16 723 24 q 659 1 690 7 l 659 0 l 949 0 l 949 1 q 901 17 918 8 q 877 42 884 26 q 871 88 871 59 m 178 500 l 803 500 l 803 504 l 178 504 l 178 500 m 642 1223 l 468 1109 l 523 1109 l 349 1223 l 348 1223 l 476 1048 l 514 1048 l 642 1223 q 642 1223 642 1223 q 642 1223 642 1223 z "},"Ḫ":{"ha":981,"x_min":31,"x_max":949,"o":"m 245 83 l 245 897 q 252 940 245 924 q 275 963 258 955 q 321 979 291 972 l 321 979 l 31 979 l 31 979 q 80 963 63 972 q 103 937 97 954 q 110 891 110 921 l 110 88 q 103 42 110 59 q 80 17 97 26 q 31 1 63 8 l 31 0 l 321 0 l 321 1 q 275 16 291 7 q 252 40 258 24 q 245 83 245 55 m 871 88 l 871 891 q 877 937 871 921 q 901 963 884 954 q 949 979 918 972 l 949 979 l 659 979 l 659 979 q 706 963 690 972 q 729 940 723 955 q 735 897 735 924 l 735 83 q 729 40 735 55 q 706 16 723 24 q 659 1 690 7 l 659 0 l 949 0 l 949 1 q 901 17 918 8 q 877 42 884 26 q 871 88 871 59 m 178 500 l 803 500 l 803 504 l 178 504 l 178 500 z "},"Ḧ":{"ha":981,"x_min":31,"x_max":949,"o":"m 245 83 l 245 897 q 252 940 245 924 q 275 963 258 955 q 321 979 291 972 l 321 979 l 31 979 l 31 979 q 80 963 63 972 q 103 937 97 954 q 110 891 110 921 l 110 88 q 103 42 110 59 q 80 17 97 26 q 31 1 63 8 l 31 0 l 321 0 l 321 1 q 275 16 291 7 q 252 40 258 24 q 245 83 245 55 m 871 88 l 871 891 q 877 937 871 921 q 901 963 884 954 q 949 979 918 972 l 949 979 l 659 979 l 659 979 q 706 963 690 972 q 729 940 723 955 q 735 897 735 924 l 735 83 q 729 40 735 55 q 706 16 723 24 q 659 1 690 7 l 659 0 l 949 0 l 949 1 q 901 17 918 8 q 877 42 884 26 q 871 88 871 59 m 178 500 l 803 500 l 803 504 l 178 504 l 178 500 m 398 1059 q 437 1075 421 1059 q 452 1114 452 1091 q 437 1152 452 1135 q 398 1168 421 1168 q 360 1152 376 1168 q 345 1114 345 1135 q 360 1075 345 1091 q 398 1059 376 1059 m 583 1059 q 621 1075 605 1059 q 636 1114 636 1091 q 621 1152 636 1135 q 583 1168 605 1168 q 544 1152 559 1168 q 528 1114 528 1135 q 544 1075 528 1091 q 583 1059 559 1059 z "},"Ḣ":{"ha":981,"x_min":31,"x_max":949,"o":"m 245 83 l 245 897 q 252 940 245 924 q 275 963 258 955 q 321 979 291 972 l 321 979 l 31 979 l 31 979 q 80 963 63 972 q 103 937 97 954 q 110 891 110 921 l 110 88 q 103 42 110 59 q 80 17 97 26 q 31 1 63 8 l 31 0 l 321 0 l 321 1 q 275 16 291 7 q 252 40 258 24 q 245 83 245 55 m 871 88 l 871 891 q 877 937 871 921 q 901 963 884 954 q 949 979 918 972 l 949 979 l 659 979 l 659 979 q 706 963 690 972 q 729 940 723 955 q 735 897 735 924 l 735 83 q 729 40 735 55 q 706 16 723 24 q 659 1 690 7 l 659 0 l 949 0 l 949 1 q 901 17 918 8 q 877 42 884 26 q 871 88 871 59 m 178 500 l 803 500 l 803 504 l 178 504 l 178 500 m 490 1057 q 530 1074 514 1057 q 547 1113 547 1090 q 530 1152 547 1135 q 490 1168 514 1168 q 451 1152 467 1168 q 434 1113 434 1135 q 451 1074 434 1090 q 490 1057 467 1057 z "},"Ḥ":{"ha":981,"x_min":31,"x_max":949,"o":"m 245 83 l 245 897 q 252 940 245 924 q 275 963 258 955 q 321 979 291 972 l 321 979 l 31 979 l 31 979 q 80 963 63 972 q 103 937 97 954 q 110 891 110 921 l 110 88 q 103 42 110 59 q 80 17 97 26 q 31 1 63 8 l 31 0 l 321 0 l 321 1 q 275 16 291 7 q 252 40 258 24 q 245 83 245 55 m 871 88 l 871 891 q 877 937 871 921 q 901 963 884 954 q 949 979 918 972 l 949 979 l 659 979 l 659 979 q 706 963 690 972 q 729 940 723 955 q 735 897 735 924 l 735 83 q 729 40 735 55 q 706 16 723 24 q 659 1 690 7 l 659 0 l 949 0 l 949 1 q 901 17 918 8 q 877 42 884 26 q 871 88 871 59 m 178 500 l 803 500 l 803 504 l 178 504 l 178 500 m 490 -132 q 451 -148 467 -132 q 434 -187 434 -165 q 451 -226 434 -210 q 490 -243 467 -243 q 530 -226 514 -243 q 547 -187 547 -210 q 530 -148 547 -165 q 490 -132 514 -132 z "},"Ḩ":{"ha":981,"x_min":31,"x_max":949,"o":"m 169 -280 q 220 -269 196 -280 q 261 -235 245 -257 q 277 -182 277 -214 q 263 -133 277 -155 q 227 -100 250 -112 q 176 -87 203 -87 q 129 -95 150 -86 q 100 -115 109 -103 l 100 -117 l 178 0 l 178 1 l 176 1 l 81 -138 l 81 -138 q 119 -130 92 -130 q 161 -145 144 -130 q 178 -184 178 -159 q 159 -225 178 -210 q 114 -241 141 -241 q 77 -233 94 -241 q 50 -214 60 -225 l 50 -214 q 97 -262 63 -245 q 169 -280 131 -280 m 245 83 l 245 897 q 252 940 245 924 q 275 963 258 955 q 321 979 291 972 l 321 979 l 31 979 l 31 979 q 80 963 63 972 q 103 937 97 954 q 110 891 110 921 l 110 88 q 103 42 110 59 q 80 17 97 26 q 31 1 63 8 l 31 0 l 321 0 l 321 1 q 275 16 291 7 q 252 40 258 24 q 245 83 245 55 m 871 88 l 871 891 q 877 937 871 921 q 901 963 884 954 q 949 979 918 972 l 949 979 l 659 979 l 659 979 q 706 963 690 972 q 729 940 723 955 q 735 897 735 924 l 735 83 q 729 40 735 55 q 706 16 723 24 q 659 1 690 7 l 659 0 l 949 0 l 949 1 q 901 17 918 8 q 877 42 884 26 q 871 88 871 59 m 178 500 l 803 500 l 803 504 l 178 504 l 178 500 z "},"Ħ":{"ha":981,"x_min":31,"x_max":949,"o":"m 245 83 l 245 897 q 252 940 245 924 q 275 963 258 955 q 321 979 291 972 l 321 979 l 31 979 l 31 979 q 80 963 63 972 q 103 937 97 954 q 110 891 110 921 l 110 88 q 103 42 110 59 q 80 17 97 26 q 31 1 63 8 l 31 0 l 321 0 l 321 1 q 275 16 291 7 q 252 40 258 24 q 245 83 245 55 m 871 88 l 871 891 q 877 937 871 921 q 901 963 884 954 q 949 979 918 972 l 949 979 l 659 979 l 659 979 q 706 963 690 972 q 729 940 723 955 q 735 897 735 924 l 735 83 q 729 40 735 55 q 706 16 723 24 q 659 1 690 7 l 659 0 l 949 0 l 949 1 q 901 17 918 8 q 877 42 884 26 q 871 88 871 59 m 178 500 l 803 500 l 803 504 l 178 504 l 178 500 m 31 735 l 949 735 l 949 741 l 31 741 l 31 735 z "},"I":{"ha":366,"x_min":37,"x_max":330,"o":"m 251 88 l 251 891 q 257 937 251 921 q 281 963 264 954 q 330 979 298 972 l 330 979 l 37 979 l 37 979 q 85 963 68 972 q 109 937 102 954 q 115 891 115 921 l 115 88 q 109 42 115 59 q 85 17 102 26 q 37 1 68 8 l 37 0 l 330 0 l 330 1 q 281 17 298 8 q 257 42 264 26 q 251 88 251 59 z "},"Í":{"ha":366,"x_min":37,"x_max":361,"o":"m 251 88 l 251 891 q 257 937 251 921 q 281 963 264 954 q 330 979 298 972 l 330 979 l 37 979 l 37 979 q 85 963 68 972 q 109 937 102 954 q 115 891 115 921 l 115 88 q 109 42 115 59 q 85 17 102 26 q 37 1 68 8 l 37 0 l 330 0 l 330 1 q 281 17 298 8 q 257 42 264 26 q 251 88 251 59 m 163 1025 l 361 1198 l 361 1200 l 235 1200 l 161 1025 l 163 1025 z "},"Ì":{"ha":366,"x_min":14,"x_max":330,"o":"m 251 88 l 251 891 q 257 937 251 921 q 281 963 264 954 q 330 979 298 972 l 330 979 l 37 979 l 37 979 q 85 963 68 972 q 109 937 102 954 q 115 891 115 921 l 115 88 q 109 42 115 59 q 85 17 102 26 q 37 1 68 8 l 37 0 l 330 0 l 330 1 q 281 17 298 8 q 257 42 264 26 q 251 88 251 59 m 215 1026 l 216 1026 l 145 1200 l 14 1200 l 14 1199 l 215 1026 z "},"Ȉ":{"ha":366,"x_min":-66,"x_max":330,"o":"m 251 88 l 251 891 q 257 937 251 921 q 281 963 264 954 q 330 979 298 972 l 330 979 l 37 979 l 37 979 q 85 963 68 972 q 109 937 102 954 q 115 891 115 921 l 115 88 q 109 42 115 59 q 85 17 102 26 q 37 1 68 8 l 37 0 l 330 0 l 330 1 q 281 17 298 8 q 257 42 264 26 q 251 88 251 59 m 54 1200 l -66 1200 l -66 1199 l 134 1025 l 135 1025 l 54 1200 m 244 1200 l 130 1200 l 130 1199 l 293 1025 l 294 1025 l 244 1200 z "},"Î":{"ha":366,"x_min":37,"x_max":336,"o":"m 251 88 l 251 891 q 257 937 251 921 q 281 963 264 954 q 330 979 298 972 l 330 979 l 37 979 l 37 979 q 85 963 68 972 q 109 937 102 954 q 115 891 115 921 l 115 88 q 109 42 115 59 q 85 17 102 26 q 37 1 68 8 l 37 0 l 330 0 l 330 1 q 281 17 298 8 q 257 42 264 26 q 251 88 251 59 m 42 1026 l 216 1140 l 161 1140 l 335 1026 l 336 1026 l 208 1200 l 170 1200 l 42 1026 q 42 1026 42 1026 q 42 1026 42 1026 z "},"Ǐ":{"ha":366,"x_min":37,"x_max":335,"o":"m 251 88 l 251 891 q 257 937 251 921 q 281 963 264 954 q 330 979 298 972 l 330 979 l 37 979 l 37 979 q 85 963 68 972 q 109 937 102 954 q 115 891 115 921 l 115 88 q 109 42 115 59 q 85 17 102 26 q 37 1 68 8 l 37 0 l 330 0 l 330 1 q 281 17 298 8 q 257 42 264 26 q 251 88 251 59 m 335 1223 l 161 1109 l 216 1109 l 42 1223 l 41 1223 l 169 1048 l 207 1048 l 335 1223 q 335 1223 335 1223 q 335 1223 335 1223 z "},"Ĭ":{"ha":366,"x_min":37,"x_max":330,"o":"m 251 88 l 251 891 q 257 937 251 921 q 281 963 264 954 q 330 979 298 972 l 330 979 l 37 979 l 37 979 q 85 963 68 972 q 109 937 102 954 q 115 891 115 921 l 115 88 q 109 42 115 59 q 85 17 102 26 q 37 1 68 8 l 37 0 l 330 0 l 330 1 q 281 17 298 8 q 257 42 264 26 q 251 88 251 59 m 183 1072 q 257 1093 227 1072 q 305 1148 288 1114 q 321 1220 321 1182 q 319 1250 321 1236 l 319 1250 q 319 1250 319 1250 q 319 1250 319 1250 q 300 1191 319 1216 q 251 1154 281 1166 q 182 1141 220 1141 q 114 1154 145 1141 q 65 1191 83 1166 q 46 1250 46 1216 q 46 1250 46 1250 q 46 1250 46 1250 l 45 1250 q 43 1220 43 1236 q 60 1148 43 1182 q 109 1093 77 1114 q 183 1072 140 1072 z "},"Ȋ":{"ha":366,"x_min":37,"x_max":330,"o":"m 251 88 l 251 891 q 257 937 251 921 q 281 963 264 954 q 330 979 298 972 l 330 979 l 37 979 l 37 979 q 85 963 68 972 q 109 937 102 954 q 115 891 115 921 l 115 88 q 109 42 115 59 q 85 17 102 26 q 37 1 68 8 l 37 0 l 330 0 l 330 1 q 281 17 298 8 q 257 42 264 26 q 251 88 251 59 m 182 1250 q 107 1229 138 1250 q 60 1174 77 1208 q 43 1101 43 1140 q 45 1072 43 1086 l 46 1072 q 46 1072 46 1072 q 46 1072 46 1072 q 65 1131 46 1106 q 114 1168 83 1155 q 182 1181 145 1181 q 251 1168 220 1181 q 300 1131 281 1155 q 319 1072 319 1106 q 319 1072 319 1072 q 319 1072 319 1072 l 319 1072 q 321 1101 321 1086 q 304 1174 321 1140 q 256 1229 288 1208 q 182 1250 225 1250 z "},"Ï":{"ha":366,"x_min":37,"x_max":330,"o":"m 251 88 l 251 891 q 257 937 251 921 q 281 963 264 954 q 330 979 298 972 l 330 979 l 37 979 l 37 979 q 85 963 68 972 q 109 937 102 954 q 115 891 115 921 l 115 88 q 109 42 115 59 q 85 17 102 26 q 37 1 68 8 l 37 0 l 330 0 l 330 1 q 281 17 298 8 q 257 42 264 26 q 251 88 251 59 m 91 1059 q 130 1075 114 1059 q 145 1114 145 1091 q 130 1152 145 1135 q 91 1168 114 1168 q 53 1152 68 1168 q 37 1114 37 1135 q 53 1075 37 1091 q 91 1059 68 1059 m 275 1059 q 313 1075 298 1059 q 329 1114 329 1091 q 313 1152 329 1135 q 275 1168 298 1168 q 237 1152 252 1168 q 221 1114 221 1135 q 237 1075 221 1091 q 275 1059 252 1059 z "},"Ḯ":{"ha":366,"x_min":30,"x_max":336,"o":"m 251 88 l 251 891 q 257 937 251 921 q 281 963 264 954 q 330 979 298 972 l 330 979 l 37 979 l 37 979 q 85 963 68 972 q 109 937 102 954 q 115 891 115 921 l 115 88 q 109 42 115 59 q 85 17 102 26 q 37 1 68 8 l 37 0 l 330 0 l 330 1 q 281 17 298 8 q 257 42 264 26 q 251 88 251 59 m 97 1072 q 132 1085 118 1072 q 146 1116 146 1097 q 132 1148 146 1135 q 97 1160 118 1160 l 96 1160 q 61 1148 75 1160 q 47 1116 47 1135 q 61 1085 47 1097 q 96 1072 75 1072 l 97 1072 m 271 1072 q 306 1085 292 1072 q 319 1116 319 1097 q 306 1148 319 1135 q 271 1160 292 1160 l 269 1160 q 234 1148 248 1160 q 220 1116 220 1135 q 234 1085 220 1097 q 269 1072 248 1072 l 271 1072 m 336 1240 l 336 1311 l 30 1192 l 30 1192 l 336 1240 z "},"Ĩ":{"ha":366,"x_min":28,"x_max":337,"o":"m 251 88 l 251 891 q 257 937 251 921 q 281 963 264 954 q 330 979 298 972 l 330 979 l 37 979 l 37 979 q 85 963 68 972 q 109 937 102 954 q 115 891 115 921 l 115 88 q 109 42 115 59 q 85 17 102 26 q 37 1 68 8 l 37 0 l 330 0 l 330 1 q 281 17 298 8 q 257 42 264 26 q 251 88 251 59 m 248 1046 q 313 1077 288 1046 q 332 1190 337 1107 l 332 1190 q 316 1125 328 1142 q 284 1109 303 1109 q 257 1114 269 1109 q 225 1133 245 1120 l 205 1145 q 159 1172 180 1163 q 118 1180 139 1180 q 53 1150 77 1180 q 33 1037 28 1120 l 34 1037 q 50 1101 37 1085 q 81 1118 62 1118 q 109 1113 96 1118 q 140 1094 121 1107 l 160 1081 q 206 1055 186 1064 q 248 1046 227 1046 z "},"Ḭ":{"ha":366,"x_min":35,"x_max":331,"o":"m 251 88 l 251 891 q 257 937 251 921 q 281 963 264 954 q 330 979 298 972 l 330 979 l 37 979 l 37 979 q 85 963 68 972 q 109 937 102 954 q 115 891 115 921 l 115 88 q 109 42 115 59 q 85 17 102 26 q 37 1 68 8 l 37 0 l 330 0 l 330 1 q 281 17 298 8 q 257 42 264 26 q 251 88 251 59 z "},"Ī":{"ha":366,"x_min":37,"x_max":330,"o":"m 251 88 l 251 891 q 257 937 251 921 q 281 963 264 954 q 330 979 298 972 l 330 979 l 37 979 l 37 979 q 85 963 68 972 q 109 937 102 954 q 115 891 115 921 l 115 88 q 109 42 115 59 q 85 17 102 26 q 37 1 68 8 l 37 0 l 330 0 l 330 1 q 281 17 298 8 q 257 42 264 26 q 251 88 251 59 m 43 1073 l 323 1073 l 323 1131 l 43 1131 l 43 1073 z "},"Ỉ":{"ha":366,"x_min":37,"x_max":330,"o":"m 251 88 l 251 891 q 257 937 251 921 q 281 963 264 954 q 330 979 298 972 l 330 979 l 37 979 l 37 979 q 85 963 68 972 q 109 937 102 954 q 115 891 115 921 l 115 88 q 109 42 115 59 q 85 17 102 26 q 37 1 68 8 l 37 0 l 330 0 l 330 1 q 281 17 298 8 q 257 42 264 26 q 251 88 251 59 m 195 1227 q 129 1206 157 1227 q 87 1152 100 1185 l 87 1151 q 116 1173 99 1164 q 153 1181 132 1181 q 201 1166 183 1181 q 218 1129 218 1152 q 201 1078 218 1102 q 153 1035 184 1055 l 154 1035 q 254 1095 226 1065 q 281 1158 281 1125 q 256 1207 281 1188 q 195 1227 231 1227 z "},"İ":{"ha":366,"x_min":37,"x_max":330,"o":"m 251 88 l 251 891 q 257 937 251 921 q 281 963 264 954 q 330 979 298 972 l 330 979 l 37 979 l 37 979 q 85 963 68 972 q 109 937 102 954 q 115 891 115 921 l 115 88 q 109 42 115 59 q 85 17 102 26 q 37 1 68 8 l 37 0 l 330 0 l 330 1 q 281 17 298 8 q 257 42 264 26 q 251 88 251 59 m 183 1057 q 223 1074 207 1057 q 239 1113 239 1090 q 223 1152 239 1135 q 183 1168 207 1168 q 143 1152 160 1168 q 127 1113 127 1135 q 143 1074 127 1090 q 183 1057 160 1057 z "},"Ị":{"ha":366,"x_min":37,"x_max":330,"o":"m 251 88 l 251 891 q 257 937 251 921 q 281 963 264 954 q 330 979 298 972 l 330 979 l 37 979 l 37 979 q 85 963 68 972 q 109 937 102 954 q 115 891 115 921 l 115 88 q 109 42 115 59 q 85 17 102 26 q 37 1 68 8 l 37 0 l 330 0 l 330 1 q 281 17 298 8 q 257 42 264 26 q 251 88 251 59 m 183 -132 q 143 -148 160 -132 q 127 -187 127 -165 q 143 -226 127 -210 q 183 -243 160 -243 q 223 -226 207 -243 q 239 -187 239 -210 q 223 -148 239 -165 q 183 -132 207 -132 z "},"Į":{"ha":366,"x_min":37,"x_max":330,"o":"m 251 88 l 251 891 q 257 937 251 921 q 281 963 264 954 q 330 979 298 972 l 330 979 l 37 979 l 37 979 q 85 963 68 972 q 109 937 102 954 q 115 891 115 921 l 115 88 q 109 42 115 59 q 85 17 102 26 q 37 1 68 8 l 37 0 l 330 0 l 330 1 q 281 17 298 8 q 257 42 264 26 q 251 88 251 59 m 191 -317 q 258 -296 229 -317 q 299 -239 288 -275 l 298 -239 q 278 -259 291 -251 q 248 -268 265 -268 q 191 -227 215 -268 q 166 -131 166 -186 q 174 -55 166 -89 q 195 1 181 -22 l 195 1 q 111 -97 140 -45 q 81 -205 81 -148 q 112 -286 81 -254 q 191 -317 142 -317 z "},"J":{"ha":345,"x_min":-81,"x_max":319,"o":"m 240 157 l 240 891 q 247 937 240 921 q 270 963 253 954 q 319 979 287 972 l 319 979 l 26 979 l 26 979 q 75 963 58 972 q 98 937 92 954 q 104 891 104 921 l 104 178 q 88 -26 104 58 q 31 -169 71 -110 q -81 -275 -9 -229 l -81 -275 q 54 -202 -5 -241 q 155 -113 113 -163 q 218 4 196 -62 q 240 157 240 70 z "},"Ĵ":{"ha":345,"x_min":-81,"x_max":326,"o":"m 240 157 l 240 891 q 247 937 240 921 q 270 963 253 954 q 319 979 287 972 l 319 979 l 26 979 l 26 979 q 75 963 58 972 q 98 937 92 954 q 104 891 104 921 l 104 178 q 88 -26 104 58 q 31 -169 71 -110 q -81 -275 -9 -229 l -81 -275 q 54 -202 -5 -241 q 155 -113 113 -163 q 218 4 196 -62 q 240 157 240 70 m 31 1026 l 205 1140 l 151 1140 l 324 1026 l 326 1026 l 197 1200 l 159 1200 l 31 1026 q 31 1026 31 1026 q 31 1026 31 1026 z "},"K":{"ha":849,"x_min":31,"x_max":849,"o":"m 245 83 l 245 897 q 252 940 245 924 q 275 963 258 955 q 321 979 291 972 l 321 979 l 31 979 l 31 979 q 80 963 63 972 q 103 937 97 954 q 110 891 110 921 l 110 88 q 103 42 110 59 q 80 17 97 26 q 31 1 63 8 l 31 0 l 321 0 l 321 1 q 275 16 291 7 q 252 40 258 24 q 245 83 245 55 m 644 0 l 849 0 l 849 1 q 804 27 826 9 q 753 83 781 45 q 682 187 724 121 l 412 614 l 412 614 q 497 704 450 653 q 589 800 545 755 q 685 891 644 855 q 761 949 726 928 q 828 979 795 970 l 828 979 l 612 979 l 612 979 q 662 956 652 974 q 650 902 671 938 q 576 806 629 866 l 323 513 l 644 0 m 326 510 l 326 515 l 243 513 l 243 512 l 326 510 z "},"Ḱ":{"ha":849,"x_min":31,"x_max":849,"o":"m 245 83 l 245 897 q 252 940 245 924 q 275 963 258 955 q 321 979 291 972 l 321 979 l 31 979 l 31 979 q 80 963 63 972 q 103 937 97 954 q 110 891 110 921 l 110 88 q 103 42 110 59 q 80 17 97 26 q 31 1 63 8 l 31 0 l 321 0 l 321 1 q 275 16 291 7 q 252 40 258 24 q 245 83 245 55 m 644 0 l 849 0 l 849 1 q 804 27 826 9 q 753 83 781 45 q 682 187 724 121 l 412 614 l 412 614 q 497 704 450 653 q 589 800 545 755 q 685 891 644 855 q 761 949 726 928 q 828 979 795 970 l 828 979 l 612 979 l 612 979 q 662 956 652 974 q 650 902 671 938 q 576 806 629 866 l 323 513 l 644 0 m 326 510 l 326 515 l 243 513 l 243 512 l 326 510 m 399 1025 l 597 1198 l 597 1199 l 471 1199 l 397 1025 l 399 1025 z "},"Ǩ":{"ha":849,"x_min":31,"x_max":849,"o":"m 245 83 l 245 897 q 252 940 245 924 q 275 963 258 955 q 321 979 291 972 l 321 979 l 31 979 l 31 979 q 80 963 63 972 q 103 937 97 954 q 110 891 110 921 l 110 88 q 103 42 110 59 q 80 17 97 26 q 31 1 63 8 l 31 0 l 321 0 l 321 1 q 275 16 291 7 q 252 40 258 24 q 245 83 245 55 m 644 0 l 849 0 l 849 1 q 804 27 826 9 q 753 83 781 45 q 682 187 724 121 l 412 614 l 412 614 q 497 704 450 653 q 589 800 545 755 q 685 891 644 855 q 761 949 726 928 q 828 979 795 970 l 828 979 l 612 979 l 612 979 q 662 956 652 974 q 650 902 671 938 q 576 806 629 866 l 323 513 l 644 0 m 326 510 l 326 515 l 243 513 l 243 512 l 326 510 m 571 1222 l 397 1108 l 452 1108 l 278 1222 l 277 1222 l 405 1048 l 443 1048 l 571 1222 q 571 1222 571 1222 q 571 1222 571 1222 z "},"Ḵ":{"ha":849,"x_min":31,"x_max":849,"o":"m 245 83 l 245 897 q 252 940 245 924 q 275 963 258 955 q 321 979 291 972 l 321 979 l 31 979 l 31 979 q 80 963 63 972 q 103 937 97 954 q 110 891 110 921 l 110 88 q 103 42 110 59 q 80 17 97 26 q 31 1 63 8 l 31 0 l 321 0 l 321 1 q 275 16 291 7 q 252 40 258 24 q 245 83 245 55 m 644 0 l 849 0 l 849 1 q 804 27 826 9 q 753 83 781 45 q 682 187 724 121 l 412 614 l 412 614 q 497 704 450 653 q 589 800 545 755 q 685 891 644 855 q 761 949 726 928 q 828 979 795 970 l 828 979 l 612 979 l 612 979 q 662 956 652 974 q 650 902 671 938 q 576 806 629 866 l 323 513 l 644 0 m 326 510 l 326 515 l 243 513 l 243 512 l 326 510 z "},"Ḳ":{"ha":849,"x_min":31,"x_max":849,"o":"m 245 83 l 245 897 q 252 940 245 924 q 275 963 258 955 q 321 979 291 972 l 321 979 l 31 979 l 31 979 q 80 963 63 972 q 103 937 97 954 q 110 891 110 921 l 110 88 q 103 42 110 59 q 80 17 97 26 q 31 1 63 8 l 31 0 l 321 0 l 321 1 q 275 16 291 7 q 252 40 258 24 q 245 83 245 55 m 644 0 l 849 0 l 849 1 q 804 27 826 9 q 753 83 781 45 q 682 187 724 121 l 412 614 l 412 614 q 497 704 450 653 q 589 800 545 755 q 685 891 644 855 q 761 949 726 928 q 828 979 795 970 l 828 979 l 612 979 l 612 979 q 662 956 652 974 q 650 902 671 938 q 576 806 629 866 l 323 513 l 644 0 m 326 510 l 326 515 l 243 513 l 243 512 l 326 510 m 433 -132 q 393 -148 410 -132 q 376 -187 376 -165 q 393 -226 376 -210 q 433 -243 410 -243 q 473 -226 456 -243 q 489 -187 489 -210 q 473 -148 489 -165 q 433 -132 456 -132 z "},"Ķ":{"ha":849,"x_min":31,"x_max":849,"o":"m 245 83 l 245 897 q 252 940 245 924 q 275 963 258 955 q 321 979 291 972 l 321 979 l 31 979 l 31 979 q 80 963 63 972 q 103 937 97 954 q 110 891 110 921 l 110 88 q 103 42 110 59 q 80 17 97 26 q 31 1 63 8 l 31 0 l 321 0 l 321 1 q 275 16 291 7 q 252 40 258 24 q 245 83 245 55 m 644 0 l 849 0 l 849 1 q 804 27 826 9 q 753 83 781 45 q 682 187 724 121 l 412 614 l 412 614 q 497 704 450 653 q 589 800 545 755 q 685 891 644 855 q 761 949 726 928 q 828 979 795 970 l 828 979 l 612 979 l 612 979 q 662 956 652 974 q 650 902 671 938 q 576 806 629 866 l 323 513 l 644 0 m 326 510 l 326 515 l 243 513 l 243 512 l 326 510 m 433 -283 q 520 -256 485 -283 q 555 -186 555 -229 q 524 -116 555 -142 q 445 -91 492 -91 q 382 -110 406 -91 q 345 -149 359 -129 l 345 -150 q 365 -143 352 -146 q 392 -140 378 -140 q 442 -154 422 -140 q 462 -193 462 -168 q 443 -231 462 -216 q 393 -245 424 -245 q 345 -234 368 -245 q 307 -208 321 -223 l 307 -209 q 354 -261 319 -239 q 433 -283 389 -283 z "},"L":{"ha":694,"x_min":31,"x_max":675,"o":"m 661 0 l 675 240 l 675 240 q 638 131 660 174 q 581 61 616 87 q 488 22 545 35 q 347 5 431 9 l 245 1 l 245 880 q 251 932 245 913 q 275 962 257 951 q 330 979 294 972 l 330 979 l 31 979 l 31 979 q 80 963 63 972 q 103 937 97 954 q 110 891 110 921 l 110 88 q 103 42 110 59 q 80 17 97 26 q 31 1 63 8 l 31 0 l 661 0 z "},"Ĺ":{"ha":694,"x_min":31,"x_max":675,"o":"m 661 0 l 675 240 l 675 240 q 638 131 660 174 q 581 61 616 87 q 488 22 545 35 q 347 5 431 9 l 245 1 l 245 880 q 251 932 245 913 q 275 962 257 951 q 330 979 294 972 l 330 979 l 31 979 l 31 979 q 80 963 63 972 q 103 937 97 954 q 110 891 110 921 l 110 88 q 103 42 110 59 q 80 17 97 26 q 31 1 63 8 l 31 0 l 661 0 m 157 1025 l 356 1198 l 356 1200 l 230 1200 l 156 1025 l 157 1025 z "},"Ḽ":{"ha":694,"x_min":31,"x_max":675,"o":"m 661 0 l 675 240 l 675 240 q 638 131 660 174 q 581 61 616 87 q 488 22 545 35 q 347 5 431 9 l 245 1 l 245 880 q 251 932 245 913 q 275 962 257 951 q 330 979 294 972 l 330 979 l 31 979 l 31 979 q 80 963 63 972 q 103 937 97 954 q 110 891 110 921 l 110 88 q 103 42 110 59 q 80 17 97 26 q 31 1 63 8 l 31 0 l 661 0 z "},"Ľ":{"ha":694,"x_min":31,"x_max":675,"o":"m 661 0 l 675 240 l 675 240 q 638 131 660 174 q 581 61 616 87 q 488 22 545 35 q 347 5 431 9 l 245 1 l 245 880 q 251 932 245 913 q 275 962 257 951 q 330 979 294 972 l 330 979 l 31 979 l 31 979 q 80 963 63 972 q 103 937 97 954 q 110 891 110 921 l 110 88 q 103 42 110 59 q 80 17 97 26 q 31 1 63 8 l 31 0 l 661 0 m 444 747 l 575 1006 l 472 1006 l 444 747 l 444 747 z "},"Ḻ":{"ha":694,"x_min":31,"x_max":675,"o":"m 661 0 l 675 240 l 675 240 q 638 131 660 174 q 581 61 616 87 q 488 22 545 35 q 347 5 431 9 l 245 1 l 245 880 q 251 932 245 913 q 275 962 257 951 q 330 979 294 972 l 330 979 l 31 979 l 31 979 q 80 963 63 972 q 103 937 97 954 q 110 891 110 921 l 110 88 q 103 42 110 59 q 80 17 97 26 q 31 1 63 8 l 31 0 l 661 0 z "},"Ŀ":{"ha":694,"x_min":31,"x_max":675,"o":"m 661 0 l 675 240 l 675 240 q 638 131 660 174 q 581 61 616 87 q 488 22 545 35 q 347 5 431 9 l 245 1 l 245 880 q 251 932 245 913 q 275 962 257 951 q 330 979 294 972 l 330 979 l 31 979 l 31 979 q 80 963 63 972 q 103 937 97 954 q 110 891 110 921 l 110 88 q 103 42 110 59 q 80 17 97 26 q 31 1 63 8 l 31 0 l 661 0 m 446 464 q 493 483 473 464 q 512 529 512 503 q 493 575 512 555 q 446 594 473 594 q 399 575 418 594 q 379 529 379 555 q 399 483 379 503 q 446 464 418 464 z "},"Ḷ":{"ha":694,"x_min":31,"x_max":675,"o":"m 661 0 l 675 240 l 675 240 q 638 131 660 174 q 581 61 616 87 q 488 22 545 35 q 347 5 431 9 l 245 1 l 245 880 q 251 932 245 913 q 275 962 257 951 q 330 979 294 972 l 330 979 l 31 979 l 31 979 q 80 963 63 972 q 103 937 97 954 q 110 891 110 921 l 110 88 q 103 42 110 59 q 80 17 97 26 q 31 1 63 8 l 31 0 l 661 0 m 382 -132 q 343 -148 359 -132 q 326 -187 326 -165 q 343 -226 326 -210 q 382 -243 359 -243 q 422 -226 406 -243 q 439 -187 439 -210 q 422 -148 439 -165 q 382 -132 406 -132 z "},"Ḹ":{"ha":694,"x_min":31,"x_max":675,"o":"m 661 0 l 675 240 l 675 240 q 638 131 660 174 q 581 61 616 87 q 488 22 545 35 q 347 5 431 9 l 245 1 l 245 880 q 251 932 245 913 q 275 962 257 951 q 330 979 294 972 l 330 979 l 31 979 l 31 979 q 80 963 63 972 q 103 937 97 954 q 110 891 110 921 l 110 88 q 103 42 110 59 q 80 17 97 26 q 31 1 63 8 l 31 0 l 661 0 m 382 -132 q 343 -148 359 -132 q 326 -187 326 -165 q 343 -226 326 -210 q 382 -243 359 -243 q 422 -226 406 -243 q 439 -187 439 -210 q 422 -148 439 -165 q 382 -132 406 -132 m 38 1073 l 318 1073 l 318 1131 l 38 1131 l 38 1073 z "},"Ļ":{"ha":694,"x_min":31,"x_max":675,"o":"m 661 0 l 675 240 l 675 240 q 638 131 660 174 q 581 61 616 87 q 488 22 545 35 q 347 5 431 9 l 245 1 l 245 880 q 251 932 245 913 q 275 962 257 951 q 330 979 294 972 l 330 979 l 31 979 l 31 979 q 80 963 63 972 q 103 937 97 954 q 110 891 110 921 l 110 88 q 103 42 110 59 q 80 17 97 26 q 31 1 63 8 l 31 0 l 661 0 m 382 -283 q 470 -256 435 -283 q 505 -186 505 -229 q 474 -116 505 -142 q 395 -91 442 -91 q 332 -110 355 -91 q 294 -149 309 -129 l 294 -150 q 315 -143 302 -146 q 342 -140 328 -140 q 392 -154 372 -140 q 412 -193 412 -168 q 393 -231 412 -216 q 342 -245 374 -245 q 294 -234 317 -245 q 257 -208 271 -223 l 256 -209 q 304 -261 269 -239 q 382 -283 339 -283 z "},"Ł":{"ha":694,"x_min":31,"x_max":675,"o":"m 661 0 l 675 240 l 675 240 q 638 131 660 174 q 581 61 616 87 q 488 22 545 35 q 347 5 431 9 l 245 1 l 245 880 q 251 932 245 913 q 275 962 257 951 q 330 979 294 972 l 330 979 l 31 979 l 31 979 q 80 963 63 972 q 103 937 97 954 q 110 891 110 921 l 110 88 q 103 42 110 59 q 80 17 97 26 q 31 1 63 8 l 31 0 l 661 0 m 31 446 l 484 576 l 484 582 l 31 452 l 31 446 z "},"M":{"ha":1123,"x_min":-2,"x_max":1105,"o":"m 254 979 l 66 979 l 66 979 q 106 958 90 971 q 129 921 122 944 q 134 859 136 897 l 100 186 q 87 79 96 117 q 58 24 79 41 q -2 1 37 7 l -2 0 l 205 0 l 205 1 q 148 24 167 7 q 124 79 129 41 q 120 186 119 117 l 138 930 l 130 930 l 493 0 l 522 0 l 576 144 l 863 903 l 859 903 l 892 87 q 888 40 894 57 q 865 14 882 22 q 818 1 848 6 l 818 0 l 1105 0 l 1105 1 q 1057 15 1073 6 q 1035 40 1041 23 q 1028 87 1029 57 l 996 892 q 1000 937 995 920 q 1020 963 1005 954 q 1063 979 1036 972 l 1063 979 l 869 979 l 574 144 l 574 144 l 254 979 z "},"Ḿ":{"ha":1123,"x_min":-2,"x_max":1105,"o":"m 254 979 l 66 979 l 66 979 q 106 958 90 971 q 129 921 122 944 q 134 859 136 897 l 100 186 q 87 79 96 117 q 58 24 79 41 q -2 1 37 7 l -2 0 l 205 0 l 205 1 q 148 24 167 7 q 124 79 129 41 q 120 186 119 117 l 138 930 l 130 930 l 493 0 l 522 0 l 576 144 l 863 903 l 859 903 l 892 87 q 888 40 894 57 q 865 14 882 22 q 818 1 848 6 l 818 0 l 1105 0 l 1105 1 q 1057 15 1073 6 q 1035 40 1041 23 q 1028 87 1029 57 l 996 892 q 1000 937 995 920 q 1020 963 1005 954 q 1063 979 1036 972 l 1063 979 l 869 979 l 574 144 l 574 144 l 254 979 m 546 1025 l 745 1198 l 745 1200 l 618 1200 l 545 1025 l 546 1025 z "},"Ṁ":{"ha":1123,"x_min":-2,"x_max":1105,"o":"m 254 979 l 66 979 l 66 979 q 106 958 90 971 q 129 921 122 944 q 134 859 136 897 l 100 186 q 87 79 96 117 q 58 24 79 41 q -2 1 37 7 l -2 0 l 205 0 l 205 1 q 148 24 167 7 q 124 79 129 41 q 120 186 119 117 l 138 930 l 130 930 l 493 0 l 522 0 l 576 144 l 863 903 l 859 903 l 892 87 q 888 40 894 57 q 865 14 882 22 q 818 1 848 6 l 818 0 l 1105 0 l 1105 1 q 1057 15 1073 6 q 1035 40 1041 23 q 1028 87 1029 57 l 996 892 q 1000 937 995 920 q 1020 963 1005 954 q 1063 979 1036 972 l 1063 979 l 869 979 l 574 144 l 574 144 l 254 979 m 566 1057 q 606 1074 590 1057 q 623 1113 623 1090 q 606 1152 623 1135 q 566 1168 590 1168 q 527 1152 543 1168 q 510 1113 510 1135 q 527 1074 510 1090 q 566 1057 543 1057 z "},"Ṃ":{"ha":1123,"x_min":-2,"x_max":1105,"o":"m 254 979 l 66 979 l 66 979 q 106 958 90 971 q 129 921 122 944 q 134 859 136 897 l 100 186 q 87 79 96 117 q 58 24 79 41 q -2 1 37 7 l -2 0 l 205 0 l 205 1 q 148 24 167 7 q 124 79 129 41 q 120 186 119 117 l 138 930 l 130 930 l 493 0 l 522 0 l 576 144 l 863 903 l 859 903 l 892 87 q 888 40 894 57 q 865 14 882 22 q 818 1 848 6 l 818 0 l 1105 0 l 1105 1 q 1057 15 1073 6 q 1035 40 1041 23 q 1028 87 1029 57 l 996 892 q 1000 937 995 920 q 1020 963 1005 954 q 1063 979 1036 972 l 1063 979 l 869 979 l 574 144 l 574 144 l 254 979 m 509 -132 q 470 -148 486 -132 q 453 -187 453 -165 q 470 -226 453 -210 q 509 -243 486 -243 q 549 -226 533 -243 q 566 -187 566 -210 q 549 -148 566 -165 q 509 -132 533 -132 z "},"N":{"ha":907,"x_min":7,"x_max":903,"o":"m 243 979 l 35 979 l 35 979 q 76 956 60 969 q 101 920 93 942 q 109 859 110 897 l 100 201 q 93 84 100 125 q 66 25 85 43 q 7 1 46 7 l 7 0 l 214 0 l 214 1 q 156 24 176 7 q 129 83 136 42 q 121 201 122 125 l 111 937 l 99 937 l 771 0 l 803 0 l 810 779 q 818 896 810 854 q 845 955 825 937 q 903 979 865 973 l 903 979 l 696 979 l 696 979 q 754 955 735 973 q 781 896 774 937 q 789 779 788 854 l 802 197 l 802 197 l 243 979 z "},"Ń":{"ha":907,"x_min":7,"x_max":903,"o":"m 243 979 l 35 979 l 35 979 q 76 956 60 969 q 101 920 93 942 q 109 859 110 897 l 100 201 q 93 84 100 125 q 66 25 85 43 q 7 1 46 7 l 7 0 l 214 0 l 214 1 q 156 24 176 7 q 129 83 136 42 q 121 201 122 125 l 111 937 l 99 937 l 771 0 l 803 0 l 810 779 q 818 896 810 854 q 845 955 825 937 q 903 979 865 973 l 903 979 l 696 979 l 696 979 q 754 955 735 973 q 781 896 774 937 q 789 779 788 854 l 802 197 l 802 197 l 243 979 m 465 1025 l 664 1198 l 664 1200 l 538 1200 l 464 1025 l 465 1025 z "},"Ǹ":{"ha":907,"x_min":7,"x_max":903,"o":"m 243 979 l 35 979 l 35 979 q 76 956 60 969 q 101 920 93 942 q 109 859 110 897 l 100 201 q 93 84 100 125 q 66 25 85 43 q 7 1 46 7 l 7 0 l 214 0 l 214 1 q 156 24 176 7 q 129 83 136 42 q 121 201 122 125 l 111 937 l 99 937 l 771 0 l 803 0 l 810 779 q 818 896 810 854 q 845 955 825 937 q 903 979 865 973 l 903 979 l 696 979 l 696 979 q 754 955 735 973 q 781 896 774 937 q 789 779 788 854 l 802 197 l 802 197 l 243 979 m 517 1026 l 519 1026 l 448 1200 l 316 1200 l 316 1199 l 517 1026 z "},"Ṋ":{"ha":907,"x_min":7,"x_max":903,"o":"m 243 979 l 35 979 l 35 979 q 76 956 60 969 q 101 920 93 942 q 109 859 110 897 l 100 201 q 93 84 100 125 q 66 25 85 43 q 7 1 46 7 l 7 0 l 214 0 l 214 1 q 156 24 176 7 q 129 83 136 42 q 121 201 122 125 l 111 937 l 99 937 l 771 0 l 803 0 l 810 779 q 818 896 810 854 q 845 955 825 937 q 903 979 865 973 l 903 979 l 696 979 l 696 979 q 754 955 735 973 q 781 896 774 937 q 789 779 788 854 l 802 197 l 802 197 l 243 979 z "},"Ň":{"ha":907,"x_min":7,"x_max":903,"o":"m 243 979 l 35 979 l 35 979 q 76 956 60 969 q 101 920 93 942 q 109 859 110 897 l 100 201 q 93 84 100 125 q 66 25 85 43 q 7 1 46 7 l 7 0 l 214 0 l 214 1 q 156 24 176 7 q 129 83 136 42 q 121 201 122 125 l 111 937 l 99 937 l 771 0 l 803 0 l 810 779 q 818 896 810 854 q 845 955 825 937 q 903 979 865 973 l 903 979 l 696 979 l 696 979 q 754 955 735 973 q 781 896 774 937 q 789 779 788 854 l 802 197 l 802 197 l 243 979 m 637 1223 l 463 1109 l 518 1109 l 345 1223 l 343 1223 l 471 1048 l 509 1048 l 637 1223 q 637 1223 637 1223 q 637 1223 637 1223 z "},"Ñ":{"ha":907,"x_min":7,"x_max":903,"o":"m 243 979 l 35 979 l 35 979 q 76 956 60 969 q 101 920 93 942 q 109 859 110 897 l 100 201 q 93 84 100 125 q 66 25 85 43 q 7 1 46 7 l 7 0 l 214 0 l 214 1 q 156 24 176 7 q 129 83 136 42 q 121 201 122 125 l 111 937 l 99 937 l 771 0 l 803 0 l 810 779 q 818 896 810 854 q 845 955 825 937 q 903 979 865 973 l 903 979 l 696 979 l 696 979 q 754 955 735 973 q 781 896 774 937 q 789 779 788 854 l 802 197 l 802 197 l 243 979 m 550 1046 q 615 1077 591 1046 q 635 1190 640 1107 l 634 1190 q 618 1125 631 1142 q 587 1109 606 1109 q 559 1114 572 1109 q 528 1133 547 1120 l 508 1145 q 462 1172 482 1163 q 420 1180 441 1180 q 355 1150 380 1180 q 336 1037 331 1120 l 336 1037 q 352 1101 340 1085 q 384 1118 365 1118 q 411 1113 399 1118 q 443 1094 423 1107 l 463 1081 q 509 1055 488 1064 q 550 1046 529 1046 z "},"Ṉ":{"ha":907,"x_min":7,"x_max":903,"o":"m 243 979 l 35 979 l 35 979 q 76 956 60 969 q 101 920 93 942 q 109 859 110 897 l 100 201 q 93 84 100 125 q 66 25 85 43 q 7 1 46 7 l 7 0 l 214 0 l 214 1 q 156 24 176 7 q 129 83 136 42 q 121 201 122 125 l 111 937 l 99 937 l 771 0 l 803 0 l 810 779 q 818 896 810 854 q 845 955 825 937 q 903 979 865 973 l 903 979 l 696 979 l 696 979 q 754 955 735 973 q 781 896 774 937 q 789 779 788 854 l 802 197 l 802 197 l 243 979 z "},"Ṅ":{"ha":907,"x_min":7,"x_max":903,"o":"m 243 979 l 35 979 l 35 979 q 76 956 60 969 q 101 920 93 942 q 109 859 110 897 l 100 201 q 93 84 100 125 q 66 25 85 43 q 7 1 46 7 l 7 0 l 214 0 l 214 1 q 156 24 176 7 q 129 83 136 42 q 121 201 122 125 l 111 937 l 99 937 l 771 0 l 803 0 l 810 779 q 818 896 810 854 q 845 955 825 937 q 903 979 865 973 l 903 979 l 696 979 l 696 979 q 754 955 735 973 q 781 896 774 937 q 789 779 788 854 l 802 197 l 802 197 l 243 979 m 486 1057 q 526 1074 509 1057 q 542 1113 542 1090 q 526 1152 542 1135 q 486 1168 509 1168 q 446 1152 463 1168 q 429 1113 429 1135 q 446 1074 429 1090 q 486 1057 463 1057 z "},"Ṇ":{"ha":907,"x_min":7,"x_max":903,"o":"m 243 979 l 35 979 l 35 979 q 76 956 60 969 q 101 920 93 942 q 109 859 110 897 l 100 201 q 93 84 100 125 q 66 25 85 43 q 7 1 46 7 l 7 0 l 214 0 l 214 1 q 156 24 176 7 q 129 83 136 42 q 121 201 122 125 l 111 937 l 99 937 l 771 0 l 803 0 l 810 779 q 818 896 810 854 q 845 955 825 937 q 903 979 865 973 l 903 979 l 696 979 l 696 979 q 754 955 735 973 q 781 896 774 937 q 789 779 788 854 l 802 197 l 802 197 l 243 979 m 456 -132 q 416 -148 433 -132 q 399 -187 399 -165 q 416 -226 399 -210 q 456 -243 433 -243 q 496 -226 479 -243 q 512 -187 512 -210 q 496 -148 512 -165 q 456 -132 479 -132 z "},"Ņ":{"ha":907,"x_min":7,"x_max":903,"o":"m 243 979 l 35 979 l 35 979 q 76 956 60 969 q 101 920 93 942 q 109 859 110 897 l 100 201 q 93 84 100 125 q 66 25 85 43 q 7 1 46 7 l 7 0 l 214 0 l 214 1 q 156 24 176 7 q 129 83 136 42 q 121 201 122 125 l 111 937 l 99 937 l 771 0 l 803 0 l 810 779 q 818 896 810 854 q 845 955 825 937 q 903 979 865 973 l 903 979 l 696 979 l 696 979 q 754 955 735 973 q 781 896 774 937 q 789 779 788 854 l 802 197 l 802 197 l 243 979 m 456 -283 q 543 -256 508 -283 q 578 -186 578 -229 q 547 -116 578 -142 q 468 -91 515 -91 q 406 -110 429 -91 q 368 -149 382 -129 l 368 -150 q 388 -143 375 -146 q 415 -140 401 -140 q 465 -154 446 -140 q 485 -193 485 -168 q 466 -231 485 -216 q 416 -245 447 -245 q 368 -234 391 -245 q 330 -208 345 -223 l 330 -209 q 377 -261 342 -239 q 456 -283 412 -283 z "},"O":{"ha":1074,"x_min":60,"x_max":1015,"o":"m 60 490 q 100 282 60 374 q 209 124 140 189 q 364 25 278 60 q 541 -9 450 -9 q 735 30 648 -9 q 885 138 822 68 q 981 297 947 207 q 1015 490 1015 388 q 974 699 1015 606 q 865 856 934 791 q 710 955 796 920 q 533 989 624 989 q 339 950 426 989 q 189 842 252 911 q 93 684 127 774 q 60 490 60 593 m 212 497 q 244 751 212 640 q 348 924 277 861 q 533 987 418 987 q 669 950 608 987 q 773 847 730 913 q 840 688 817 780 q 863 484 863 595 q 830 230 863 340 q 727 56 798 119 q 541 -7 656 -7 q 405 29 465 -7 q 301 133 344 66 q 235 293 258 201 q 212 497 212 385 z "},"Ó":{"ha":1074,"x_min":60,"x_max":1015,"o":"m 60 490 q 100 282 60 374 q 209 124 140 189 q 364 25 278 60 q 541 -9 450 -9 q 735 30 648 -9 q 885 138 822 68 q 981 297 947 207 q 1015 490 1015 388 q 974 699 1015 606 q 865 856 934 791 q 710 955 796 920 q 533 989 624 989 q 339 950 426 989 q 189 842 252 911 q 93 684 127 774 q 60 490 60 593 m 212 497 q 244 751 212 640 q 348 924 277 861 q 533 987 418 987 q 669 950 608 987 q 773 847 730 913 q 840 688 817 780 q 863 484 863 595 q 830 230 863 340 q 727 56 798 119 q 541 -7 656 -7 q 405 29 465 -7 q 301 133 344 66 q 235 293 258 201 q 212 497 212 385 m 515 1025 l 714 1198 l 714 1200 l 588 1200 l 514 1025 l 515 1025 z "},"Ò":{"ha":1074,"x_min":60,"x_max":1015,"o":"m 60 490 q 100 282 60 374 q 209 124 140 189 q 364 25 278 60 q 541 -9 450 -9 q 735 30 648 -9 q 885 138 822 68 q 981 297 947 207 q 1015 490 1015 388 q 974 699 1015 606 q 865 856 934 791 q 710 955 796 920 q 533 989 624 989 q 339 950 426 989 q 189 842 252 911 q 93 684 127 774 q 60 490 60 593 m 212 497 q 244 751 212 640 q 348 924 277 861 q 533 987 418 987 q 669 950 608 987 q 773 847 730 913 q 840 688 817 780 q 863 484 863 595 q 830 230 863 340 q 727 56 798 119 q 541 -7 656 -7 q 405 29 465 -7 q 301 133 344 66 q 235 293 258 201 q 212 497 212 385 m 568 1026 l 569 1026 l 498 1200 l 366 1200 l 366 1199 l 568 1026 z "},"Ő":{"ha":1074,"x_min":60,"x_max":1015,"o":"m 60 490 q 100 282 60 374 q 209 124 140 189 q 364 25 278 60 q 541 -9 450 -9 q 735 30 648 -9 q 885 138 822 68 q 981 297 947 207 q 1015 490 1015 388 q 974 699 1015 606 q 865 856 934 791 q 710 955 796 920 q 533 989 624 989 q 339 950 426 989 q 189 842 252 911 q 93 684 127 774 q 60 490 60 593 m 212 497 q 244 751 212 640 q 348 924 277 861 q 533 987 418 987 q 669 950 608 987 q 773 847 730 913 q 840 688 817 780 q 863 484 863 595 q 830 230 863 340 q 727 56 798 119 q 541 -7 656 -7 q 405 29 465 -7 q 301 133 344 66 q 235 293 258 201 q 212 497 212 385 m 486 1200 l 436 1026 l 437 1026 l 601 1200 l 601 1201 l 486 1200 m 675 1200 l 595 1026 l 597 1026 l 797 1200 l 797 1201 l 675 1200 z "},"Ȍ":{"ha":1074,"x_min":60,"x_max":1015,"o":"m 60 490 q 100 282 60 374 q 209 124 140 189 q 364 25 278 60 q 541 -9 450 -9 q 735 30 648 -9 q 885 138 822 68 q 981 297 947 207 q 1015 490 1015 388 q 974 699 1015 606 q 865 856 934 791 q 710 955 796 920 q 533 989 624 989 q 339 950 426 989 q 189 842 252 911 q 93 684 127 774 q 60 490 60 593 m 212 497 q 244 751 212 640 q 348 924 277 861 q 533 987 418 987 q 669 950 608 987 q 773 847 730 913 q 840 688 817 780 q 863 484 863 595 q 830 230 863 340 q 727 56 798 119 q 541 -7 656 -7 q 405 29 465 -7 q 301 133 344 66 q 235 293 258 201 q 212 497 212 385 m 407 1200 l 286 1200 l 286 1199 l 486 1025 l 488 1025 l 407 1200 m 597 1200 l 482 1200 l 482 1199 l 646 1025 l 647 1025 l 597 1200 z "},"Ô":{"ha":1074,"x_min":60,"x_max":1015,"o":"m 60 490 q 100 282 60 374 q 209 124 140 189 q 364 25 278 60 q 541 -9 450 -9 q 735 30 648 -9 q 885 138 822 68 q 981 297 947 207 q 1015 490 1015 388 q 974 699 1015 606 q 865 856 934 791 q 710 955 796 920 q 533 989 624 989 q 339 950 426 989 q 189 842 252 911 q 93 684 127 774 q 60 490 60 593 m 212 497 q 244 751 212 640 q 348 924 277 861 q 533 987 418 987 q 669 950 608 987 q 773 847 730 913 q 840 688 817 780 q 863 484 863 595 q 830 230 863 340 q 727 56 798 119 q 541 -7 656 -7 q 405 29 465 -7 q 301 133 344 66 q 235 293 258 201 q 212 497 212 385 m 395 1026 l 569 1140 l 514 1140 l 688 1026 l 689 1026 l 561 1200 l 523 1200 l 395 1026 q 395 1026 395 1026 q 395 1026 395 1026 z "},"Ố":{"ha":1074,"x_min":60,"x_max":1015,"o":"m 60 490 q 100 282 60 374 q 209 124 140 189 q 364 25 278 60 q 541 -9 450 -9 q 735 30 648 -9 q 885 138 822 68 q 981 297 947 207 q 1015 490 1015 388 q 974 699 1015 606 q 865 856 934 791 q 710 955 796 920 q 533 989 624 989 q 339 950 426 989 q 189 842 252 911 q 93 684 127 774 q 60 490 60 593 m 212 497 q 244 751 212 640 q 348 924 277 861 q 533 987 418 987 q 669 950 608 987 q 773 847 730 913 q 840 688 817 780 q 863 484 863 595 q 830 230 863 340 q 727 56 798 119 q 541 -7 656 -7 q 405 29 465 -7 q 301 133 344 66 q 235 293 258 201 q 212 497 212 385 m 383 1031 l 544 1093 l 528 1093 l 689 1031 l 689 1031 l 541 1158 l 530 1158 l 384 1031 l 383 1031 m 688 1225 l 688 1296 l 382 1177 l 382 1177 l 688 1225 z "},"Ồ":{"ha":1074,"x_min":60,"x_max":1015,"o":"m 60 490 q 100 282 60 374 q 209 124 140 189 q 364 25 278 60 q 541 -9 450 -9 q 735 30 648 -9 q 885 138 822 68 q 981 297 947 207 q 1015 490 1015 388 q 974 699 1015 606 q 865 856 934 791 q 710 955 796 920 q 533 989 624 989 q 339 950 426 989 q 189 842 252 911 q 93 684 127 774 q 60 490 60 593 m 212 497 q 244 751 212 640 q 348 924 277 861 q 533 987 418 987 q 669 950 608 987 q 773 847 730 913 q 840 688 817 780 q 863 484 863 595 q 830 230 863 340 q 727 56 798 119 q 541 -7 656 -7 q 405 29 465 -7 q 301 133 344 66 q 235 293 258 201 q 212 497 212 385 m 383 1031 l 544 1093 l 528 1093 l 689 1031 l 689 1031 l 541 1158 l 530 1158 l 384 1031 l 383 1031 m 383 1225 l 689 1177 l 689 1177 l 383 1296 l 383 1225 z "},"Ỗ":{"ha":1074,"x_min":60,"x_max":1015,"o":"m 60 490 q 100 282 60 374 q 209 124 140 189 q 364 25 278 60 q 541 -9 450 -9 q 735 30 648 -9 q 885 138 822 68 q 981 297 947 207 q 1015 490 1015 388 q 974 699 1015 606 q 865 856 934 791 q 710 955 796 920 q 533 989 624 989 q 339 950 426 989 q 189 842 252 911 q 93 684 127 774 q 60 490 60 593 m 212 497 q 244 751 212 640 q 348 924 277 861 q 533 987 418 987 q 669 950 608 987 q 773 847 730 913 q 840 688 817 780 q 863 484 863 595 q 830 230 863 340 q 727 56 798 119 q 541 -7 656 -7 q 405 29 465 -7 q 301 133 344 66 q 235 293 258 201 q 212 497 212 385 m 383 1031 l 544 1093 l 528 1093 l 689 1031 l 689 1031 l 541 1158 l 530 1158 l 384 1031 l 383 1031 m 606 1197 q 668 1221 646 1197 q 689 1290 689 1245 l 688 1290 q 673 1254 688 1264 q 633 1243 658 1243 q 604 1246 619 1243 q 568 1256 588 1250 l 548 1262 q 509 1272 529 1267 q 466 1276 488 1276 q 405 1252 426 1276 q 383 1183 383 1227 l 384 1183 q 400 1219 385 1208 q 439 1230 414 1230 q 469 1226 453 1230 q 505 1217 484 1223 l 524 1211 q 563 1201 543 1205 q 606 1197 583 1197 z "},"Ổ":{"ha":1074,"x_min":60,"x_max":1015,"o":"m 60 490 q 100 282 60 374 q 209 124 140 189 q 364 25 278 60 q 541 -9 450 -9 q 735 30 648 -9 q 885 138 822 68 q 981 297 947 207 q 1015 490 1015 388 q 974 699 1015 606 q 865 856 934 791 q 710 955 796 920 q 533 989 624 989 q 339 950 426 989 q 189 842 252 911 q 93 684 127 774 q 60 490 60 593 m 212 497 q 244 751 212 640 q 348 924 277 861 q 533 987 418 987 q 669 950 608 987 q 773 847 730 913 q 840 688 817 780 q 863 484 863 595 q 830 230 863 340 q 727 56 798 119 q 541 -7 656 -7 q 405 29 465 -7 q 301 133 344 66 q 235 293 258 201 q 212 497 212 385 m 383 1031 l 544 1093 l 528 1093 l 689 1031 l 689 1031 l 541 1158 l 530 1158 l 384 1031 l 383 1031 m 671 1265 q 611 1248 633 1265 q 578 1214 589 1231 l 578 1213 q 598 1223 585 1219 q 628 1227 611 1227 q 670 1216 654 1227 q 686 1186 686 1205 q 673 1155 686 1168 q 637 1134 660 1141 l 637 1133 q 725 1159 696 1143 q 753 1203 753 1175 q 729 1248 753 1231 q 671 1265 705 1265 z "},"Ộ":{"ha":1074,"x_min":60,"x_max":1015,"o":"m 60 490 q 100 282 60 374 q 209 124 140 189 q 364 25 278 60 q 541 -9 450 -9 q 735 30 648 -9 q 885 138 822 68 q 981 297 947 207 q 1015 490 1015 388 q 974 699 1015 606 q 865 856 934 791 q 710 955 796 920 q 533 989 624 989 q 339 950 426 989 q 189 842 252 911 q 93 684 127 774 q 60 490 60 593 m 212 497 q 244 751 212 640 q 348 924 277 861 q 533 987 418 987 q 669 950 608 987 q 773 847 730 913 q 840 688 817 780 q 863 484 863 595 q 830 230 863 340 q 727 56 798 119 q 541 -7 656 -7 q 405 29 465 -7 q 301 133 344 66 q 235 293 258 201 q 212 497 212 385 m 395 1026 l 569 1140 l 514 1140 l 688 1026 l 689 1026 l 561 1200 l 523 1200 l 395 1026 q 395 1026 395 1026 q 395 1026 395 1026 m 543 -132 q 503 -148 519 -132 q 486 -187 486 -165 q 503 -226 486 -210 q 543 -243 519 -243 q 583 -226 566 -243 q 599 -187 599 -210 q 583 -148 599 -165 q 543 -132 566 -132 z "},"Ǒ":{"ha":1074,"x_min":60,"x_max":1015,"o":"m 60 490 q 100 282 60 374 q 209 124 140 189 q 364 25 278 60 q 541 -9 450 -9 q 735 30 648 -9 q 885 138 822 68 q 981 297 947 207 q 1015 490 1015 388 q 974 699 1015 606 q 865 856 934 791 q 710 955 796 920 q 533 989 624 989 q 339 950 426 989 q 189 842 252 911 q 93 684 127 774 q 60 490 60 593 m 212 497 q 244 751 212 640 q 348 924 277 861 q 533 987 418 987 q 669 950 608 987 q 773 847 730 913 q 840 688 817 780 q 863 484 863 595 q 830 230 863 340 q 727 56 798 119 q 541 -7 656 -7 q 405 29 465 -7 q 301 133 344 66 q 235 293 258 201 q 212 497 212 385 m 688 1223 l 513 1109 l 568 1109 l 395 1223 l 393 1223 l 522 1048 l 559 1048 l 688 1223 q 688 1223 688 1223 q 688 1223 688 1223 z "},"Ŏ":{"ha":1074,"x_min":60,"x_max":1015,"o":"m 60 490 q 100 282 60 374 q 209 124 140 189 q 364 25 278 60 q 541 -9 450 -9 q 735 30 648 -9 q 885 138 822 68 q 981 297 947 207 q 1015 490 1015 388 q 974 699 1015 606 q 865 856 934 791 q 710 955 796 920 q 533 989 624 989 q 339 950 426 989 q 189 842 252 911 q 93 684 127 774 q 60 490 60 593 m 212 497 q 244 751 212 640 q 348 924 277 861 q 533 987 418 987 q 669 950 608 987 q 773 847 730 913 q 840 688 817 780 q 863 484 863 595 q 830 230 863 340 q 727 56 798 119 q 541 -7 656 -7 q 405 29 465 -7 q 301 133 344 66 q 235 293 258 201 q 212 497 212 385 m 536 1072 q 610 1093 579 1072 q 657 1148 641 1114 q 674 1220 674 1182 q 672 1250 674 1236 l 671 1250 q 671 1250 671 1250 q 671 1250 671 1250 q 653 1191 671 1216 q 603 1154 634 1166 q 535 1141 572 1141 q 467 1154 498 1141 q 417 1191 436 1166 q 399 1250 399 1216 q 399 1250 399 1250 q 399 1250 399 1250 l 398 1250 q 396 1220 396 1236 q 413 1148 396 1182 q 461 1093 430 1114 q 536 1072 492 1072 z "},"Ȏ":{"ha":1074,"x_min":60,"x_max":1015,"o":"m 60 490 q 100 282 60 374 q 209 124 140 189 q 364 25 278 60 q 541 -9 450 -9 q 735 30 648 -9 q 885 138 822 68 q 981 297 947 207 q 1015 490 1015 388 q 974 699 1015 606 q 865 856 934 791 q 710 955 796 920 q 533 989 624 989 q 339 950 426 989 q 189 842 252 911 q 93 684 127 774 q 60 490 60 593 m 212 497 q 244 751 212 640 q 348 924 277 861 q 533 987 418 987 q 669 950 608 987 q 773 847 730 913 q 840 688 817 780 q 863 484 863 595 q 830 230 863 340 q 727 56 798 119 q 541 -7 656 -7 q 405 29 465 -7 q 301 133 344 66 q 235 293 258 201 q 212 497 212 385 m 534 1250 q 460 1229 491 1250 q 413 1174 429 1208 q 396 1101 396 1140 q 398 1072 396 1086 l 399 1072 q 399 1072 399 1072 q 399 1072 399 1072 q 417 1131 399 1106 q 467 1168 436 1155 q 535 1181 498 1181 q 603 1168 572 1181 q 653 1131 634 1155 q 671 1072 671 1106 q 671 1072 671 1072 q 671 1072 671 1072 l 672 1072 q 674 1101 674 1086 q 657 1174 674 1140 q 609 1229 640 1208 q 534 1250 578 1250 z "},"Ö":{"ha":1074,"x_min":60,"x_max":1015,"o":"m 60 490 q 100 282 60 374 q 209 124 140 189 q 364 25 278 60 q 541 -9 450 -9 q 735 30 648 -9 q 885 138 822 68 q 981 297 947 207 q 1015 490 1015 388 q 974 699 1015 606 q 865 856 934 791 q 710 955 796 920 q 533 989 624 989 q 339 950 426 989 q 189 842 252 911 q 93 684 127 774 q 60 490 60 593 m 212 497 q 244 751 212 640 q 348 924 277 861 q 533 987 418 987 q 669 950 608 987 q 773 847 730 913 q 840 688 817 780 q 863 484 863 595 q 830 230 863 340 q 727 56 798 119 q 541 -7 656 -7 q 405 29 465 -7 q 301 133 344 66 q 235 293 258 201 q 212 497 212 385 m 444 1059 q 482 1075 467 1059 q 498 1114 498 1091 q 482 1152 498 1135 q 444 1168 467 1168 q 406 1152 421 1168 q 390 1114 390 1135 q 406 1075 390 1091 q 444 1059 421 1059 m 628 1059 q 666 1075 650 1059 q 682 1114 682 1091 q 666 1152 682 1135 q 628 1168 650 1168 q 589 1152 605 1168 q 574 1114 574 1135 q 589 1075 574 1091 q 628 1059 605 1059 z "},"Ȫ":{"ha":1074,"x_min":60,"x_max":1015,"o":"m 60 490 q 100 282 60 374 q 209 124 140 189 q 364 25 278 60 q 541 -9 450 -9 q 735 30 648 -9 q 885 138 822 68 q 981 297 947 207 q 1015 490 1015 388 q 974 699 1015 606 q 865 856 934 791 q 710 955 796 920 q 533 989 624 989 q 339 950 426 989 q 189 842 252 911 q 93 684 127 774 q 60 490 60 593 m 212 497 q 244 751 212 640 q 348 924 277 861 q 533 987 418 987 q 669 950 608 987 q 773 847 730 913 q 840 688 817 780 q 863 484 863 595 q 830 230 863 340 q 727 56 798 119 q 541 -7 656 -7 q 405 29 465 -7 q 301 133 344 66 q 235 293 258 201 q 212 497 212 385 m 450 1072 q 485 1085 471 1072 q 498 1116 498 1097 q 485 1148 498 1135 q 450 1160 471 1160 l 448 1160 q 413 1148 427 1160 q 399 1116 399 1135 q 413 1085 399 1097 q 448 1072 427 1072 l 450 1072 m 623 1072 q 658 1085 644 1072 q 672 1116 672 1097 q 658 1148 672 1135 q 623 1160 644 1160 l 622 1160 q 587 1148 601 1160 q 573 1116 573 1135 q 587 1085 573 1097 q 622 1072 601 1072 l 623 1072 m 383 1226 l 689 1226 l 689 1276 l 383 1276 l 383 1226 z "},"Õ":{"ha":1074,"x_min":60,"x_max":1015,"o":"m 60 490 q 100 282 60 374 q 209 124 140 189 q 364 25 278 60 q 541 -9 450 -9 q 735 30 648 -9 q 885 138 822 68 q 981 297 947 207 q 1015 490 1015 388 q 974 699 1015 606 q 865 856 934 791 q 710 955 796 920 q 533 989 624 989 q 339 950 426 989 q 189 842 252 911 q 93 684 127 774 q 60 490 60 593 m 212 497 q 244 751 212 640 q 348 924 277 861 q 533 987 418 987 q 669 950 608 987 q 773 847 730 913 q 840 688 817 780 q 863 484 863 595 q 830 230 863 340 q 727 56 798 119 q 541 -7 656 -7 q 405 29 465 -7 q 301 133 344 66 q 235 293 258 201 q 212 497 212 385 m 600 1046 q 665 1077 641 1046 q 685 1190 690 1107 l 684 1190 q 668 1125 681 1142 q 637 1109 656 1109 q 610 1114 622 1109 q 578 1133 597 1120 l 558 1145 q 512 1172 532 1163 q 471 1180 492 1180 q 406 1150 430 1180 q 386 1037 381 1120 l 387 1037 q 402 1101 390 1085 q 434 1118 415 1118 q 461 1113 449 1118 q 493 1094 473 1107 l 513 1081 q 559 1055 538 1064 q 600 1046 579 1046 z "},"Ṍ":{"ha":1074,"x_min":60,"x_max":1015,"o":"m 60 490 q 100 282 60 374 q 209 124 140 189 q 364 25 278 60 q 541 -9 450 -9 q 735 30 648 -9 q 885 138 822 68 q 981 297 947 207 q 1015 490 1015 388 q 974 699 1015 606 q 865 856 934 791 q 710 955 796 920 q 533 989 624 989 q 339 950 426 989 q 189 842 252 911 q 93 684 127 774 q 60 490 60 593 m 212 497 q 244 751 212 640 q 348 924 277 861 q 533 987 418 987 q 669 950 608 987 q 773 847 730 913 q 840 688 817 780 q 863 484 863 595 q 830 230 863 340 q 727 56 798 119 q 541 -7 656 -7 q 405 29 465 -7 q 301 133 344 66 q 235 293 258 201 q 212 497 212 385 m 606 1078 q 668 1102 646 1078 q 689 1171 689 1126 l 688 1171 q 673 1134 688 1145 q 633 1124 658 1124 q 604 1127 619 1124 q 568 1137 588 1131 l 548 1143 q 509 1152 529 1148 q 466 1156 488 1156 q 405 1132 426 1156 q 383 1063 383 1108 l 384 1063 q 400 1100 385 1089 q 439 1110 414 1110 q 469 1107 453 1110 q 505 1097 484 1103 l 524 1091 q 563 1082 543 1086 q 606 1078 583 1078 m 688 1240 l 688 1311 l 382 1192 l 382 1192 l 688 1240 z "},"Ṏ":{"ha":1074,"x_min":60,"x_max":1015,"o":"m 60 490 q 100 282 60 374 q 209 124 140 189 q 364 25 278 60 q 541 -9 450 -9 q 735 30 648 -9 q 885 138 822 68 q 981 297 947 207 q 1015 490 1015 388 q 974 699 1015 606 q 865 856 934 791 q 710 955 796 920 q 533 989 624 989 q 339 950 426 989 q 189 842 252 911 q 93 684 127 774 q 60 490 60 593 m 212 497 q 244 751 212 640 q 348 924 277 861 q 533 987 418 987 q 669 950 608 987 q 773 847 730 913 q 840 688 817 780 q 863 484 863 595 q 830 230 863 340 q 727 56 798 119 q 541 -7 656 -7 q 405 29 465 -7 q 301 133 344 66 q 235 293 258 201 q 212 497 212 385 m 606 1078 q 668 1102 646 1078 q 689 1171 689 1126 l 688 1171 q 673 1134 688 1145 q 633 1124 658 1124 q 604 1127 619 1124 q 568 1137 588 1131 l 548 1143 q 509 1152 529 1148 q 466 1156 488 1156 q 405 1132 426 1156 q 383 1063 383 1108 l 384 1063 q 400 1100 385 1089 q 439 1110 414 1110 q 469 1107 453 1110 q 505 1097 484 1103 l 524 1091 q 563 1082 543 1086 q 606 1078 583 1078 m 450 1207 q 485 1220 471 1207 q 498 1251 498 1232 q 485 1283 498 1270 q 450 1295 471 1295 l 448 1295 q 413 1283 427 1295 q 399 1251 399 1270 q 413 1220 399 1232 q 448 1207 427 1207 l 450 1207 m 623 1207 q 658 1220 644 1207 q 672 1251 672 1232 q 658 1283 672 1270 q 623 1295 644 1295 l 622 1295 q 587 1283 601 1295 q 573 1251 573 1270 q 587 1220 573 1232 q 622 1207 601 1207 l 623 1207 z "},"Ȭ":{"ha":1074,"x_min":60,"x_max":1015,"o":"m 60 490 q 100 282 60 374 q 209 124 140 189 q 364 25 278 60 q 541 -9 450 -9 q 735 30 648 -9 q 885 138 822 68 q 981 297 947 207 q 1015 490 1015 388 q 974 699 1015 606 q 865 856 934 791 q 710 955 796 920 q 533 989 624 989 q 339 950 426 989 q 189 842 252 911 q 93 684 127 774 q 60 490 60 593 m 212 497 q 244 751 212 640 q 348 924 277 861 q 533 987 418 987 q 669 950 608 987 q 773 847 730 913 q 840 688 817 780 q 863 484 863 595 q 830 230 863 340 q 727 56 798 119 q 541 -7 656 -7 q 405 29 465 -7 q 301 133 344 66 q 235 293 258 201 q 212 497 212 385 m 606 1078 q 668 1102 646 1078 q 689 1171 689 1126 l 688 1171 q 673 1134 688 1145 q 633 1124 658 1124 q 604 1127 619 1124 q 568 1137 588 1131 l 548 1143 q 509 1152 529 1148 q 466 1156 488 1156 q 405 1132 426 1156 q 383 1063 383 1108 l 384 1063 q 400 1100 385 1089 q 439 1110 414 1110 q 469 1107 453 1110 q 505 1097 484 1103 l 524 1091 q 563 1082 543 1086 q 606 1078 583 1078 m 383 1226 l 689 1226 l 689 1276 l 383 1276 l 383 1226 z "},"Ō":{"ha":1074,"x_min":60,"x_max":1015,"o":"m 60 490 q 100 282 60 374 q 209 124 140 189 q 364 25 278 60 q 541 -9 450 -9 q 735 30 648 -9 q 885 138 822 68 q 981 297 947 207 q 1015 490 1015 388 q 974 699 1015 606 q 865 856 934 791 q 710 955 796 920 q 533 989 624 989 q 339 950 426 989 q 189 842 252 911 q 93 684 127 774 q 60 490 60 593 m 212 497 q 244 751 212 640 q 348 924 277 861 q 533 987 418 987 q 669 950 608 987 q 773 847 730 913 q 840 688 817 780 q 863 484 863 595 q 830 230 863 340 q 727 56 798 119 q 541 -7 656 -7 q 405 29 465 -7 q 301 133 344 66 q 235 293 258 201 q 212 497 212 385 m 396 1073 l 676 1073 l 676 1131 l 396 1131 l 396 1073 z "},"Ṓ":{"ha":1074,"x_min":60,"x_max":1015,"o":"m 60 490 q 100 282 60 374 q 209 124 140 189 q 364 25 278 60 q 541 -9 450 -9 q 735 30 648 -9 q 885 138 822 68 q 981 297 947 207 q 1015 490 1015 388 q 974 699 1015 606 q 865 856 934 791 q 710 955 796 920 q 533 989 624 989 q 339 950 426 989 q 189 842 252 911 q 93 684 127 774 q 60 490 60 593 m 212 497 q 244 751 212 640 q 348 924 277 861 q 533 987 418 987 q 669 950 608 987 q 773 847 730 913 q 840 688 817 780 q 863 484 863 595 q 830 230 863 340 q 727 56 798 119 q 541 -7 656 -7 q 405 29 465 -7 q 301 133 344 66 q 235 293 258 201 q 212 497 212 385 m 383 1092 l 689 1092 l 689 1141 l 383 1141 l 383 1092 m 688 1241 l 688 1312 l 382 1193 l 382 1192 l 688 1241 z "},"Ṑ":{"ha":1074,"x_min":60,"x_max":1015,"o":"m 60 490 q 100 282 60 374 q 209 124 140 189 q 364 25 278 60 q 541 -9 450 -9 q 735 30 648 -9 q 885 138 822 68 q 981 297 947 207 q 1015 490 1015 388 q 974 699 1015 606 q 865 856 934 791 q 710 955 796 920 q 533 989 624 989 q 339 950 426 989 q 189 842 252 911 q 93 684 127 774 q 60 490 60 593 m 212 497 q 244 751 212 640 q 348 924 277 861 q 533 987 418 987 q 669 950 608 987 q 773 847 730 913 q 840 688 817 780 q 863 484 863 595 q 830 230 863 340 q 727 56 798 119 q 541 -7 656 -7 q 405 29 465 -7 q 301 133 344 66 q 235 293 258 201 q 212 497 212 385 m 383 1092 l 689 1092 l 689 1141 l 383 1141 l 383 1092 m 383 1241 l 689 1192 l 689 1193 l 383 1312 l 383 1241 z "},"Ỏ":{"ha":1074,"x_min":60,"x_max":1015,"o":"m 60 490 q 100 282 60 374 q 209 124 140 189 q 364 25 278 60 q 541 -9 450 -9 q 735 30 648 -9 q 885 138 822 68 q 981 297 947 207 q 1015 490 1015 388 q 974 699 1015 606 q 865 856 934 791 q 710 955 796 920 q 533 989 624 989 q 339 950 426 989 q 189 842 252 911 q 93 684 127 774 q 60 490 60 593 m 212 497 q 244 751 212 640 q 348 924 277 861 q 533 987 418 987 q 669 950 608 987 q 773 847 730 913 q 840 688 817 780 q 863 484 863 595 q 830 230 863 340 q 727 56 798 119 q 541 -7 656 -7 q 405 29 465 -7 q 301 133 344 66 q 235 293 258 201 q 212 497 212 385 m 548 1227 q 481 1206 509 1227 q 439 1152 453 1185 l 440 1151 q 468 1173 452 1164 q 505 1181 485 1181 q 553 1166 536 1181 q 571 1129 571 1152 q 554 1078 571 1102 q 505 1035 536 1055 l 507 1035 q 606 1095 578 1065 q 634 1158 634 1125 q 609 1207 634 1188 q 548 1227 584 1227 z "},"Ȯ":{"ha":1074,"x_min":60,"x_max":1015,"o":"m 60 490 q 100 282 60 374 q 209 124 140 189 q 364 25 278 60 q 541 -9 450 -9 q 735 30 648 -9 q 885 138 822 68 q 981 297 947 207 q 1015 490 1015 388 q 974 699 1015 606 q 865 856 934 791 q 710 955 796 920 q 533 989 624 989 q 339 950 426 989 q 189 842 252 911 q 93 684 127 774 q 60 490 60 593 m 212 497 q 244 751 212 640 q 348 924 277 861 q 533 987 418 987 q 669 950 608 987 q 773 847 730 913 q 840 688 817 780 q 863 484 863 595 q 830 230 863 340 q 727 56 798 119 q 541 -7 656 -7 q 405 29 465 -7 q 301 133 344 66 q 235 293 258 201 q 212 497 212 385 m 536 1057 q 576 1074 559 1057 q 592 1113 592 1090 q 576 1152 592 1135 q 536 1168 559 1168 q 496 1152 513 1168 q 479 1113 479 1135 q 496 1074 479 1090 q 536 1057 513 1057 z "},"Ȱ":{"ha":1074,"x_min":60,"x_max":1015,"o":"m 60 490 q 100 282 60 374 q 209 124 140 189 q 364 25 278 60 q 541 -9 450 -9 q 735 30 648 -9 q 885 138 822 68 q 981 297 947 207 q 1015 490 1015 388 q 974 699 1015 606 q 865 856 934 791 q 710 955 796 920 q 533 989 624 989 q 339 950 426 989 q 189 842 252 911 q 93 684 127 774 q 60 490 60 593 m 212 497 q 244 751 212 640 q 348 924 277 861 q 533 987 418 987 q 669 950 608 987 q 773 847 730 913 q 840 688 817 780 q 863 484 863 595 q 830 230 863 340 q 727 56 798 119 q 541 -7 656 -7 q 405 29 465 -7 q 301 133 344 66 q 235 293 258 201 q 212 497 212 385 m 536 1072 q 572 1084 557 1072 q 587 1116 587 1097 q 572 1148 587 1135 q 536 1161 557 1161 q 499 1148 514 1161 q 484 1116 484 1135 q 499 1084 484 1097 q 536 1072 514 1072 m 383 1213 l 689 1213 l 689 1263 l 383 1263 l 383 1213 z "},"Ọ":{"ha":1074,"x_min":60,"x_max":1015,"o":"m 60 490 q 100 282 60 374 q 209 124 140 189 q 364 25 278 60 q 541 -9 450 -9 q 735 30 648 -9 q 885 138 822 68 q 981 297 947 207 q 1015 490 1015 388 q 974 699 1015 606 q 865 856 934 791 q 710 955 796 920 q 533 989 624 989 q 339 950 426 989 q 189 842 252 911 q 93 684 127 774 q 60 490 60 593 m 212 497 q 244 751 212 640 q 348 924 277 861 q 533 987 418 987 q 669 950 608 987 q 773 847 730 913 q 840 688 817 780 q 863 484 863 595 q 830 230 863 340 q 727 56 798 119 q 541 -7 656 -7 q 405 29 465 -7 q 301 133 344 66 q 235 293 258 201 q 212 497 212 385 m 543 -132 q 503 -148 519 -132 q 486 -187 486 -165 q 503 -226 486 -210 q 543 -243 519 -243 q 583 -226 566 -243 q 599 -187 599 -210 q 583 -148 599 -165 q 543 -132 566 -132 z "},"Ǫ":{"ha":1074,"x_min":60,"x_max":1015,"o":"m 60 490 q 100 282 60 374 q 209 124 140 189 q 364 25 278 60 q 541 -9 450 -9 q 735 30 648 -9 q 885 138 822 68 q 981 297 947 207 q 1015 490 1015 388 q 974 699 1015 606 q 865 856 934 791 q 710 955 796 920 q 533 989 624 989 q 339 950 426 989 q 189 842 252 911 q 93 684 127 774 q 60 490 60 593 m 212 497 q 244 751 212 640 q 348 924 277 861 q 533 987 418 987 q 669 950 608 987 q 773 847 730 913 q 840 688 817 780 q 863 484 863 595 q 830 230 863 340 q 727 56 798 119 q 541 -7 656 -7 q 405 29 465 -7 q 301 133 344 66 q 235 293 258 201 q 212 497 212 385 m 550 -317 q 618 -296 588 -317 q 659 -239 648 -275 l 658 -239 q 637 -259 650 -251 q 608 -268 625 -268 q 550 -229 574 -268 q 526 -136 526 -189 q 555 -8 526 -53 l 554 -8 q 470 -102 500 -53 q 440 -208 440 -152 q 471 -286 440 -255 q 550 -317 502 -317 z "},"Ǭ":{"ha":1074,"x_min":60,"x_max":1015,"o":"m 60 490 q 100 282 60 374 q 209 124 140 189 q 364 25 278 60 q 541 -9 450 -9 q 735 30 648 -9 q 885 138 822 68 q 981 297 947 207 q 1015 490 1015 388 q 974 699 1015 606 q 865 856 934 791 q 710 955 796 920 q 533 989 624 989 q 339 950 426 989 q 189 842 252 911 q 93 684 127 774 q 60 490 60 593 m 212 497 q 244 751 212 640 q 348 924 277 861 q 533 987 418 987 q 669 950 608 987 q 773 847 730 913 q 840 688 817 780 q 863 484 863 595 q 830 230 863 340 q 727 56 798 119 q 541 -7 656 -7 q 405 29 465 -7 q 301 133 344 66 q 235 293 258 201 q 212 497 212 385 m 550 -317 q 618 -296 588 -317 q 659 -239 648 -275 l 658 -239 q 637 -259 650 -251 q 608 -268 625 -268 q 550 -229 574 -268 q 526 -136 526 -189 q 555 -8 526 -53 l 554 -8 q 470 -102 500 -53 q 440 -208 440 -152 q 471 -286 440 -255 q 550 -317 502 -317 m 396 1073 l 676 1073 l 676 1131 l 396 1131 l 396 1073 z "},"Ơ":{"ha":1085,"x_min":60,"x_max":1015,"o":"m 60 490 q 100 282 60 374 q 209 124 140 189 q 364 25 278 60 q 541 -9 450 -9 q 735 30 648 -9 q 885 138 822 68 q 981 297 947 207 q 1015 490 1015 388 q 965 718 1015 618 q 834 882 916 817 q 655 973 753 947 l 655 972 q 704 965 675 969 q 764 961 733 961 q 866 974 822 961 q 935 1013 910 987 q 960 1075 960 1038 q 927 1154 960 1121 q 846 1197 895 1186 l 845 1197 q 863 1164 855 1186 q 870 1114 870 1142 q 823 1013 870 1054 q 682 972 775 972 q 613 981 648 972 q 533 989 577 989 q 339 950 426 989 q 189 842 252 911 q 93 684 127 774 q 60 490 60 593 m 212 497 q 244 751 212 640 q 348 924 277 861 q 533 987 418 987 q 669 950 608 987 q 773 847 730 913 q 840 688 817 780 q 863 484 863 595 q 830 230 863 340 q 727 56 798 119 q 541 -7 656 -7 q 405 29 465 -7 q 301 133 344 66 q 235 293 258 201 q 212 497 212 385 z "},"Ớ":{"ha":1085,"x_min":60,"x_max":1015,"o":"m 60 490 q 100 282 60 374 q 209 124 140 189 q 364 25 278 60 q 541 -9 450 -9 q 735 30 648 -9 q 885 138 822 68 q 981 297 947 207 q 1015 490 1015 388 q 965 718 1015 618 q 834 882 916 817 q 655 973 753 947 l 655 972 q 704 965 675 969 q 764 961 733 961 q 866 974 822 961 q 935 1013 910 987 q 960 1075 960 1038 q 927 1154 960 1121 q 846 1197 895 1186 l 845 1197 q 863 1164 855 1186 q 870 1114 870 1142 q 823 1013 870 1054 q 682 972 775 972 q 613 981 648 972 q 533 989 577 989 q 339 950 426 989 q 189 842 252 911 q 93 684 127 774 q 60 490 60 593 m 212 497 q 244 751 212 640 q 348 924 277 861 q 533 987 418 987 q 669 950 608 987 q 773 847 730 913 q 840 688 817 780 q 863 484 863 595 q 830 230 863 340 q 727 56 798 119 q 541 -7 656 -7 q 405 29 465 -7 q 301 133 344 66 q 235 293 258 201 q 212 497 212 385 m 513 1025 l 711 1198 l 711 1199 l 585 1199 l 511 1025 l 513 1025 z "},"Ờ":{"ha":1085,"x_min":60,"x_max":1015,"o":"m 60 490 q 100 282 60 374 q 209 124 140 189 q 364 25 278 60 q 541 -9 450 -9 q 735 30 648 -9 q 885 138 822 68 q 981 297 947 207 q 1015 490 1015 388 q 965 718 1015 618 q 834 882 916 817 q 655 973 753 947 l 655 972 q 704 965 675 969 q 764 961 733 961 q 866 974 822 961 q 935 1013 910 987 q 960 1075 960 1038 q 927 1154 960 1121 q 846 1197 895 1186 l 845 1197 q 863 1164 855 1186 q 870 1114 870 1142 q 823 1013 870 1054 q 682 972 775 972 q 613 981 648 972 q 533 989 577 989 q 339 950 426 989 q 189 842 252 911 q 93 684 127 774 q 60 490 60 593 m 212 497 q 244 751 212 640 q 348 924 277 861 q 533 987 418 987 q 669 950 608 987 q 773 847 730 913 q 840 688 817 780 q 863 484 863 595 q 830 230 863 340 q 727 56 798 119 q 541 -7 656 -7 q 405 29 465 -7 q 301 133 344 66 q 235 293 258 201 q 212 497 212 385 m 565 1025 l 566 1025 l 495 1200 l 363 1200 l 363 1198 l 565 1025 z "},"Ỡ":{"ha":1085,"x_min":60,"x_max":1015,"o":"m 60 490 q 100 282 60 374 q 209 124 140 189 q 364 25 278 60 q 541 -9 450 -9 q 735 30 648 -9 q 885 138 822 68 q 981 297 947 207 q 1015 490 1015 388 q 965 718 1015 618 q 834 882 916 817 q 655 973 753 947 l 655 972 q 704 965 675 969 q 764 961 733 961 q 866 974 822 961 q 935 1013 910 987 q 960 1075 960 1038 q 927 1154 960 1121 q 846 1197 895 1186 l 845 1197 q 863 1164 855 1186 q 870 1114 870 1142 q 823 1013 870 1054 q 682 972 775 972 q 613 981 648 972 q 533 989 577 989 q 339 950 426 989 q 189 842 252 911 q 93 684 127 774 q 60 490 60 593 m 212 497 q 244 751 212 640 q 348 924 277 861 q 533 987 418 987 q 669 950 608 987 q 773 847 730 913 q 840 688 817 780 q 863 484 863 595 q 830 230 863 340 q 727 56 798 119 q 541 -7 656 -7 q 405 29 465 -7 q 301 133 344 66 q 235 293 258 201 q 212 497 212 385 m 597 1046 q 663 1076 638 1046 q 682 1189 687 1107 l 682 1189 q 666 1125 678 1141 q 634 1108 653 1108 q 607 1114 619 1108 q 575 1132 595 1119 l 555 1145 q 509 1171 530 1162 q 468 1179 489 1179 q 403 1149 427 1179 q 383 1036 378 1119 l 384 1036 q 400 1101 387 1084 q 431 1117 412 1117 q 458 1112 446 1117 q 490 1093 471 1107 l 510 1080 q 556 1055 536 1063 q 597 1046 576 1046 z "},"Ở":{"ha":1085,"x_min":60,"x_max":1015,"o":"m 60 490 q 100 282 60 374 q 209 124 140 189 q 364 25 278 60 q 541 -9 450 -9 q 735 30 648 -9 q 885 138 822 68 q 981 297 947 207 q 1015 490 1015 388 q 965 718 1015 618 q 834 882 916 817 q 655 973 753 947 l 655 972 q 704 965 675 969 q 764 961 733 961 q 866 974 822 961 q 935 1013 910 987 q 960 1075 960 1038 q 927 1154 960 1121 q 846 1197 895 1186 l 845 1197 q 863 1164 855 1186 q 870 1114 870 1142 q 823 1013 870 1054 q 682 972 775 972 q 613 981 648 972 q 533 989 577 989 q 339 950 426 989 q 189 842 252 911 q 93 684 127 774 q 60 490 60 593 m 212 497 q 244 751 212 640 q 348 924 277 861 q 533 987 418 987 q 669 950 608 987 q 773 847 730 913 q 840 688 817 780 q 863 484 863 595 q 830 230 863 340 q 727 56 798 119 q 541 -7 656 -7 q 405 29 465 -7 q 301 133 344 66 q 235 293 258 201 q 212 497 212 385 m 545 1226 q 478 1205 507 1226 q 437 1151 450 1184 l 437 1150 q 466 1172 449 1164 q 503 1180 482 1180 q 551 1165 533 1180 q 568 1128 568 1151 q 551 1078 568 1101 q 503 1034 534 1054 l 504 1034 q 604 1094 576 1064 q 631 1157 631 1124 q 606 1207 631 1187 q 545 1226 581 1226 z "},"Ợ":{"ha":1085,"x_min":60,"x_max":1015,"o":"m 60 490 q 100 282 60 374 q 209 124 140 189 q 364 25 278 60 q 541 -9 450 -9 q 735 30 648 -9 q 885 138 822 68 q 981 297 947 207 q 1015 490 1015 388 q 965 718 1015 618 q 834 882 916 817 q 655 973 753 947 l 655 972 q 704 965 675 969 q 764 961 733 961 q 866 974 822 961 q 935 1013 910 987 q 960 1075 960 1038 q 927 1154 960 1121 q 846 1197 895 1186 l 845 1197 q 863 1164 855 1186 q 870 1114 870 1142 q 823 1013 870 1054 q 682 972 775 972 q 613 981 648 972 q 533 989 577 989 q 339 950 426 989 q 189 842 252 911 q 93 684 127 774 q 60 490 60 593 m 212 497 q 244 751 212 640 q 348 924 277 861 q 533 987 418 987 q 669 950 608 987 q 773 847 730 913 q 840 688 817 780 q 863 484 863 595 q 830 230 863 340 q 727 56 798 119 q 541 -7 656 -7 q 405 29 465 -7 q 301 133 344 66 q 235 293 258 201 q 212 497 212 385 m 545 -132 q 506 -148 522 -132 q 489 -187 489 -165 q 506 -226 489 -210 q 545 -243 522 -243 q 585 -226 569 -243 q 602 -187 602 -210 q 585 -148 602 -165 q 545 -132 569 -132 z "},"Ø":{"ha":1074,"x_min":60,"x_max":1015,"o":"m 60 490 q 100 282 60 374 q 209 124 140 189 q 364 25 278 60 q 541 -9 450 -9 q 735 30 648 -9 q 885 138 822 68 q 981 297 947 207 q 1015 490 1015 388 q 974 699 1015 606 q 865 856 934 791 q 710 955 796 920 q 533 989 624 989 q 339 950 426 989 q 189 842 252 911 q 93 684 127 774 q 60 490 60 593 m 212 497 q 244 751 212 640 q 348 924 277 861 q 533 987 418 987 q 669 950 608 987 q 773 847 730 913 q 840 688 817 780 q 863 484 863 595 q 830 230 863 340 q 727 56 798 119 q 541 -7 656 -7 q 405 29 465 -7 q 301 133 344 66 q 235 293 258 201 q 212 497 212 385 m 941 968 l 129 14 l 133 10 l 945 965 l 941 968 z "},"Ǿ":{"ha":1074,"x_min":60,"x_max":1015,"o":"m 60 490 q 100 282 60 374 q 209 124 140 189 q 364 25 278 60 q 541 -9 450 -9 q 735 30 648 -9 q 885 138 822 68 q 981 297 947 207 q 1015 490 1015 388 q 974 699 1015 606 q 865 856 934 791 q 710 955 796 920 q 533 989 624 989 q 339 950 426 989 q 189 842 252 911 q 93 684 127 774 q 60 490 60 593 m 212 497 q 244 751 212 640 q 348 924 277 861 q 533 987 418 987 q 669 950 608 987 q 773 847 730 913 q 840 688 817 780 q 863 484 863 595 q 830 230 863 340 q 727 56 798 119 q 541 -7 656 -7 q 405 29 465 -7 q 301 133 344 66 q 235 293 258 201 q 212 497 212 385 m 941 968 l 129 14 l 133 10 l 945 965 l 941 968 m 515 1025 l 714 1198 l 714 1199 l 588 1199 l 514 1025 l 515 1025 z "},"P":{"ha":768,"x_min":31,"x_max":732,"o":"m 732 707 q 628 907 732 834 q 321 979 524 979 l 31 979 l 31 979 q 80 963 63 972 q 103 937 97 954 q 110 891 110 921 l 110 88 q 103 42 110 59 q 80 17 97 26 q 31 1 63 8 l 31 0 l 330 0 l 330 1 q 275 17 294 7 q 251 47 257 28 q 245 99 245 66 l 245 419 l 321 419 q 476 436 402 419 q 608 489 550 454 q 699 578 665 524 q 732 707 732 633 m 586 702 q 557 566 586 629 q 468 464 529 503 q 311 422 408 425 l 245 420 l 245 979 l 311 977 q 470 935 410 973 q 558 836 531 897 q 586 702 586 774 z "},"Ṕ":{"ha":768,"x_min":31,"x_max":732,"o":"m 732 707 q 628 907 732 834 q 321 979 524 979 l 31 979 l 31 979 q 80 963 63 972 q 103 937 97 954 q 110 891 110 921 l 110 88 q 103 42 110 59 q 80 17 97 26 q 31 1 63 8 l 31 0 l 330 0 l 330 1 q 275 17 294 7 q 251 47 257 28 q 245 99 245 66 l 245 419 l 321 419 q 476 436 402 419 q 608 489 550 454 q 699 578 665 524 q 732 707 732 633 m 586 702 q 557 566 586 629 q 468 464 529 503 q 311 422 408 425 l 245 420 l 245 979 l 311 977 q 470 935 410 973 q 558 836 531 897 q 586 702 586 774 m 330 1025 l 528 1198 l 528 1200 l 402 1200 l 328 1025 l 330 1025 z "},"Ṗ":{"ha":768,"x_min":31,"x_max":732,"o":"m 732 707 q 628 907 732 834 q 321 979 524 979 l 31 979 l 31 979 q 80 963 63 972 q 103 937 97 954 q 110 891 110 921 l 110 88 q 103 42 110 59 q 80 17 97 26 q 31 1 63 8 l 31 0 l 330 0 l 330 1 q 275 17 294 7 q 251 47 257 28 q 245 99 245 66 l 245 419 l 321 419 q 476 436 402 419 q 608 489 550 454 q 699 578 665 524 q 732 707 732 633 m 586 702 q 557 566 586 629 q 468 464 529 503 q 311 422 408 425 l 245 420 l 245 979 l 311 977 q 470 935 410 973 q 558 836 531 897 q 586 702 586 774 m 350 1057 q 390 1074 374 1057 q 406 1113 406 1090 q 390 1152 406 1135 q 350 1168 374 1168 q 310 1152 327 1168 q 294 1113 294 1135 q 310 1074 294 1090 q 350 1057 327 1057 z "},"Q":{"ha":1074,"x_min":60,"x_max":1015,"o":"m 60 490 q 100 282 60 374 q 209 124 140 189 q 364 25 278 60 q 541 -9 450 -9 q 735 30 648 -9 q 885 138 822 68 q 981 297 947 207 q 1015 490 1015 388 q 974 699 1015 606 q 865 856 934 791 q 710 955 796 920 q 533 989 624 989 q 339 950 426 989 q 189 842 252 911 q 93 684 127 774 q 60 490 60 593 m 212 497 q 244 751 212 640 q 348 924 277 861 q 533 987 418 987 q 669 950 608 987 q 774 847 730 913 q 840 688 817 780 q 863 484 863 595 q 830 230 863 340 q 726 56 797 119 q 541 -7 656 -7 q 405 29 465 -7 q 301 133 344 66 q 235 293 258 201 q 212 497 212 385 m 833 -221 q 922 -204 880 -221 q 997 -160 964 -186 l 997 -159 q 887 -161 941 -176 q 763 -94 833 -146 l 635 3 q 591 -6 620 -3 q 541 -9 562 -9 q 520 -8 532 -9 q 496 -5 508 -7 q 475 -2 484 -3 l 593 -102 q 683 -171 644 -145 q 758 -209 722 -197 q 833 -221 793 -221 z "},"R":{"ha":822,"x_min":31,"x_max":819,"o":"m 723 720 q 678 858 723 800 q 544 948 633 916 q 324 979 456 979 l 31 979 l 31 979 q 80 964 63 973 q 103 939 97 956 q 110 891 110 922 l 110 88 q 103 44 110 60 q 80 19 97 28 q 31 1 63 9 l 31 0 l 321 0 l 321 1 q 275 18 291 9 q 252 41 258 26 q 245 83 245 56 l 245 469 l 393 469 l 629 0 l 819 0 l 819 1 q 782 22 800 7 q 738 75 763 37 q 675 187 713 113 l 512 505 l 512 490 q 621 535 574 503 q 696 614 669 567 q 723 720 723 661 m 582 714 q 511 536 582 597 q 332 472 441 475 l 245 469 l 245 979 l 311 977 q 473 936 414 973 q 557 839 532 898 q 582 714 582 781 z "},"Ŕ":{"ha":822,"x_min":31,"x_max":819,"o":"m 723 720 q 678 858 723 800 q 544 948 633 916 q 324 979 456 979 l 31 979 l 31 979 q 80 964 63 973 q 103 939 97 956 q 110 891 110 922 l 110 88 q 103 44 110 60 q 80 19 97 28 q 31 1 63 9 l 31 0 l 321 0 l 321 1 q 275 18 291 9 q 252 41 258 26 q 245 83 245 56 l 245 469 l 393 469 l 629 0 l 819 0 l 819 1 q 782 22 800 7 q 738 75 763 37 q 675 187 713 113 l 512 505 l 512 490 q 621 535 574 503 q 696 614 669 567 q 723 720 723 661 m 582 714 q 511 536 582 597 q 332 472 441 475 l 245 469 l 245 979 l 311 977 q 473 936 414 973 q 557 839 532 898 q 582 714 582 781 m 361 1025 l 560 1198 l 560 1200 l 434 1200 l 360 1025 l 361 1025 z "},"Ȑ":{"ha":822,"x_min":31,"x_max":819,"o":"m 723 720 q 678 858 723 800 q 544 948 633 916 q 324 979 456 979 l 31 979 l 31 979 q 80 964 63 973 q 103 939 97 956 q 110 891 110 922 l 110 88 q 103 44 110 60 q 80 19 97 28 q 31 1 63 9 l 31 0 l 321 0 l 321 1 q 275 18 291 9 q 252 41 258 26 q 245 83 245 56 l 245 469 l 393 469 l 629 0 l 819 0 l 819 1 q 782 22 800 7 q 738 75 763 37 q 675 187 713 113 l 512 505 l 512 490 q 621 535 574 503 q 696 614 669 567 q 723 720 723 661 m 582 714 q 511 536 582 597 q 332 472 441 475 l 245 469 l 245 979 l 311 977 q 473 936 414 973 q 557 839 532 898 q 582 714 582 781 m 253 1200 l 132 1200 l 132 1199 l 332 1025 l 334 1025 l 253 1200 m 443 1200 l 328 1200 l 328 1199 l 492 1025 l 493 1025 l 443 1200 z "},"Ř":{"ha":822,"x_min":31,"x_max":819,"o":"m 723 720 q 678 858 723 800 q 544 948 633 916 q 324 979 456 979 l 31 979 l 31 979 q 80 964 63 973 q 103 939 97 956 q 110 891 110 922 l 110 88 q 103 44 110 60 q 80 19 97 28 q 31 1 63 9 l 31 0 l 321 0 l 321 1 q 275 18 291 9 q 252 41 258 26 q 245 83 245 56 l 245 469 l 393 469 l 629 0 l 819 0 l 819 1 q 782 22 800 7 q 738 75 763 37 q 675 187 713 113 l 512 505 l 512 490 q 621 535 574 503 q 696 614 669 567 q 723 720 723 661 m 582 714 q 511 536 582 597 q 332 472 441 475 l 245 469 l 245 979 l 311 977 q 473 936 414 973 q 557 839 532 898 q 582 714 582 781 m 534 1223 l 359 1109 l 414 1109 l 241 1223 l 239 1223 l 368 1048 l 406 1048 l 534 1223 q 534 1223 534 1223 q 534 1223 534 1223 z "},"Ȓ":{"ha":822,"x_min":31,"x_max":819,"o":"m 723 720 q 678 858 723 800 q 544 948 633 916 q 324 979 456 979 l 31 979 l 31 979 q 80 964 63 973 q 103 939 97 956 q 110 891 110 922 l 110 88 q 103 44 110 60 q 80 19 97 28 q 31 1 63 9 l 31 0 l 321 0 l 321 1 q 275 18 291 9 q 252 41 258 26 q 245 83 245 56 l 245 469 l 393 469 l 629 0 l 819 0 l 819 1 q 782 22 800 7 q 738 75 763 37 q 675 187 713 113 l 512 505 l 512 490 q 621 535 574 503 q 696 614 669 567 q 723 720 723 661 m 582 714 q 511 536 582 597 q 332 472 441 475 l 245 469 l 245 979 l 311 977 q 473 936 414 973 q 557 839 532 898 q 582 714 582 781 m 380 1250 q 306 1229 337 1250 q 259 1174 275 1208 q 242 1101 242 1140 q 244 1072 242 1086 l 245 1072 q 245 1072 245 1072 q 245 1072 245 1072 q 263 1131 245 1106 q 313 1168 282 1155 q 381 1181 344 1181 q 449 1168 418 1181 q 499 1131 480 1155 q 517 1072 517 1106 q 517 1072 517 1072 q 517 1072 517 1072 l 518 1072 q 520 1101 520 1086 q 503 1174 520 1140 q 455 1229 486 1208 q 380 1250 424 1250 z "},"Ṟ":{"ha":822,"x_min":31,"x_max":819,"o":"m 723 720 q 678 858 723 800 q 544 948 633 916 q 324 979 456 979 l 31 979 l 31 979 q 80 964 63 973 q 103 939 97 956 q 110 891 110 922 l 110 88 q 103 44 110 60 q 80 19 97 28 q 31 1 63 9 l 31 0 l 321 0 l 321 1 q 275 18 291 9 q 252 41 258 26 q 245 83 245 56 l 245 469 l 393 469 l 629 0 l 819 0 l 819 1 q 782 22 800 7 q 738 75 763 37 q 675 187 713 113 l 512 505 l 512 490 q 621 535 574 503 q 696 614 669 567 q 723 720 723 661 m 582 714 q 511 536 582 597 q 332 472 441 475 l 245 469 l 245 979 l 311 977 q 473 936 414 973 q 557 839 532 898 q 582 714 582 781 z "},"Ṙ":{"ha":822,"x_min":31,"x_max":819,"o":"m 723 720 q 678 858 723 800 q 544 948 633 916 q 324 979 456 979 l 31 979 l 31 979 q 80 964 63 973 q 103 939 97 956 q 110 891 110 922 l 110 88 q 103 44 110 60 q 80 19 97 28 q 31 1 63 9 l 31 0 l 321 0 l 321 1 q 275 18 291 9 q 252 41 258 26 q 245 83 245 56 l 245 469 l 393 469 l 629 0 l 819 0 l 819 1 q 782 22 800 7 q 738 75 763 37 q 675 187 713 113 l 512 505 l 512 490 q 621 535 574 503 q 696 614 669 567 q 723 720 723 661 m 582 714 q 511 536 582 597 q 332 472 441 475 l 245 469 l 245 979 l 311 977 q 473 936 414 973 q 557 839 532 898 q 582 714 582 781 m 382 1057 q 422 1074 406 1057 q 438 1113 438 1090 q 422 1152 438 1135 q 382 1168 406 1168 q 342 1152 359 1168 q 326 1113 326 1135 q 342 1074 326 1090 q 382 1057 359 1057 z "},"Ṛ":{"ha":822,"x_min":31,"x_max":819,"o":"m 723 720 q 678 858 723 800 q 544 948 633 916 q 324 979 456 979 l 31 979 l 31 979 q 80 964 63 973 q 103 939 97 956 q 110 891 110 922 l 110 88 q 103 44 110 60 q 80 19 97 28 q 31 1 63 9 l 31 0 l 321 0 l 321 1 q 275 18 291 9 q 252 41 258 26 q 245 83 245 56 l 245 469 l 393 469 l 629 0 l 819 0 l 819 1 q 782 22 800 7 q 738 75 763 37 q 675 187 713 113 l 512 505 l 512 490 q 621 535 574 503 q 696 614 669 567 q 723 720 723 661 m 582 714 q 511 536 582 597 q 332 472 441 475 l 245 469 l 245 979 l 311 977 q 473 936 414 973 q 557 839 532 898 q 582 714 582 781 m 382 -132 q 342 -148 359 -132 q 326 -187 326 -165 q 342 -226 326 -210 q 382 -243 359 -243 q 422 -226 406 -243 q 438 -187 438 -210 q 422 -148 438 -165 q 382 -132 406 -132 z "},"Ṝ":{"ha":822,"x_min":31,"x_max":819,"o":"m 723 720 q 678 858 723 800 q 544 948 633 916 q 324 979 456 979 l 31 979 l 31 979 q 80 964 63 973 q 103 939 97 956 q 110 891 110 922 l 110 88 q 103 44 110 60 q 80 19 97 28 q 31 1 63 9 l 31 0 l 321 0 l 321 1 q 275 18 291 9 q 252 41 258 26 q 245 83 245 56 l 245 469 l 393 469 l 629 0 l 819 0 l 819 1 q 782 22 800 7 q 738 75 763 37 q 675 187 713 113 l 512 505 l 512 490 q 621 535 574 503 q 696 614 669 567 q 723 720 723 661 m 582 714 q 511 536 582 597 q 332 472 441 475 l 245 469 l 245 979 l 311 977 q 473 936 414 973 q 557 839 532 898 q 582 714 582 781 m 382 -132 q 342 -148 359 -132 q 326 -187 326 -165 q 342 -226 326 -210 q 382 -243 359 -243 q 422 -226 406 -243 q 438 -187 438 -210 q 422 -148 438 -165 q 382 -132 406 -132 m 242 1073 l 522 1073 l 522 1131 l 242 1131 l 242 1073 z "},"Ŗ":{"ha":822,"x_min":31,"x_max":819,"o":"m 723 720 q 678 858 723 800 q 544 948 633 916 q 324 979 456 979 l 31 979 l 31 979 q 80 964 63 973 q 103 939 97 956 q 110 891 110 922 l 110 88 q 103 44 110 60 q 80 19 97 28 q 31 1 63 9 l 31 0 l 321 0 l 321 1 q 275 18 291 9 q 252 41 258 26 q 245 83 245 56 l 245 469 l 393 469 l 629 0 l 819 0 l 819 1 q 782 22 800 7 q 738 75 763 37 q 675 187 713 113 l 512 505 l 512 490 q 621 535 574 503 q 696 614 669 567 q 723 720 723 661 m 582 714 q 511 536 582 597 q 332 472 441 475 l 245 469 l 245 979 l 311 977 q 473 936 414 973 q 557 839 532 898 q 582 714 582 781 m 382 -283 q 469 -256 434 -283 q 505 -186 505 -229 q 473 -116 505 -142 q 394 -91 441 -91 q 332 -110 355 -91 q 294 -149 309 -129 l 294 -150 q 314 -143 301 -146 q 341 -140 328 -140 q 391 -154 372 -140 q 411 -193 411 -168 q 392 -231 411 -216 q 342 -245 373 -245 q 294 -234 317 -245 q 256 -208 271 -223 l 256 -209 q 303 -261 268 -239 q 382 -283 338 -283 z "},"S":{"ha":735,"x_min":60,"x_max":681,"o":"m 364 -9 q 518 25 446 -9 q 636 122 591 59 q 681 270 681 184 q 621 439 681 368 q 450 555 560 510 l 375 587 q 229 676 283 625 q 175 808 175 727 q 225 937 175 887 q 374 987 276 987 q 486 957 438 987 q 568 870 534 926 q 623 734 602 814 l 624 734 l 614 938 q 529 972 588 956 q 374 989 470 989 q 229 963 299 989 q 113 882 158 937 q 68 739 68 827 q 126 571 68 641 q 295 456 185 500 l 373 425 q 525 332 475 384 q 574 201 574 279 q 513 47 574 102 q 364 -7 453 -7 q 262 10 310 -7 q 174 62 214 27 q 106 152 135 98 q 60 279 77 205 l 60 279 l 71 54 q 184 10 113 29 q 364 -9 256 -9 z "},"Ś":{"ha":735,"x_min":60,"x_max":681,"o":"m 364 -9 q 518 25 446 -9 q 636 122 591 59 q 681 270 681 184 q 621 439 681 368 q 450 555 560 510 l 375 587 q 229 676 283 625 q 175 808 175 727 q 225 937 175 887 q 374 987 276 987 q 486 957 438 987 q 568 870 534 926 q 623 734 602 814 l 624 734 l 614 938 q 529 972 588 956 q 374 989 470 989 q 229 963 299 989 q 113 882 158 937 q 68 739 68 827 q 126 571 68 641 q 295 456 185 500 l 373 425 q 525 332 475 384 q 574 201 574 279 q 513 47 574 102 q 364 -7 453 -7 q 262 10 310 -7 q 174 62 214 27 q 106 152 135 98 q 60 279 77 205 l 60 279 l 71 54 q 184 10 113 29 q 364 -9 256 -9 m 349 1025 l 547 1198 l 547 1200 l 421 1200 l 347 1025 l 349 1025 z "},"Ṥ":{"ha":735,"x_min":60,"x_max":681,"o":"m 364 -9 q 518 25 446 -9 q 636 122 591 59 q 681 270 681 184 q 621 439 681 368 q 450 555 560 510 l 375 587 q 229 676 283 625 q 175 808 175 727 q 225 937 175 887 q 374 987 276 987 q 486 957 438 987 q 568 870 534 926 q 623 734 602 814 l 624 734 l 614 938 q 529 972 588 956 q 374 989 470 989 q 229 963 299 989 q 113 882 158 937 q 68 739 68 827 q 126 571 68 641 q 295 456 185 500 l 373 425 q 525 332 475 384 q 574 201 574 279 q 513 47 574 102 q 364 -7 453 -7 q 262 10 310 -7 q 174 62 214 27 q 106 152 135 98 q 60 279 77 205 l 60 279 l 71 54 q 184 10 113 29 q 364 -9 256 -9 m 522 1112 l 522 1182 l 216 1063 l 216 1063 l 522 1112 m 369 1192 q 406 1205 391 1192 q 420 1237 420 1218 q 406 1269 420 1256 q 369 1282 391 1282 q 332 1269 347 1282 q 317 1237 317 1256 q 332 1205 317 1218 q 369 1192 347 1192 z "},"Ŝ":{"ha":735,"x_min":60,"x_max":681,"o":"m 364 -9 q 518 25 446 -9 q 636 122 591 59 q 681 270 681 184 q 621 439 681 368 q 450 555 560 510 l 375 587 q 229 676 283 625 q 175 808 175 727 q 225 937 175 887 q 374 987 276 987 q 486 957 438 987 q 568 870 534 926 q 623 734 602 814 l 624 734 l 614 938 q 529 972 588 956 q 374 989 470 989 q 229 963 299 989 q 113 882 158 937 q 68 739 68 827 q 126 571 68 641 q 295 456 185 500 l 373 425 q 525 332 475 384 q 574 201 574 279 q 513 47 574 102 q 364 -7 453 -7 q 262 10 310 -7 q 174 62 214 27 q 106 152 135 98 q 60 279 77 205 l 60 279 l 71 54 q 184 10 113 29 q 364 -9 256 -9 m 228 1026 l 402 1140 l 347 1140 l 521 1026 l 522 1026 l 394 1200 l 356 1200 l 228 1026 q 228 1026 228 1026 q 228 1026 228 1026 z "},"Š":{"ha":735,"x_min":60,"x_max":681,"o":"m 364 -9 q 518 25 446 -9 q 636 122 591 59 q 681 270 681 184 q 621 439 681 368 q 450 555 560 510 l 375 587 q 229 676 283 625 q 175 808 175 727 q 225 937 175 887 q 374 987 276 987 q 486 957 438 987 q 568 870 534 926 q 623 734 602 814 l 624 734 l 614 938 q 529 972 588 956 q 374 989 470 989 q 229 963 299 989 q 113 882 158 937 q 68 739 68 827 q 126 571 68 641 q 295 456 185 500 l 373 425 q 525 332 475 384 q 574 201 574 279 q 513 47 574 102 q 364 -7 453 -7 q 262 10 310 -7 q 174 62 214 27 q 106 152 135 98 q 60 279 77 205 l 60 279 l 71 54 q 184 10 113 29 q 364 -9 256 -9 m 521 1223 l 347 1109 l 401 1109 l 228 1223 l 227 1223 l 355 1048 l 393 1048 l 521 1223 q 521 1223 521 1223 q 521 1223 521 1223 z "},"Ṧ":{"ha":735,"x_min":60,"x_max":681,"o":"m 364 -9 q 518 25 446 -9 q 636 122 591 59 q 681 270 681 184 q 621 439 681 368 q 450 555 560 510 l 375 587 q 229 676 283 625 q 175 808 175 727 q 225 937 175 887 q 374 987 276 987 q 486 957 438 987 q 568 870 534 926 q 623 734 602 814 l 624 734 l 614 938 q 529 972 588 956 q 374 989 470 989 q 229 963 299 989 q 113 882 158 937 q 68 739 68 827 q 126 571 68 641 q 295 456 185 500 l 373 425 q 525 332 475 384 q 574 201 574 279 q 513 47 574 102 q 364 -7 453 -7 q 262 10 310 -7 q 174 62 214 27 q 106 152 135 98 q 60 279 77 205 l 60 279 l 71 54 q 184 10 113 29 q 364 -9 256 -9 m 526 1191 l 361 1129 l 376 1129 l 212 1191 l 212 1190 l 363 1064 l 375 1064 l 526 1190 l 526 1191 m 369 1204 q 406 1217 391 1204 q 420 1249 420 1230 q 406 1280 420 1267 q 369 1293 391 1293 q 332 1280 347 1293 q 317 1249 317 1267 q 332 1217 317 1230 q 369 1204 347 1204 z "},"Ṡ":{"ha":735,"x_min":60,"x_max":681,"o":"m 364 -9 q 518 25 446 -9 q 636 122 591 59 q 681 270 681 184 q 621 439 681 368 q 450 555 560 510 l 375 587 q 229 676 283 625 q 175 808 175 727 q 225 937 175 887 q 374 987 276 987 q 486 957 438 987 q 568 870 534 926 q 623 734 602 814 l 624 734 l 614 938 q 529 972 588 956 q 374 989 470 989 q 229 963 299 989 q 113 882 158 937 q 68 739 68 827 q 126 571 68 641 q 295 456 185 500 l 373 425 q 525 332 475 384 q 574 201 574 279 q 513 47 574 102 q 364 -7 453 -7 q 262 10 310 -7 q 174 62 214 27 q 106 152 135 98 q 60 279 77 205 l 60 279 l 71 54 q 184 10 113 29 q 364 -9 256 -9 m 369 1057 q 409 1074 393 1057 q 425 1113 425 1090 q 409 1152 425 1135 q 369 1168 393 1168 q 329 1152 346 1168 q 313 1113 313 1135 q 329 1074 313 1090 q 369 1057 346 1057 z "},"Ṣ":{"ha":735,"x_min":60,"x_max":681,"o":"m 364 -9 q 518 25 446 -9 q 636 122 591 59 q 681 270 681 184 q 621 439 681 368 q 450 555 560 510 l 375 587 q 229 676 283 625 q 175 808 175 727 q 225 937 175 887 q 374 987 276 987 q 486 957 438 987 q 568 870 534 926 q 623 734 602 814 l 624 734 l 614 938 q 529 972 588 956 q 374 989 470 989 q 229 963 299 989 q 113 882 158 937 q 68 739 68 827 q 126 571 68 641 q 295 456 185 500 l 373 425 q 525 332 475 384 q 574 201 574 279 q 513 47 574 102 q 364 -7 453 -7 q 262 10 310 -7 q 174 62 214 27 q 106 152 135 98 q 60 279 77 205 l 60 279 l 71 54 q 184 10 113 29 q 364 -9 256 -9 m 369 -132 q 329 -148 346 -132 q 313 -187 313 -165 q 329 -226 313 -210 q 369 -243 346 -243 q 409 -226 393 -243 q 425 -187 425 -210 q 409 -148 425 -165 q 369 -132 393 -132 z "},"Ṩ":{"ha":735,"x_min":60,"x_max":681,"o":"m 364 -9 q 518 25 446 -9 q 636 122 591 59 q 681 270 681 184 q 621 439 681 368 q 450 555 560 510 l 375 587 q 229 676 283 625 q 175 808 175 727 q 225 937 175 887 q 374 987 276 987 q 486 957 438 987 q 568 870 534 926 q 623 734 602 814 l 624 734 l 614 938 q 529 972 588 956 q 374 989 470 989 q 229 963 299 989 q 113 882 158 937 q 68 739 68 827 q 126 571 68 641 q 295 456 185 500 l 373 425 q 525 332 475 384 q 574 201 574 279 q 513 47 574 102 q 364 -7 453 -7 q 262 10 310 -7 q 174 62 214 27 q 106 152 135 98 q 60 279 77 205 l 60 279 l 71 54 q 184 10 113 29 q 364 -9 256 -9 m 369 1057 q 409 1074 393 1057 q 425 1113 425 1090 q 409 1152 425 1135 q 369 1168 393 1168 q 329 1152 346 1168 q 313 1113 313 1135 q 329 1074 313 1090 q 369 1057 346 1057 m 369 -132 q 329 -148 346 -132 q 313 -187 313 -165 q 329 -226 313 -210 q 369 -243 346 -243 q 409 -226 393 -243 q 425 -187 425 -210 q 409 -148 425 -165 q 369 -132 393 -132 z "},"Ș":{"ha":735,"x_min":60,"x_max":681,"o":"m 364 -9 q 518 25 446 -9 q 636 122 591 59 q 681 270 681 184 q 621 439 681 368 q 450 555 560 510 l 375 587 q 229 676 283 625 q 175 808 175 727 q 225 937 175 887 q 374 987 276 987 q 486 957 438 987 q 568 870 534 926 q 623 734 602 814 l 624 734 l 614 938 q 529 972 588 956 q 374 989 470 989 q 229 963 299 989 q 113 882 158 937 q 68 739 68 827 q 126 571 68 641 q 295 456 185 500 l 373 425 q 525 332 475 384 q 574 201 574 279 q 513 47 574 102 q 364 -7 453 -7 q 262 10 310 -7 q 174 62 214 27 q 106 152 135 98 q 60 279 77 205 l 60 279 l 71 54 q 184 10 113 29 q 364 -9 256 -9 m 369 -283 q 456 -256 421 -283 q 492 -186 492 -229 q 460 -116 492 -142 q 381 -91 429 -91 q 319 -110 342 -91 q 281 -149 296 -129 l 281 -150 q 301 -143 288 -146 q 328 -140 315 -140 q 378 -154 359 -140 q 398 -193 398 -168 q 379 -231 398 -216 q 329 -245 360 -245 q 281 -234 304 -245 q 243 -208 258 -223 l 243 -209 q 290 -261 255 -239 q 369 -283 326 -283 z "},"Ş":{"ha":735,"x_min":60,"x_max":681,"o":"m 364 -9 q 518 25 446 -9 q 636 122 591 59 q 681 270 681 184 q 621 439 681 368 q 450 555 560 510 l 375 587 q 229 676 283 625 q 175 808 175 727 q 225 937 175 887 q 374 987 276 987 q 486 957 438 987 q 568 870 534 926 q 623 734 602 814 l 624 734 l 614 938 q 529 972 588 956 q 374 989 470 989 q 229 963 299 989 q 113 882 158 937 q 68 739 68 827 q 126 571 68 641 q 295 456 185 500 l 373 425 q 525 332 475 384 q 574 201 574 279 q 513 47 574 102 q 364 -7 453 -7 q 262 10 310 -7 q 174 62 214 27 q 106 152 135 98 q 60 279 77 205 l 60 279 l 71 54 q 184 10 113 29 q 364 -9 256 -9 m 360 -280 q 412 -269 387 -280 q 452 -235 436 -257 q 468 -182 468 -214 q 438 -114 468 -140 q 367 -87 409 -87 q 320 -95 341 -86 q 291 -115 300 -103 l 291 -117 l 370 -9 l 370 -8 l 368 -8 l 273 -138 l 273 -138 q 311 -130 283 -130 q 352 -145 335 -130 q 369 -184 369 -159 q 351 -225 369 -210 q 305 -241 332 -241 q 269 -233 286 -241 q 241 -214 252 -226 l 241 -214 q 288 -262 254 -245 q 360 -280 322 -280 z "},"T":{"ha":811,"x_min":22,"x_max":789,"o":"m 777 979 l 34 979 l 22 763 l 22 763 q 72 886 41 842 q 157 950 102 930 q 300 976 211 970 l 338 979 l 338 99 q 332 47 338 66 q 308 17 326 28 q 254 1 290 7 l 254 0 l 557 0 l 557 1 q 503 17 522 7 q 479 47 485 28 q 473 99 473 66 l 473 979 l 511 976 q 654 950 600 970 q 740 886 709 930 q 789 763 770 842 l 789 763 l 777 979 z "},"Ṱ":{"ha":811,"x_min":22,"x_max":789,"o":"m 777 979 l 34 979 l 22 763 l 22 763 q 72 886 41 842 q 157 950 102 930 q 300 976 211 970 l 338 979 l 338 99 q 332 47 338 66 q 308 17 326 28 q 254 1 290 7 l 254 0 l 557 0 l 557 1 q 503 17 522 7 q 479 47 485 28 q 473 99 473 66 l 473 979 l 511 976 q 654 950 600 970 q 740 886 709 930 q 789 763 770 842 l 789 763 l 777 979 z "},"Ť":{"ha":811,"x_min":22,"x_max":789,"o":"m 777 979 l 34 979 l 22 763 l 22 763 q 72 886 41 842 q 157 950 102 930 q 300 976 211 970 l 338 979 l 338 99 q 332 47 338 66 q 308 17 326 28 q 254 1 290 7 l 254 0 l 557 0 l 557 1 q 503 17 522 7 q 479 47 485 28 q 473 99 473 66 l 473 979 l 511 976 q 654 950 600 970 q 740 886 709 930 q 789 763 770 842 l 789 763 l 777 979 m 557 1223 l 383 1109 l 438 1109 l 264 1223 l 263 1223 l 391 1048 l 429 1048 l 557 1223 q 557 1223 557 1223 q 557 1223 557 1223 z "},"Ṯ":{"ha":811,"x_min":22,"x_max":789,"o":"m 777 979 l 34 979 l 22 763 l 22 763 q 72 886 41 842 q 157 950 102 930 q 300 976 211 970 l 338 979 l 338 99 q 332 47 338 66 q 308 17 326 28 q 254 1 290 7 l 254 0 l 557 0 l 557 1 q 503 17 522 7 q 479 47 485 28 q 473 99 473 66 l 473 979 l 511 976 q 654 950 600 970 q 740 886 709 930 q 789 763 770 842 l 789 763 l 777 979 z "},"Ṫ":{"ha":811,"x_min":22,"x_max":789,"o":"m 777 979 l 34 979 l 22 763 l 22 763 q 72 886 41 842 q 157 950 102 930 q 300 976 211 970 l 338 979 l 338 99 q 332 47 338 66 q 308 17 326 28 q 254 1 290 7 l 254 0 l 557 0 l 557 1 q 503 17 522 7 q 479 47 485 28 q 473 99 473 66 l 473 979 l 511 976 q 654 950 600 970 q 740 886 709 930 q 789 763 770 842 l 789 763 l 777 979 m 406 1057 q 446 1074 429 1057 q 462 1113 462 1090 q 446 1152 462 1135 q 406 1168 429 1168 q 366 1152 382 1168 q 349 1113 349 1135 q 366 1074 349 1090 q 406 1057 382 1057 z "},"Ṭ":{"ha":811,"x_min":22,"x_max":789,"o":"m 777 979 l 34 979 l 22 763 l 22 763 q 72 886 41 842 q 157 950 102 930 q 300 976 211 970 l 338 979 l 338 99 q 332 47 338 66 q 308 17 326 28 q 254 1 290 7 l 254 0 l 557 0 l 557 1 q 503 17 522 7 q 479 47 485 28 q 473 99 473 66 l 473 979 l 511 976 q 654 950 600 970 q 740 886 709 930 q 789 763 770 842 l 789 763 l 777 979 m 406 -132 q 366 -148 382 -132 q 349 -187 349 -165 q 366 -226 349 -210 q 406 -243 382 -243 q 446 -226 429 -243 q 462 -187 462 -210 q 446 -148 462 -165 q 406 -132 429 -132 z "},"Ț":{"ha":811,"x_min":22,"x_max":789,"o":"m 777 979 l 34 979 l 22 763 l 22 763 q 72 886 41 842 q 157 950 102 930 q 300 976 211 970 l 338 979 l 338 99 q 332 47 338 66 q 308 17 326 28 q 254 1 290 7 l 254 0 l 557 0 l 557 1 q 503 17 522 7 q 479 47 485 28 q 473 99 473 66 l 473 979 l 511 976 q 654 950 600 970 q 740 886 709 930 q 789 763 770 842 l 789 763 l 777 979 m 406 -283 q 493 -256 458 -283 q 528 -186 528 -229 q 497 -116 528 -142 q 418 -91 465 -91 q 355 -110 378 -91 q 317 -149 332 -129 l 317 -150 q 338 -143 325 -146 q 365 -140 351 -140 q 415 -154 395 -140 q 435 -193 435 -168 q 416 -231 435 -216 q 366 -245 397 -245 q 317 -234 340 -245 q 280 -208 294 -223 l 279 -209 q 327 -261 292 -239 q 406 -283 362 -283 z "},"Ţ":{"ha":811,"x_min":22,"x_max":789,"o":"m 397 -280 q 448 -269 424 -280 q 489 -235 473 -257 q 505 -182 505 -214 q 491 -133 505 -155 q 454 -100 477 -112 q 404 -87 431 -87 q 357 -95 378 -86 q 328 -115 336 -103 l 328 -117 l 406 0 l 406 1 l 404 1 l 309 -138 l 309 -138 q 347 -130 320 -130 q 389 -145 372 -130 q 406 -184 406 -159 q 387 -225 406 -210 q 342 -241 369 -241 q 305 -233 322 -241 q 278 -214 288 -225 l 277 -214 q 325 -262 291 -245 q 397 -280 359 -280 m 777 979 l 34 979 l 22 763 l 22 763 q 72 886 41 842 q 157 950 102 930 q 300 976 211 970 l 338 979 l 338 99 q 332 47 338 66 q 308 17 326 28 q 254 1 290 7 l 254 0 l 557 0 l 557 1 q 503 17 522 7 q 479 47 485 28 q 473 99 473 66 l 473 979 l 511 976 q 654 950 600 970 q 740 886 709 930 q 789 763 770 842 l 789 763 l 777 979 z "},"Ŧ":{"ha":811,"x_min":22,"x_max":789,"o":"m 777 979 l 34 979 l 22 763 l 22 763 q 72 886 41 842 q 157 950 102 930 q 300 976 211 970 l 338 979 l 338 99 q 332 47 338 66 q 308 17 326 28 q 254 1 290 7 l 254 0 l 557 0 l 557 1 q 503 17 522 7 q 479 47 485 28 q 473 99 473 66 l 473 979 l 511 976 q 654 950 600 970 q 740 886 709 930 q 789 763 770 842 l 789 763 l 777 979 m 165 499 l 646 499 l 646 505 l 165 505 l 165 499 z "},"U":{"ha":922,"x_min":16,"x_max":920,"o":"m 92 897 l 92 408 q 123 210 92 290 q 208 81 155 130 q 330 12 262 33 q 471 -9 398 -9 q 670 40 593 -9 q 786 177 748 90 q 826 376 824 264 l 833 779 q 841 896 834 854 q 866 955 848 937 q 920 979 884 972 l 920 979 l 718 979 l 718 979 q 778 954 758 971 q 806 895 798 936 q 814 779 813 854 l 821 376 q 786 180 823 264 q 680 51 748 97 q 522 4 612 4 q 369 44 435 4 q 265 170 302 83 q 228 395 228 256 l 228 891 q 234 937 228 921 q 258 963 241 954 q 307 979 275 972 l 307 979 l 16 979 l 16 979 q 63 963 47 972 q 86 940 80 955 q 92 897 92 924 z "},"Ú":{"ha":922,"x_min":16,"x_max":920,"o":"m 92 897 l 92 408 q 123 210 92 290 q 208 81 155 130 q 330 12 262 33 q 471 -9 398 -9 q 670 40 593 -9 q 786 177 748 90 q 826 376 824 264 l 833 779 q 841 896 834 854 q 866 955 848 937 q 920 979 884 972 l 920 979 l 718 979 l 718 979 q 778 954 758 971 q 806 895 798 936 q 814 779 813 854 l 821 376 q 786 180 823 264 q 680 51 748 97 q 522 4 612 4 q 369 44 435 4 q 265 170 302 83 q 228 395 228 256 l 228 891 q 234 937 228 921 q 258 963 241 954 q 307 979 275 972 l 307 979 l 16 979 l 16 979 q 63 963 47 972 q 86 940 80 955 q 92 897 92 924 m 494 1025 l 692 1198 l 692 1200 l 566 1200 l 492 1025 l 494 1025 z "},"Ù":{"ha":922,"x_min":16,"x_max":920,"o":"m 92 897 l 92 408 q 123 210 92 290 q 208 81 155 130 q 330 12 262 33 q 471 -9 398 -9 q 670 40 593 -9 q 786 177 748 90 q 826 376 824 264 l 833 779 q 841 896 834 854 q 866 955 848 937 q 920 979 884 972 l 920 979 l 718 979 l 718 979 q 778 954 758 971 q 806 895 798 936 q 814 779 813 854 l 821 376 q 786 180 823 264 q 680 51 748 97 q 522 4 612 4 q 369 44 435 4 q 265 170 302 83 q 228 395 228 256 l 228 891 q 234 937 228 921 q 258 963 241 954 q 307 979 275 972 l 307 979 l 16 979 l 16 979 q 63 963 47 972 q 86 940 80 955 q 92 897 92 924 m 546 1026 l 547 1026 l 476 1200 l 345 1200 l 345 1199 l 546 1026 z "},"Ű":{"ha":922,"x_min":16,"x_max":920,"o":"m 92 897 l 92 408 q 123 210 92 290 q 208 81 155 130 q 330 12 262 33 q 471 -9 398 -9 q 670 40 593 -9 q 786 177 748 90 q 826 376 824 264 l 833 779 q 841 896 834 854 q 866 955 848 937 q 920 979 884 972 l 920 979 l 718 979 l 718 979 q 778 954 758 971 q 806 895 798 936 q 814 779 813 854 l 821 376 q 786 180 823 264 q 680 51 748 97 q 522 4 612 4 q 369 44 435 4 q 265 170 302 83 q 228 395 228 256 l 228 891 q 234 937 228 921 q 258 963 241 954 q 307 979 275 972 l 307 979 l 16 979 l 16 979 q 63 963 47 972 q 86 940 80 955 q 92 897 92 924 m 464 1200 l 414 1026 l 416 1026 l 579 1200 l 579 1201 l 464 1200 m 654 1200 l 574 1026 l 575 1026 l 775 1200 l 775 1201 l 654 1200 z "},"Ȕ":{"ha":922,"x_min":16,"x_max":920,"o":"m 92 897 l 92 408 q 123 210 92 290 q 208 81 155 130 q 330 12 262 33 q 471 -9 398 -9 q 670 40 593 -9 q 786 177 748 90 q 826 376 824 264 l 833 779 q 841 896 834 854 q 866 955 848 937 q 920 979 884 972 l 920 979 l 718 979 l 718 979 q 778 954 758 971 q 806 895 798 936 q 814 779 813 854 l 821 376 q 786 180 823 264 q 680 51 748 97 q 522 4 612 4 q 369 44 435 4 q 265 170 302 83 q 228 395 228 256 l 228 891 q 234 937 228 921 q 258 963 241 954 q 307 979 275 972 l 307 979 l 16 979 l 16 979 q 63 963 47 972 q 86 940 80 955 q 92 897 92 924 m 385 1200 l 264 1200 l 264 1199 l 465 1025 l 466 1025 l 385 1200 m 575 1200 l 460 1200 l 460 1199 l 624 1025 l 625 1025 l 575 1200 z "},"Û":{"ha":922,"x_min":16,"x_max":920,"o":"m 92 897 l 92 408 q 123 210 92 290 q 208 81 155 130 q 330 12 262 33 q 471 -9 398 -9 q 670 40 593 -9 q 786 177 748 90 q 826 376 824 264 l 833 779 q 841 896 834 854 q 866 955 848 937 q 920 979 884 972 l 920 979 l 718 979 l 718 979 q 778 954 758 971 q 806 895 798 936 q 814 779 813 854 l 821 376 q 786 180 823 264 q 680 51 748 97 q 522 4 612 4 q 369 44 435 4 q 265 170 302 83 q 228 395 228 256 l 228 891 q 234 937 228 921 q 258 963 241 954 q 307 979 275 972 l 307 979 l 16 979 l 16 979 q 63 963 47 972 q 86 940 80 955 q 92 897 92 924 m 373 1026 l 547 1140 l 492 1140 l 666 1026 l 667 1026 l 539 1200 l 501 1200 l 373 1026 q 373 1026 373 1026 q 373 1026 373 1026 z "},"Ṷ":{"ha":922,"x_min":16,"x_max":920,"o":"m 92 897 l 92 408 q 123 210 92 290 q 208 81 155 130 q 330 12 262 33 q 471 -9 398 -9 q 670 40 593 -9 q 786 177 748 90 q 826 376 824 264 l 833 779 q 841 896 834 854 q 866 955 848 937 q 920 979 884 972 l 920 979 l 718 979 l 718 979 q 778 954 758 971 q 806 895 798 936 q 814 779 813 854 l 821 376 q 786 180 823 264 q 680 51 748 97 q 522 4 612 4 q 369 44 435 4 q 265 170 302 83 q 228 395 228 256 l 228 891 q 234 937 228 921 q 258 963 241 954 q 307 979 275 972 l 307 979 l 16 979 l 16 979 q 63 963 47 972 q 86 940 80 955 q 92 897 92 924 z "},"Ǔ":{"ha":922,"x_min":16,"x_max":920,"o":"m 92 897 l 92 408 q 123 210 92 290 q 208 81 155 130 q 330 12 262 33 q 471 -9 398 -9 q 670 40 593 -9 q 786 177 748 90 q 826 376 824 264 l 833 779 q 841 896 834 854 q 866 955 848 937 q 920 979 884 972 l 920 979 l 718 979 l 718 979 q 778 954 758 971 q 806 895 798 936 q 814 779 813 854 l 821 376 q 786 180 823 264 q 680 51 748 97 q 522 4 612 4 q 369 44 435 4 q 265 170 302 83 q 228 395 228 256 l 228 891 q 234 937 228 921 q 258 963 241 954 q 307 979 275 972 l 307 979 l 16 979 l 16 979 q 63 963 47 972 q 86 940 80 955 q 92 897 92 924 m 666 1223 l 492 1109 l 547 1109 l 373 1223 l 372 1223 l 500 1048 l 538 1048 l 666 1223 q 666 1223 666 1223 q 666 1223 666 1223 z "},"Ŭ":{"ha":922,"x_min":16,"x_max":920,"o":"m 92 897 l 92 408 q 123 210 92 290 q 208 81 155 130 q 330 12 262 33 q 471 -9 398 -9 q 670 40 593 -9 q 786 177 748 90 q 826 376 824 264 l 833 779 q 841 896 834 854 q 866 955 848 937 q 920 979 884 972 l 920 979 l 718 979 l 718 979 q 778 954 758 971 q 806 895 798 936 q 814 779 813 854 l 821 376 q 786 180 823 264 q 680 51 748 97 q 522 4 612 4 q 369 44 435 4 q 265 170 302 83 q 228 395 228 256 l 228 891 q 234 937 228 921 q 258 963 241 954 q 307 979 275 972 l 307 979 l 16 979 l 16 979 q 63 963 47 972 q 86 940 80 955 q 92 897 92 924 m 514 1072 q 588 1093 557 1072 q 636 1148 619 1114 q 652 1220 652 1182 q 650 1250 652 1236 l 650 1250 q 650 1250 650 1250 q 650 1250 650 1250 q 631 1191 650 1216 q 582 1154 612 1166 q 513 1141 551 1141 q 445 1154 476 1141 q 396 1191 414 1166 q 377 1250 377 1216 q 377 1250 377 1250 q 377 1250 377 1250 l 376 1250 q 374 1220 374 1236 q 391 1148 374 1182 q 439 1093 408 1114 q 514 1072 471 1072 z "},"Ȗ":{"ha":922,"x_min":16,"x_max":920,"o":"m 92 897 l 92 408 q 123 210 92 290 q 208 81 155 130 q 330 12 262 33 q 471 -9 398 -9 q 670 40 593 -9 q 786 177 748 90 q 826 376 824 264 l 833 779 q 841 896 834 854 q 866 955 848 937 q 920 979 884 972 l 920 979 l 718 979 l 718 979 q 778 954 758 971 q 806 895 798 936 q 814 779 813 854 l 821 376 q 786 180 823 264 q 680 51 748 97 q 522 4 612 4 q 369 44 435 4 q 265 170 302 83 q 228 395 228 256 l 228 891 q 234 937 228 921 q 258 963 241 954 q 307 979 275 972 l 307 979 l 16 979 l 16 979 q 63 963 47 972 q 86 940 80 955 q 92 897 92 924 m 513 1250 q 438 1229 469 1250 q 391 1174 408 1208 q 374 1101 374 1140 q 376 1072 374 1086 l 377 1072 q 377 1072 377 1072 q 377 1072 377 1072 q 396 1131 377 1106 q 445 1168 414 1155 q 513 1181 476 1181 q 582 1168 551 1181 q 631 1131 612 1155 q 650 1072 650 1106 q 650 1072 650 1072 q 650 1072 650 1072 l 650 1072 q 652 1101 652 1086 q 635 1174 652 1140 q 587 1229 618 1208 q 513 1250 556 1250 z "},"Ü":{"ha":922,"x_min":16,"x_max":920,"o":"m 92 897 l 92 408 q 123 210 92 290 q 208 81 155 130 q 330 12 262 33 q 471 -9 398 -9 q 670 40 593 -9 q 786 177 748 90 q 826 376 824 264 l 833 779 q 841 896 834 854 q 866 955 848 937 q 920 979 884 972 l 920 979 l 718 979 l 718 979 q 778 954 758 971 q 806 895 798 936 q 814 779 813 854 l 821 376 q 786 180 823 264 q 680 51 748 97 q 522 4 612 4 q 369 44 435 4 q 265 170 302 83 q 228 395 228 256 l 228 891 q 234 937 228 921 q 258 963 241 954 q 307 979 275 972 l 307 979 l 16 979 l 16 979 q 63 963 47 972 q 86 940 80 955 q 92 897 92 924 m 422 1059 q 460 1075 445 1059 q 476 1114 476 1091 q 460 1152 476 1135 q 422 1168 445 1168 q 384 1152 399 1168 q 368 1114 368 1135 q 384 1075 368 1091 q 422 1059 399 1059 m 606 1059 q 644 1075 629 1059 q 660 1114 660 1091 q 644 1152 660 1135 q 606 1168 629 1168 q 568 1152 583 1168 q 552 1114 552 1135 q 568 1075 552 1091 q 606 1059 583 1059 z "},"Ǘ":{"ha":922,"x_min":16,"x_max":920,"o":"m 92 897 l 92 408 q 123 210 92 290 q 208 81 155 130 q 330 12 262 33 q 471 -9 398 -9 q 670 40 593 -9 q 786 177 748 90 q 826 376 824 264 l 833 779 q 841 896 834 854 q 866 955 848 937 q 920 979 884 972 l 920 979 l 718 979 l 718 979 q 778 954 758 971 q 806 895 798 936 q 814 779 813 854 l 821 376 q 786 180 823 264 q 680 51 748 97 q 522 4 612 4 q 369 44 435 4 q 265 170 302 83 q 228 395 228 256 l 228 891 q 234 937 228 921 q 258 963 241 954 q 307 979 275 972 l 307 979 l 16 979 l 16 979 q 63 963 47 972 q 86 940 80 955 q 92 897 92 924 m 428 1072 q 463 1085 449 1072 q 477 1116 477 1097 q 463 1148 477 1135 q 428 1160 449 1160 l 427 1160 q 392 1148 406 1160 q 378 1116 378 1135 q 392 1085 378 1097 q 427 1072 406 1072 l 428 1072 m 602 1072 q 636 1085 623 1072 q 650 1116 650 1097 q 636 1148 650 1135 q 602 1160 623 1160 l 600 1160 q 565 1148 579 1160 q 551 1116 551 1135 q 565 1085 551 1097 q 600 1072 579 1072 l 602 1072 m 667 1240 l 667 1311 l 361 1192 l 361 1192 l 667 1240 z "},"Ǜ":{"ha":922,"x_min":16,"x_max":920,"o":"m 92 897 l 92 408 q 123 210 92 290 q 208 81 155 130 q 330 12 262 33 q 471 -9 398 -9 q 670 40 593 -9 q 786 177 748 90 q 826 376 824 264 l 833 779 q 841 896 834 854 q 866 955 848 937 q 920 979 884 972 l 920 979 l 718 979 l 718 979 q 778 954 758 971 q 806 895 798 936 q 814 779 813 854 l 821 376 q 786 180 823 264 q 680 51 748 97 q 522 4 612 4 q 369 44 435 4 q 265 170 302 83 q 228 395 228 256 l 228 891 q 234 937 228 921 q 258 963 241 954 q 307 979 275 972 l 307 979 l 16 979 l 16 979 q 63 963 47 972 q 86 940 80 955 q 92 897 92 924 m 428 1072 q 463 1085 449 1072 q 477 1116 477 1097 q 463 1148 477 1135 q 428 1160 449 1160 l 427 1160 q 392 1148 406 1160 q 378 1116 378 1135 q 392 1085 378 1097 q 427 1072 406 1072 l 428 1072 m 602 1072 q 636 1085 623 1072 q 650 1116 650 1097 q 636 1148 650 1135 q 602 1160 623 1160 l 600 1160 q 565 1148 579 1160 q 551 1116 551 1135 q 565 1085 551 1097 q 600 1072 579 1072 l 602 1072 m 361 1240 l 667 1192 l 667 1192 l 361 1311 l 361 1240 z "},"Ǚ":{"ha":922,"x_min":16,"x_max":920,"o":"m 92 897 l 92 408 q 123 210 92 290 q 208 81 155 130 q 330 12 262 33 q 471 -9 398 -9 q 670 40 593 -9 q 786 177 748 90 q 826 376 824 264 l 833 779 q 841 896 834 854 q 866 955 848 937 q 920 979 884 972 l 920 979 l 718 979 l 718 979 q 778 954 758 971 q 806 895 798 936 q 814 779 813 854 l 821 376 q 786 180 823 264 q 680 51 748 97 q 522 4 612 4 q 369 44 435 4 q 265 170 302 83 q 228 395 228 256 l 228 891 q 234 937 228 921 q 258 963 241 954 q 307 979 275 972 l 307 979 l 16 979 l 16 979 q 63 963 47 972 q 86 940 80 955 q 92 897 92 924 m 428 1072 q 463 1085 449 1072 q 477 1116 477 1097 q 463 1148 477 1135 q 428 1160 449 1160 l 427 1160 q 392 1148 406 1160 q 378 1116 378 1135 q 392 1085 378 1097 q 427 1072 406 1072 l 428 1072 m 602 1072 q 636 1085 623 1072 q 650 1116 650 1097 q 636 1148 650 1135 q 602 1160 623 1160 l 600 1160 q 565 1148 579 1160 q 551 1116 551 1135 q 565 1085 551 1097 q 600 1072 579 1072 l 602 1072 m 667 1312 l 506 1253 l 522 1253 l 361 1312 l 361 1312 l 509 1190 l 519 1190 l 666 1312 l 667 1312 z "},"Ǖ":{"ha":922,"x_min":16,"x_max":920,"o":"m 92 897 l 92 408 q 123 210 92 290 q 208 81 155 130 q 330 12 262 33 q 471 -9 398 -9 q 670 40 593 -9 q 786 177 748 90 q 826 376 824 264 l 833 779 q 841 896 834 854 q 866 955 848 937 q 920 979 884 972 l 920 979 l 718 979 l 718 979 q 778 954 758 971 q 806 895 798 936 q 814 779 813 854 l 821 376 q 786 180 823 264 q 680 51 748 97 q 522 4 612 4 q 369 44 435 4 q 265 170 302 83 q 228 395 228 256 l 228 891 q 234 937 228 921 q 258 963 241 954 q 307 979 275 972 l 307 979 l 16 979 l 16 979 q 63 963 47 972 q 86 940 80 955 q 92 897 92 924 m 428 1072 q 463 1085 449 1072 q 477 1116 477 1097 q 463 1148 477 1135 q 428 1160 449 1160 l 427 1160 q 392 1148 406 1160 q 378 1116 378 1135 q 392 1085 378 1097 q 427 1072 406 1072 l 428 1072 m 602 1072 q 636 1085 623 1072 q 650 1116 650 1097 q 636 1148 650 1135 q 602 1160 623 1160 l 600 1160 q 565 1148 579 1160 q 551 1116 551 1135 q 565 1085 551 1097 q 600 1072 579 1072 l 602 1072 m 361 1226 l 667 1226 l 667 1276 l 361 1276 l 361 1226 z "},"Ṳ":{"ha":922,"x_min":16,"x_max":920,"o":"m 92 897 l 92 408 q 123 210 92 290 q 208 81 155 130 q 330 12 262 33 q 471 -9 398 -9 q 670 40 593 -9 q 786 177 748 90 q 826 376 824 264 l 833 779 q 841 896 834 854 q 866 955 848 937 q 920 979 884 972 l 920 979 l 718 979 l 718 979 q 778 954 758 971 q 806 895 798 936 q 814 779 813 854 l 821 376 q 786 180 823 264 q 680 51 748 97 q 522 4 612 4 q 369 44 435 4 q 265 170 302 83 q 228 395 228 256 l 228 891 q 234 937 228 921 q 258 963 241 954 q 307 979 275 972 l 307 979 l 16 979 l 16 979 q 63 963 47 972 q 86 940 80 955 q 92 897 92 924 z "},"Ũ":{"ha":922,"x_min":16,"x_max":920,"o":"m 92 897 l 92 408 q 123 210 92 290 q 208 81 155 130 q 330 12 262 33 q 471 -9 398 -9 q 670 40 593 -9 q 786 177 748 90 q 826 376 824 264 l 833 779 q 841 896 834 854 q 866 955 848 937 q 920 979 884 972 l 920 979 l 718 979 l 718 979 q 778 954 758 971 q 806 895 798 936 q 814 779 813 854 l 821 376 q 786 180 823 264 q 680 51 748 97 q 522 4 612 4 q 369 44 435 4 q 265 170 302 83 q 228 395 228 256 l 228 891 q 234 937 228 921 q 258 963 241 954 q 307 979 275 972 l 307 979 l 16 979 l 16 979 q 63 963 47 972 q 86 940 80 955 q 92 897 92 924 m 578 1046 q 644 1077 619 1046 q 663 1190 668 1107 l 663 1190 q 647 1125 659 1142 q 615 1109 634 1109 q 588 1114 600 1109 q 556 1133 576 1120 l 536 1145 q 490 1172 511 1163 q 449 1180 470 1180 q 384 1150 408 1180 q 364 1037 359 1120 l 365 1037 q 381 1101 368 1085 q 412 1118 393 1118 q 439 1113 427 1118 q 471 1094 452 1107 l 491 1081 q 537 1055 517 1064 q 578 1046 557 1046 z "},"Ṹ":{"ha":922,"x_min":16,"x_max":920,"o":"m 92 897 l 92 408 q 123 210 92 290 q 208 81 155 130 q 330 12 262 33 q 471 -9 398 -9 q 670 40 593 -9 q 786 177 748 90 q 826 376 824 264 l 833 779 q 841 896 834 854 q 866 955 848 937 q 920 979 884 972 l 920 979 l 718 979 l 718 979 q 778 954 758 971 q 806 895 798 936 q 814 779 813 854 l 821 376 q 786 180 823 264 q 680 51 748 97 q 522 4 612 4 q 369 44 435 4 q 265 170 302 83 q 228 395 228 256 l 228 891 q 234 937 228 921 q 258 963 241 954 q 307 979 275 972 l 307 979 l 16 979 l 16 979 q 63 963 47 972 q 86 940 80 955 q 92 897 92 924 m 585 1078 q 646 1102 625 1078 q 667 1171 667 1126 l 667 1171 q 651 1134 666 1145 q 612 1124 636 1124 q 582 1127 597 1124 q 546 1137 566 1131 l 526 1143 q 487 1152 507 1148 q 444 1156 467 1156 q 383 1132 404 1156 q 361 1063 361 1108 l 362 1063 q 378 1100 363 1089 q 417 1110 393 1110 q 447 1107 431 1110 q 483 1097 463 1103 l 503 1091 q 542 1082 522 1086 q 585 1078 562 1078 m 667 1240 l 667 1311 l 361 1192 l 361 1192 l 667 1240 z "},"Ṵ":{"ha":922,"x_min":16,"x_max":920,"o":"m 92 897 l 92 408 q 123 210 92 290 q 208 81 155 130 q 330 12 262 33 q 471 -9 398 -9 q 670 40 593 -9 q 786 177 748 90 q 826 376 824 264 l 833 779 q 841 896 834 854 q 866 955 848 937 q 920 979 884 972 l 920 979 l 718 979 l 718 979 q 778 954 758 971 q 806 895 798 936 q 814 779 813 854 l 821 376 q 786 180 823 264 q 680 51 748 97 q 522 4 612 4 q 369 44 435 4 q 265 170 302 83 q 228 395 228 256 l 228 891 q 234 937 228 921 q 258 963 241 954 q 307 979 275 972 l 307 979 l 16 979 l 16 979 q 63 963 47 972 q 86 940 80 955 q 92 897 92 924 z "},"Ū":{"ha":922,"x_min":16,"x_max":920,"o":"m 92 897 l 92 408 q 123 210 92 290 q 208 81 155 130 q 330 12 262 33 q 471 -9 398 -9 q 670 40 593 -9 q 786 177 748 90 q 826 376 824 264 l 833 779 q 841 896 834 854 q 866 955 848 937 q 920 979 884 972 l 920 979 l 718 979 l 718 979 q 778 954 758 971 q 806 895 798 936 q 814 779 813 854 l 821 376 q 786 180 823 264 q 680 51 748 97 q 522 4 612 4 q 369 44 435 4 q 265 170 302 83 q 228 395 228 256 l 228 891 q 234 937 228 921 q 258 963 241 954 q 307 979 275 972 l 307 979 l 16 979 l 16 979 q 63 963 47 972 q 86 940 80 955 q 92 897 92 924 m 374 1073 l 654 1073 l 654 1131 l 374 1131 l 374 1073 z "},"Ṻ":{"ha":922,"x_min":16,"x_max":920,"o":"m 92 897 l 92 408 q 123 210 92 290 q 208 81 155 130 q 330 12 262 33 q 471 -9 398 -9 q 670 40 593 -9 q 786 177 748 90 q 826 376 824 264 l 833 779 q 841 896 834 854 q 866 955 848 937 q 920 979 884 972 l 920 979 l 718 979 l 718 979 q 778 954 758 971 q 806 895 798 936 q 814 779 813 854 l 821 376 q 786 180 823 264 q 680 51 748 97 q 522 4 612 4 q 369 44 435 4 q 265 170 302 83 q 228 395 228 256 l 228 891 q 234 937 228 921 q 258 963 241 954 q 307 979 275 972 l 307 979 l 16 979 l 16 979 q 63 963 47 972 q 86 940 80 955 q 92 897 92 924 m 372 1092 l 656 1092 l 656 1141 l 372 1141 l 372 1092 m 428 1207 q 463 1220 449 1207 q 477 1251 477 1232 q 463 1283 477 1270 q 428 1295 449 1295 l 427 1295 q 392 1283 406 1295 q 378 1251 378 1270 q 392 1220 378 1232 q 427 1207 406 1207 l 428 1207 m 602 1207 q 636 1220 623 1207 q 650 1251 650 1232 q 636 1283 650 1270 q 602 1295 623 1295 l 600 1295 q 565 1283 579 1295 q 551 1251 551 1270 q 565 1220 551 1232 q 600 1207 579 1207 l 602 1207 z "},"Ủ":{"ha":922,"x_min":16,"x_max":920,"o":"m 92 897 l 92 408 q 123 210 92 290 q 208 81 155 130 q 330 12 262 33 q 471 -9 398 -9 q 670 40 593 -9 q 786 177 748 90 q 826 376 824 264 l 833 779 q 841 896 834 854 q 866 955 848 937 q 920 979 884 972 l 920 979 l 718 979 l 718 979 q 778 954 758 971 q 806 895 798 936 q 814 779 813 854 l 821 376 q 786 180 823 264 q 680 51 748 97 q 522 4 612 4 q 369 44 435 4 q 265 170 302 83 q 228 395 228 256 l 228 891 q 234 937 228 921 q 258 963 241 954 q 307 979 275 972 l 307 979 l 16 979 l 16 979 q 63 963 47 972 q 86 940 80 955 q 92 897 92 924 m 526 1227 q 459 1206 488 1227 q 418 1152 431 1185 l 418 1151 q 447 1173 430 1164 q 484 1181 463 1181 q 532 1166 514 1181 q 549 1129 549 1152 q 532 1078 549 1102 q 484 1035 515 1055 l 485 1035 q 585 1095 557 1065 q 612 1158 612 1125 q 587 1207 612 1188 q 526 1227 562 1227 z "},"Ů":{"ha":922,"x_min":16,"x_max":920,"o":"m 92 897 l 92 408 q 123 210 92 290 q 208 81 155 130 q 330 12 262 33 q 471 -9 398 -9 q 670 40 593 -9 q 786 177 748 90 q 826 376 824 264 l 833 779 q 841 896 834 854 q 866 955 848 937 q 920 979 884 972 l 920 979 l 718 979 l 718 979 q 778 954 758 971 q 806 895 798 936 q 814 779 813 854 l 821 376 q 786 180 823 264 q 680 51 748 97 q 522 4 612 4 q 369 44 435 4 q 265 170 302 83 q 228 395 228 256 l 228 891 q 234 937 228 921 q 258 963 241 954 q 307 979 275 972 l 307 979 l 16 979 l 16 979 q 63 963 47 972 q 86 940 80 955 q 92 897 92 924 m 384 1147 q 425 1080 384 1102 q 514 1058 467 1058 q 603 1080 562 1058 q 644 1147 644 1102 q 603 1214 644 1192 q 514 1237 562 1237 q 425 1214 466 1237 q 384 1147 384 1192 m 463 1147 q 477 1210 463 1185 q 514 1236 490 1236 q 551 1210 538 1236 q 565 1147 565 1184 q 551 1084 565 1108 q 514 1059 538 1059 q 477 1084 490 1059 q 463 1147 463 1108 z "},"Ụ":{"ha":922,"x_min":16,"x_max":920,"o":"m 92 897 l 92 408 q 123 210 92 290 q 208 81 155 130 q 330 12 262 33 q 471 -9 398 -9 q 670 40 593 -9 q 786 177 748 90 q 826 376 824 264 l 833 779 q 841 896 834 854 q 866 955 848 937 q 920 979 884 972 l 920 979 l 718 979 l 718 979 q 778 954 758 971 q 806 895 798 936 q 814 779 813 854 l 821 376 q 786 180 823 264 q 680 51 748 97 q 522 4 612 4 q 369 44 435 4 q 265 170 302 83 q 228 395 228 256 l 228 891 q 234 937 228 921 q 258 963 241 954 q 307 979 275 972 l 307 979 l 16 979 l 16 979 q 63 963 47 972 q 86 940 80 955 q 92 897 92 924 m 492 -132 q 453 -148 469 -132 q 436 -187 436 -165 q 453 -226 436 -210 q 492 -243 469 -243 q 532 -226 516 -243 q 549 -187 549 -210 q 532 -148 549 -165 q 492 -132 516 -132 z "},"Ų":{"ha":922,"x_min":16,"x_max":920,"o":"m 92 897 l 92 408 q 123 210 92 290 q 208 81 155 130 q 330 12 262 33 q 471 -9 398 -9 q 670 40 593 -9 q 786 177 748 90 q 826 376 824 264 l 833 779 q 841 896 834 854 q 866 955 848 937 q 920 979 884 972 l 920 979 l 718 979 l 718 979 q 778 954 758 971 q 806 895 798 936 q 814 779 813 854 l 821 376 q 786 181 823 264 q 680 51 748 97 q 522 4 612 4 q 368 44 435 4 q 265 170 302 83 q 228 395 228 256 l 228 891 q 234 937 228 921 q 258 963 241 954 q 307 979 275 972 l 307 979 l 16 979 l 16 979 q 63 963 47 972 q 86 940 80 955 q 92 897 92 924 m 500 -317 q 568 -296 538 -317 q 608 -239 597 -275 l 608 -239 q 587 -259 600 -251 q 557 -268 574 -268 q 500 -229 524 -268 q 475 -136 475 -189 q 505 -8 475 -53 l 504 -8 q 420 -102 450 -53 q 390 -208 390 -152 q 421 -286 390 -255 q 500 -317 452 -317 z "},"Ư":{"ha":1000,"x_min":16,"x_max":1044,"o":"m 92 408 q 123 210 92 290 q 208 81 155 130 q 330 12 262 33 q 471 -9 398 -9 q 670 40 593 -9 q 786 177 748 90 q 826 376 824 264 l 836 983 l 833 983 q 857 980 845 981 q 882 979 869 979 q 1001 1005 957 979 q 1044 1078 1044 1031 q 1013 1154 1044 1121 q 933 1197 981 1186 l 932 1197 q 949 1164 942 1186 q 957 1116 957 1143 q 936 1046 957 1077 q 872 997 914 1015 q 766 979 829 979 l 718 979 l 718 979 q 778 954 758 971 q 806 895 798 936 q 814 779 813 854 l 821 376 q 786 181 823 264 q 680 51 748 97 q 522 4 612 4 q 368 44 435 4 q 265 170 302 83 q 228 395 228 256 l 228 891 q 234 937 228 921 q 258 963 241 954 q 307 979 275 972 l 307 979 l 16 979 l 16 979 q 63 963 47 972 q 86 940 80 955 q 92 897 92 924 l 92 408 z "},"Ứ":{"ha":1000,"x_min":16,"x_max":1044,"o":"m 92 408 q 123 210 92 290 q 208 81 155 130 q 330 12 262 33 q 471 -9 398 -9 q 670 40 593 -9 q 786 177 748 90 q 826 376 824 264 l 836 983 l 833 983 q 857 980 845 981 q 882 979 869 979 q 1001 1005 957 979 q 1044 1078 1044 1031 q 1013 1154 1044 1121 q 933 1197 981 1186 l 932 1197 q 949 1164 942 1186 q 957 1116 957 1143 q 936 1046 957 1077 q 872 997 914 1015 q 766 979 829 979 l 718 979 l 718 979 q 778 954 758 971 q 806 895 798 936 q 814 779 813 854 l 821 376 q 786 181 823 264 q 680 51 748 97 q 522 4 612 4 q 368 44 435 4 q 265 170 302 83 q 228 395 228 256 l 228 891 q 234 937 228 921 q 258 963 241 954 q 307 979 275 972 l 307 979 l 16 979 l 16 979 q 63 963 47 972 q 86 940 80 955 q 92 897 92 924 l 92 408 m 503 1025 l 702 1198 l 702 1199 l 576 1199 l 502 1025 l 503 1025 z "},"Ừ":{"ha":1000,"x_min":16,"x_max":1044,"o":"m 92 408 q 123 210 92 290 q 208 81 155 130 q 330 12 262 33 q 471 -9 398 -9 q 670 40 593 -9 q 786 177 748 90 q 826 376 824 264 l 836 983 l 833 983 q 857 980 845 981 q 882 979 869 979 q 1001 1005 957 979 q 1044 1078 1044 1031 q 1013 1154 1044 1121 q 933 1197 981 1186 l 932 1197 q 949 1164 942 1186 q 957 1116 957 1143 q 936 1046 957 1077 q 872 997 914 1015 q 766 979 829 979 l 718 979 l 718 979 q 778 954 758 971 q 806 895 798 936 q 814 779 813 854 l 821 376 q 786 181 823 264 q 680 51 748 97 q 522 4 612 4 q 368 44 435 4 q 265 170 302 83 q 228 395 228 256 l 228 891 q 234 937 228 921 q 258 963 241 954 q 307 979 275 972 l 307 979 l 16 979 l 16 979 q 63 963 47 972 q 86 940 80 955 q 92 897 92 924 l 92 408 m 555 1025 l 557 1025 l 486 1200 l 354 1200 l 354 1198 l 555 1025 z "},"Ữ":{"ha":1000,"x_min":16,"x_max":1044,"o":"m 92 408 q 123 210 92 290 q 208 81 155 130 q 330 12 262 33 q 471 -9 398 -9 q 670 40 593 -9 q 786 177 748 90 q 826 376 824 264 l 836 983 l 833 983 q 857 980 845 981 q 882 979 869 979 q 1001 1005 957 979 q 1044 1078 1044 1031 q 1013 1154 1044 1121 q 933 1197 981 1186 l 932 1197 q 949 1164 942 1186 q 957 1116 957 1143 q 936 1046 957 1077 q 872 997 914 1015 q 766 979 829 979 l 718 979 l 718 979 q 778 954 758 971 q 806 895 798 936 q 814 779 813 854 l 821 376 q 786 181 823 264 q 680 51 748 97 q 522 4 612 4 q 368 44 435 4 q 265 170 302 83 q 228 395 228 256 l 228 891 q 234 937 228 921 q 258 963 241 954 q 307 979 275 972 l 307 979 l 16 979 l 16 979 q 63 963 47 972 q 86 940 80 955 q 92 897 92 924 l 92 408 m 588 1046 q 653 1076 629 1046 q 673 1189 677 1107 l 672 1189 q 656 1125 669 1141 q 625 1108 644 1108 q 597 1114 610 1108 q 566 1132 585 1119 l 546 1145 q 500 1171 520 1162 q 458 1179 479 1179 q 393 1149 418 1179 q 374 1036 369 1119 l 374 1036 q 390 1101 378 1084 q 422 1117 403 1117 q 449 1112 437 1117 q 481 1093 461 1107 l 500 1080 q 547 1055 526 1063 q 588 1046 567 1046 z "},"Ử":{"ha":1000,"x_min":16,"x_max":1044,"o":"m 92 408 q 123 210 92 290 q 208 81 155 130 q 330 12 262 33 q 471 -9 398 -9 q 670 40 593 -9 q 786 177 748 90 q 826 376 824 264 l 836 983 l 833 983 q 857 980 845 981 q 882 979 869 979 q 1001 1005 957 979 q 1044 1078 1044 1031 q 1013 1154 1044 1121 q 933 1197 981 1186 l 932 1197 q 949 1164 942 1186 q 957 1116 957 1143 q 936 1046 957 1077 q 872 997 914 1015 q 766 979 829 979 l 718 979 l 718 979 q 778 954 758 971 q 806 895 798 936 q 814 779 813 854 l 821 376 q 786 181 823 264 q 680 51 748 97 q 522 4 612 4 q 368 44 435 4 q 265 170 302 83 q 228 395 228 256 l 228 891 q 234 937 228 921 q 258 963 241 954 q 307 979 275 972 l 307 979 l 16 979 l 16 979 q 63 963 47 972 q 86 940 80 955 q 92 897 92 924 l 92 408 m 536 1226 q 469 1205 497 1226 q 427 1151 441 1184 l 428 1150 q 456 1172 439 1164 q 493 1180 473 1180 q 541 1165 524 1180 q 559 1128 559 1151 q 542 1078 559 1101 q 493 1034 524 1054 l 494 1034 q 594 1094 566 1064 q 622 1157 622 1124 q 597 1207 622 1187 q 536 1226 572 1226 z "},"Ự":{"ha":1000,"x_min":16,"x_max":1044,"o":"m 92 408 q 123 210 92 290 q 208 81 155 130 q 330 12 262 33 q 471 -9 398 -9 q 670 40 593 -9 q 786 177 748 90 q 826 376 824 264 l 836 983 l 833 983 q 857 980 845 981 q 882 979 869 979 q 1001 1005 957 979 q 1044 1078 1044 1031 q 1013 1154 1044 1121 q 933 1197 981 1186 l 932 1197 q 949 1164 942 1186 q 957 1116 957 1143 q 936 1046 957 1077 q 872 997 914 1015 q 766 979 829 979 l 718 979 l 718 979 q 778 954 758 971 q 806 895 798 936 q 814 779 813 854 l 821 376 q 786 181 823 264 q 680 51 748 97 q 522 4 612 4 q 368 44 435 4 q 265 170 302 83 q 228 395 228 256 l 228 891 q 234 937 228 921 q 258 963 241 954 q 307 979 275 972 l 307 979 l 16 979 l 16 979 q 63 963 47 972 q 86 940 80 955 q 92 897 92 924 l 92 408 m 540 -132 q 500 -148 517 -132 q 484 -187 484 -165 q 500 -226 484 -210 q 540 -243 517 -243 q 580 -226 564 -243 q 596 -187 596 -210 q 580 -148 596 -165 q 540 -132 564 -132 z "},"V":{"ha":844,"x_min":-11,"x_max":854,"o":"m 107 835 l 404 0 l 427 0 l 713 778 q 763 898 742 857 q 805 957 784 939 q 854 979 826 974 l 854 979 l 647 979 l 647 979 q 710 954 692 972 q 723 894 728 935 q 694 781 718 853 l 486 165 l 486 165 l 251 835 q 235 912 235 882 q 253 959 235 943 q 306 979 271 975 l 306 979 l -11 979 l -11 979 q 37 960 17 974 q 73 916 56 945 q 107 835 89 886 z "},"Ṽ":{"ha":844,"x_min":-11,"x_max":854,"o":"m 107 835 l 404 0 l 427 0 l 713 778 q 763 898 742 857 q 805 957 784 939 q 854 979 826 974 l 854 979 l 647 979 l 647 979 q 710 954 692 972 q 723 894 728 935 q 694 781 718 853 l 486 165 l 486 165 l 251 835 q 235 912 235 882 q 253 959 235 943 q 306 979 271 975 l 306 979 l -11 979 l -11 979 q 37 960 17 974 q 73 916 56 945 q 107 835 89 886 m 522 1046 q 587 1077 563 1046 q 607 1190 612 1107 l 606 1190 q 590 1125 603 1142 q 559 1109 578 1109 q 532 1114 544 1109 q 500 1133 519 1120 l 480 1145 q 434 1172 454 1163 q 393 1180 414 1180 q 328 1150 352 1180 q 308 1037 303 1120 l 309 1037 q 325 1101 312 1085 q 356 1118 337 1118 q 383 1113 371 1118 q 415 1094 395 1107 l 435 1081 q 481 1055 460 1064 q 522 1046 501 1046 z "},"Ṿ":{"ha":844,"x_min":-11,"x_max":854,"o":"m 107 835 l 404 0 l 427 0 l 713 778 q 763 898 742 857 q 805 957 784 939 q 854 979 826 974 l 854 979 l 647 979 l 647 979 q 710 954 692 972 q 723 894 728 935 q 694 781 718 853 l 486 165 l 486 165 l 251 835 q 235 912 235 882 q 253 959 235 943 q 306 979 271 975 l 306 979 l -11 979 l -11 979 q 37 960 17 974 q 73 916 56 945 q 107 835 89 886 m 422 -132 q 382 -148 399 -132 q 366 -187 366 -165 q 382 -226 366 -210 q 422 -243 399 -243 q 462 -226 446 -243 q 478 -187 478 -210 q 462 -148 478 -165 q 422 -132 446 -132 z "},"W":{"ha":1357,"x_min":-11,"x_max":1368,"o":"m 106 835 l 378 0 l 401 0 l 692 902 l 670 902 l 952 0 l 975 0 l 1234 778 q 1279 898 1260 857 q 1319 957 1299 939 q 1368 979 1339 974 l 1368 979 l 1160 979 l 1160 979 q 1224 954 1206 972 q 1238 894 1242 935 q 1213 781 1234 853 l 1032 178 l 1032 178 l 840 831 q 820 920 823 890 q 831 962 817 949 q 877 979 845 974 l 877 979 l 583 979 l 583 979 q 643 957 624 970 q 662 909 663 943 q 642 810 661 876 l 456 178 l 456 178 l 252 835 q 237 913 237 883 q 253 959 237 943 q 306 979 270 975 l 306 979 l -11 979 l -11 979 q 32 963 12 975 q 70 921 52 951 q 106 835 87 892 z "},"Ẃ":{"ha":1357,"x_min":-11,"x_max":1368,"o":"m 106 835 l 378 0 l 401 0 l 692 902 l 670 902 l 952 0 l 975 0 l 1234 778 q 1279 898 1260 857 q 1319 957 1299 939 q 1368 979 1339 974 l 1368 979 l 1160 979 l 1160 979 q 1224 954 1206 972 q 1238 894 1242 935 q 1213 781 1234 853 l 1032 178 l 1032 178 l 840 831 q 820 920 823 890 q 831 962 817 949 q 877 979 845 974 l 877 979 l 583 979 l 583 979 q 643 957 624 970 q 662 909 663 943 q 642 810 661 876 l 456 178 l 456 178 l 252 835 q 237 913 237 883 q 253 959 237 943 q 306 979 270 975 l 306 979 l -11 979 l -11 979 q 32 963 12 975 q 70 921 52 951 q 106 835 87 892 m 691 1025 l 890 1198 l 890 1200 l 764 1200 l 690 1025 l 691 1025 z "},"Ẁ":{"ha":1357,"x_min":-11,"x_max":1368,"o":"m 106 835 l 378 0 l 401 0 l 692 902 l 670 902 l 952 0 l 975 0 l 1234 778 q 1279 898 1260 857 q 1319 957 1299 939 q 1368 979 1339 974 l 1368 979 l 1160 979 l 1160 979 q 1224 954 1206 972 q 1238 894 1242 935 q 1213 781 1234 853 l 1032 178 l 1032 178 l 840 831 q 820 920 823 890 q 831 962 817 949 q 877 979 845 974 l 877 979 l 583 979 l 583 979 q 643 957 624 970 q 662 909 663 943 q 642 810 661 876 l 456 178 l 456 178 l 252 835 q 237 913 237 883 q 253 959 237 943 q 306 979 270 975 l 306 979 l -11 979 l -11 979 q 32 963 12 975 q 70 921 52 951 q 106 835 87 892 m 743 1026 l 745 1026 l 673 1200 l 542 1200 l 542 1199 l 743 1026 z "},"Ŵ":{"ha":1357,"x_min":-11,"x_max":1368,"o":"m 106 835 l 378 0 l 401 0 l 692 902 l 670 902 l 952 0 l 975 0 l 1234 778 q 1279 898 1260 857 q 1319 957 1299 939 q 1368 979 1339 974 l 1368 979 l 1160 979 l 1160 979 q 1224 954 1206 972 q 1238 894 1242 935 q 1213 781 1234 853 l 1032 178 l 1032 178 l 840 831 q 820 920 823 890 q 831 962 817 949 q 877 979 845 974 l 877 979 l 583 979 l 583 979 q 643 957 624 970 q 662 909 663 943 q 642 810 661 876 l 456 178 l 456 178 l 252 835 q 237 913 237 883 q 253 959 237 943 q 306 979 270 975 l 306 979 l -11 979 l -11 979 q 32 963 12 975 q 70 921 52 951 q 106 835 87 892 m 570 1026 l 745 1140 l 690 1140 l 863 1026 l 865 1026 l 736 1200 l 699 1200 l 570 1026 q 570 1026 570 1026 q 570 1026 570 1026 z "},"Ẅ":{"ha":1357,"x_min":-11,"x_max":1368,"o":"m 106 835 l 378 0 l 401 0 l 692 902 l 670 902 l 952 0 l 975 0 l 1234 778 q 1279 898 1260 857 q 1319 957 1299 939 q 1368 979 1339 974 l 1368 979 l 1160 979 l 1160 979 q 1224 954 1206 972 q 1238 894 1242 935 q 1213 781 1234 853 l 1032 178 l 1032 178 l 840 831 q 820 920 823 890 q 831 962 817 949 q 877 979 845 974 l 877 979 l 583 979 l 583 979 q 643 957 624 970 q 662 909 663 943 q 642 810 661 876 l 456 178 l 456 178 l 252 835 q 237 913 237 883 q 253 959 237 943 q 306 979 270 975 l 306 979 l -11 979 l -11 979 q 32 963 12 975 q 70 921 52 951 q 106 835 87 892 m 619 1059 q 658 1075 642 1059 q 673 1114 673 1091 q 658 1152 673 1135 q 619 1168 642 1168 q 581 1152 597 1168 q 566 1114 566 1135 q 581 1075 566 1091 q 619 1059 597 1059 m 804 1059 q 842 1075 826 1059 q 857 1114 857 1091 q 842 1152 857 1135 q 804 1168 826 1168 q 765 1152 781 1168 q 749 1114 749 1135 q 765 1075 749 1091 q 804 1059 781 1059 z "},"Ẇ":{"ha":1357,"x_min":-11,"x_max":1368,"o":"m 106 835 l 378 0 l 401 0 l 692 902 l 670 902 l 952 0 l 975 0 l 1234 778 q 1279 898 1260 857 q 1319 957 1299 939 q 1368 979 1339 974 l 1368 979 l 1160 979 l 1160 979 q 1224 954 1206 972 q 1238 894 1242 935 q 1213 781 1234 853 l 1032 178 l 1032 178 l 840 831 q 820 920 823 890 q 831 962 817 949 q 877 979 845 974 l 877 979 l 583 979 l 583 979 q 643 957 624 970 q 662 909 663 943 q 642 810 661 876 l 456 178 l 456 178 l 252 835 q 237 913 237 883 q 253 959 237 943 q 306 979 270 975 l 306 979 l -11 979 l -11 979 q 32 963 12 975 q 70 921 52 951 q 106 835 87 892 m 711 1057 q 751 1074 735 1057 q 768 1113 768 1090 q 751 1152 768 1135 q 711 1168 735 1168 q 672 1152 688 1168 q 655 1113 655 1135 q 672 1074 655 1090 q 711 1057 688 1057 z "},"Ẉ":{"ha":1357,"x_min":-11,"x_max":1368,"o":"m 106 835 l 378 0 l 401 0 l 692 902 l 670 902 l 952 0 l 975 0 l 1234 778 q 1279 898 1260 857 q 1319 957 1299 939 q 1368 979 1339 974 l 1368 979 l 1160 979 l 1160 979 q 1224 954 1206 972 q 1238 894 1242 935 q 1213 781 1234 853 l 1032 178 l 1032 178 l 840 831 q 820 920 823 890 q 831 962 817 949 q 877 979 845 974 l 877 979 l 583 979 l 583 979 q 643 957 624 970 q 662 909 663 943 q 642 810 661 876 l 456 178 l 456 178 l 252 835 q 237 913 237 883 q 253 959 237 943 q 306 979 270 975 l 306 979 l -11 979 l -11 979 q 32 963 12 975 q 70 921 52 951 q 106 835 87 892 m 685 -132 q 645 -148 662 -132 q 629 -187 629 -165 q 645 -226 629 -210 q 685 -243 662 -243 q 725 -226 709 -243 q 741 -187 741 -210 q 725 -148 741 -165 q 685 -132 709 -132 z "},"X":{"ha":865,"x_min":0,"x_max":865,"o":"m 144 846 l 594 109 q 616 59 612 81 q 609 23 621 37 q 564 1 597 8 l 564 0 l 865 0 l 865 1 q 817 23 838 9 q 775 62 796 36 q 726 134 754 88 l 276 870 q 249 927 255 905 q 256 960 242 948 q 306 979 269 972 l 306 979 l 16 979 l 16 979 q 60 957 41 970 q 97 917 78 943 q 144 846 117 890 m 199 208 q 110 83 144 126 q 52 24 76 41 q 0 1 27 7 l 0 0 l 205 0 l 205 1 q 149 25 162 7 q 152 85 135 43 q 215 205 168 127 l 391 494 l 391 494 l 199 208 m 657 778 q 744 898 711 857 q 802 956 777 939 q 853 979 827 973 l 853 979 l 648 979 l 648 979 q 705 955 691 972 q 703 896 719 937 q 642 781 688 856 l 471 504 l 471 503 l 657 778 z "},"Ẍ":{"ha":865,"x_min":0,"x_max":865,"o":"m 144 846 l 594 109 q 616 59 612 81 q 609 23 621 37 q 564 1 597 8 l 564 0 l 865 0 l 865 1 q 817 23 838 9 q 775 62 796 36 q 726 134 754 88 l 276 870 q 249 927 255 905 q 256 960 242 948 q 306 979 269 972 l 306 979 l 16 979 l 16 979 q 60 957 41 970 q 97 917 78 943 q 144 846 117 890 m 199 208 q 110 83 144 126 q 52 24 76 41 q 0 1 27 7 l 0 0 l 205 0 l 205 1 q 149 25 162 7 q 152 85 135 43 q 215 205 168 127 l 391 494 l 391 494 l 199 208 m 657 778 q 744 898 711 857 q 802 956 777 939 q 853 979 827 973 l 853 979 l 648 979 l 648 979 q 705 955 691 972 q 703 896 719 937 q 642 781 688 856 l 471 504 l 471 503 l 657 778 m 380 1059 q 418 1075 403 1059 q 434 1114 434 1091 q 418 1152 434 1135 q 380 1168 403 1168 q 342 1152 357 1168 q 326 1114 326 1135 q 342 1075 326 1091 q 380 1059 357 1059 m 564 1059 q 602 1075 587 1059 q 618 1114 618 1091 q 602 1152 618 1135 q 564 1168 587 1168 q 526 1152 541 1168 q 510 1114 510 1135 q 526 1075 510 1091 q 564 1059 541 1059 z "},"Ẋ":{"ha":865,"x_min":0,"x_max":865,"o":"m 144 846 l 594 109 q 616 59 612 81 q 609 23 621 37 q 564 1 597 8 l 564 0 l 865 0 l 865 1 q 817 23 838 9 q 775 62 796 36 q 726 134 754 88 l 276 870 q 249 927 255 905 q 256 960 242 948 q 306 979 269 972 l 306 979 l 16 979 l 16 979 q 60 957 41 970 q 97 917 78 943 q 144 846 117 890 m 199 208 q 110 83 144 126 q 52 24 76 41 q 0 1 27 7 l 0 0 l 205 0 l 205 1 q 149 25 162 7 q 152 85 135 43 q 215 205 168 127 l 391 494 l 391 494 l 199 208 m 657 778 q 744 898 711 857 q 802 956 777 939 q 853 979 827 973 l 853 979 l 648 979 l 648 979 q 705 955 691 972 q 703 896 719 937 q 642 781 688 856 l 471 504 l 471 503 l 657 778 m 472 1057 q 512 1074 496 1057 q 528 1113 528 1090 q 512 1152 528 1135 q 472 1168 496 1168 q 432 1152 449 1168 q 416 1113 416 1135 q 432 1074 416 1090 q 472 1057 449 1057 z "},"Y":{"ha":842,"x_min":-3,"x_max":845,"o":"m 143 827 l 353 473 l 353 99 q 348 47 353 66 q 324 17 342 28 q 269 1 306 7 l 269 0 l 573 0 l 573 1 q 519 17 537 7 q 495 47 500 28 q 489 99 489 66 l 489 482 l 667 778 q 744 898 715 857 q 796 956 773 939 q 845 979 819 973 l 845 979 l 640 979 l 640 979 q 699 954 683 972 q 704 896 715 936 q 651 781 692 855 l 489 487 l 489 487 l 289 830 q 255 939 243 907 q 314 979 267 970 l 314 979 l -3 979 l -3 979 q 38 964 20 975 q 81 923 57 954 q 143 827 105 892 z "},"Ý":{"ha":842,"x_min":-3,"x_max":845,"o":"m 143 827 l 353 473 l 353 99 q 348 47 353 66 q 324 17 342 28 q 269 1 306 7 l 269 0 l 573 0 l 573 1 q 519 17 537 7 q 495 47 500 28 q 489 99 489 66 l 489 482 l 667 778 q 744 898 715 857 q 796 956 773 939 q 845 979 819 973 l 845 979 l 640 979 l 640 979 q 699 954 683 972 q 704 896 715 936 q 651 781 692 855 l 489 487 l 489 487 l 289 830 q 255 939 243 907 q 314 979 267 970 l 314 979 l -3 979 l -3 979 q 38 964 20 975 q 81 923 57 954 q 143 827 105 892 m 454 1025 l 653 1198 l 653 1200 l 527 1200 l 453 1025 l 454 1025 z "},"Ỳ":{"ha":842,"x_min":-3,"x_max":845,"o":"m 143 827 l 353 473 l 353 99 q 348 47 353 66 q 324 17 342 28 q 269 1 306 7 l 269 0 l 573 0 l 573 1 q 519 17 537 7 q 495 47 500 28 q 489 99 489 66 l 489 482 l 667 778 q 744 898 715 857 q 796 956 773 939 q 845 979 819 973 l 845 979 l 640 979 l 640 979 q 699 954 683 972 q 704 896 715 936 q 651 781 692 855 l 489 487 l 489 487 l 289 830 q 255 939 243 907 q 314 979 267 970 l 314 979 l -3 979 l -3 979 q 38 964 20 975 q 81 923 57 954 q 143 827 105 892 m 507 1026 l 508 1026 l 437 1200 l 305 1200 l 305 1199 l 507 1026 z "},"Ŷ":{"ha":842,"x_min":-3,"x_max":845,"o":"m 143 827 l 353 473 l 353 99 q 348 47 353 66 q 324 17 342 28 q 269 1 306 7 l 269 0 l 573 0 l 573 1 q 519 17 537 7 q 495 47 500 28 q 489 99 489 66 l 489 482 l 667 778 q 744 898 715 857 q 796 956 773 939 q 845 979 819 973 l 845 979 l 640 979 l 640 979 q 699 954 683 972 q 704 896 715 936 q 651 781 692 855 l 489 487 l 489 487 l 289 830 q 255 939 243 907 q 314 979 267 970 l 314 979 l -3 979 l -3 979 q 38 964 20 975 q 81 923 57 954 q 143 827 105 892 m 334 1026 l 508 1140 l 453 1140 l 627 1026 l 628 1026 l 500 1200 l 462 1200 l 334 1026 q 334 1026 334 1026 q 334 1026 334 1026 z "},"Ÿ":{"ha":842,"x_min":-3,"x_max":845,"o":"m 143 827 l 353 473 l 353 99 q 348 47 353 66 q 324 17 342 28 q 269 1 306 7 l 269 0 l 573 0 l 573 1 q 519 17 537 7 q 495 47 500 28 q 489 99 489 66 l 489 482 l 667 778 q 744 898 715 857 q 796 956 773 939 q 845 979 819 973 l 845 979 l 640 979 l 640 979 q 699 954 683 972 q 704 896 715 936 q 651 781 692 855 l 489 487 l 489 487 l 289 830 q 255 939 243 907 q 314 979 267 970 l 314 979 l -3 979 l -3 979 q 38 964 20 975 q 81 923 57 954 q 143 827 105 892 m 382 1059 q 421 1075 406 1059 q 437 1114 437 1091 q 421 1152 437 1135 q 382 1168 406 1168 q 345 1152 360 1168 q 329 1114 329 1135 q 345 1075 329 1091 q 382 1059 360 1059 m 567 1059 q 605 1075 589 1059 q 621 1114 621 1091 q 605 1152 621 1135 q 567 1168 589 1168 q 528 1152 544 1168 q 513 1114 513 1135 q 528 1075 513 1091 q 567 1059 544 1059 z "},"Ỹ":{"ha":842,"x_min":-3,"x_max":845,"o":"m 143 827 l 353 473 l 353 99 q 348 47 353 66 q 324 17 342 28 q 269 1 306 7 l 269 0 l 573 0 l 573 1 q 519 17 537 7 q 495 47 500 28 q 489 99 489 66 l 489 482 l 667 778 q 744 898 715 857 q 796 956 773 939 q 845 979 819 973 l 845 979 l 640 979 l 640 979 q 699 954 683 972 q 704 896 715 936 q 651 781 692 855 l 489 487 l 489 487 l 289 830 q 255 939 243 907 q 314 979 267 970 l 314 979 l -3 979 l -3 979 q 38 964 20 975 q 81 923 57 954 q 143 827 105 892 m 539 1046 q 604 1077 580 1046 q 624 1190 629 1107 l 623 1190 q 607 1125 620 1142 q 576 1109 595 1109 q 549 1114 561 1109 q 517 1133 536 1120 l 497 1145 q 451 1172 471 1163 q 410 1180 431 1180 q 345 1150 369 1180 q 325 1037 320 1120 l 326 1037 q 341 1101 329 1085 q 373 1118 354 1118 q 400 1113 388 1118 q 432 1094 412 1107 l 452 1081 q 498 1055 477 1064 q 539 1046 518 1046 z "},"Ȳ":{"ha":842,"x_min":-3,"x_max":845,"o":"m 143 827 l 353 473 l 353 99 q 348 47 353 66 q 324 17 342 28 q 269 1 306 7 l 269 0 l 573 0 l 573 1 q 519 17 537 7 q 495 47 500 28 q 489 99 489 66 l 489 482 l 667 778 q 744 898 715 857 q 796 956 773 939 q 845 979 819 973 l 845 979 l 640 979 l 640 979 q 699 954 683 972 q 704 896 715 936 q 651 781 692 855 l 489 487 l 489 487 l 289 830 q 255 939 243 907 q 314 979 267 970 l 314 979 l -3 979 l -3 979 q 38 964 20 975 q 81 923 57 954 q 143 827 105 892 m 335 1073 l 615 1073 l 615 1131 l 335 1131 l 335 1073 z "},"Ỷ":{"ha":842,"x_min":-3,"x_max":845,"o":"m 143 827 l 353 473 l 353 99 q 348 47 353 66 q 324 17 342 28 q 269 1 306 7 l 269 0 l 573 0 l 573 1 q 519 17 537 7 q 495 47 500 28 q 489 99 489 66 l 489 482 l 667 778 q 744 898 715 857 q 796 956 773 939 q 845 979 819 973 l 845 979 l 640 979 l 640 979 q 699 954 683 972 q 704 896 715 936 q 651 781 692 855 l 489 487 l 489 487 l 289 830 q 255 939 243 907 q 314 979 267 970 l 314 979 l -3 979 l -3 979 q 38 964 20 975 q 81 923 57 954 q 143 827 105 892 m 487 1227 q 420 1206 448 1227 q 378 1152 392 1185 l 379 1151 q 407 1173 391 1164 q 444 1181 424 1181 q 492 1166 475 1181 q 510 1129 510 1152 q 493 1078 510 1102 q 444 1035 475 1055 l 446 1035 q 545 1095 517 1065 q 573 1158 573 1125 q 548 1207 573 1188 q 487 1227 523 1227 z "},"Ẏ":{"ha":842,"x_min":-3,"x_max":845,"o":"m 143 827 l 353 473 l 353 99 q 348 47 353 66 q 324 17 342 28 q 269 1 306 7 l 269 0 l 573 0 l 573 1 q 519 17 537 7 q 495 47 500 28 q 489 99 489 66 l 489 482 l 667 778 q 744 898 715 857 q 796 956 773 939 q 845 979 819 973 l 845 979 l 640 979 l 640 979 q 699 954 683 972 q 704 896 715 936 q 651 781 692 855 l 489 487 l 489 487 l 289 830 q 255 939 243 907 q 314 979 267 970 l 314 979 l -3 979 l -3 979 q 38 964 20 975 q 81 923 57 954 q 143 827 105 892 m 475 1057 q 515 1074 498 1057 q 531 1113 531 1090 q 515 1152 531 1135 q 475 1168 498 1168 q 435 1152 452 1168 q 418 1113 418 1135 q 435 1074 418 1090 q 475 1057 452 1057 z "},"Ỵ":{"ha":842,"x_min":-3,"x_max":845,"o":"m 143 827 l 353 473 l 353 99 q 348 47 353 66 q 324 17 342 28 q 269 1 306 7 l 269 0 l 573 0 l 573 1 q 519 17 537 7 q 495 47 500 28 q 489 99 489 66 l 489 482 l 667 778 q 744 898 715 857 q 796 956 773 939 q 845 979 819 973 l 845 979 l 640 979 l 640 979 q 699 954 683 972 q 704 896 715 936 q 651 781 692 855 l 489 487 l 489 487 l 289 830 q 255 939 243 907 q 314 979 267 970 l 314 979 l -3 979 l -3 979 q 38 964 20 975 q 81 923 57 954 q 143 827 105 892 m 427 -132 q 387 -148 404 -132 q 370 -187 370 -165 q 387 -226 370 -210 q 427 -243 404 -243 q 467 -226 450 -243 q 483 -187 483 -210 q 467 -148 483 -165 q 427 -132 450 -132 z "},"Z":{"ha":795,"x_min":41,"x_max":760,"o":"m 745 0 l 760 240 l 760 240 q 721 129 743 172 q 659 60 698 85 q 554 24 619 35 q 388 8 489 12 l 189 1 l 747 978 l 747 979 l 81 979 l 63 763 l 64 763 q 103 861 80 822 q 168 923 126 900 q 282 958 210 947 q 468 974 354 970 l 598 979 l 41 1 l 41 0 l 745 0 z "},"Ź":{"ha":795,"x_min":41,"x_max":760,"o":"m 745 0 l 760 240 l 760 240 q 721 129 743 172 q 659 60 698 85 q 554 24 619 35 q 388 8 489 12 l 189 1 l 747 978 l 747 979 l 81 979 l 63 763 l 64 763 q 103 861 80 822 q 168 923 126 900 q 282 958 210 947 q 468 974 354 970 l 598 979 l 41 1 l 41 0 l 745 0 m 395 1025 l 593 1198 l 593 1200 l 467 1200 l 393 1025 l 395 1025 z "}}}
